<?xml version="1.0" encoding="utf-8"?><svg viewBox="0 0 32 32" xmlns="http://www.w3.org/2000/svg" xmlns:xlink="http://www.w3.org/1999/xlink"><style>:root>svg{display:none}:root>svg:target{display:block}</style><svg viewBox="0 0 20 20" id="minus-circle" xmlns="http://www.w3.org/2000/svg"><path d="M10 1.667a8.333 8.333 0 100 16.666 8.333 8.333 0 000-16.666zm0 15a6.667 6.667 0 110-13.334 6.667 6.667 0 010 13.333zm3.333-7.5H6.667a.833.833 0 000 1.666h6.666a.833.833 0 000-1.667z"/></svg><svg viewBox="0 0 20 20" id="plus-circle" xmlns="http://www.w3.org/2000/svg"><path d="M10 1.667a8.333 8.333 0 100 16.666 8.333 8.333 0 000-16.666zm0 15a6.667 6.667 0 110-13.334 6.667 6.667 0 010 13.333zm3.333-7.5h-2.5v-2.5a.833.833 0 10-1.666 0v2.5h-2.5a.833.833 0 000 1.666h2.5v2.5a.833.833 0 001.666 0v-2.5h2.5a.833.833 0 000-1.667z"/></svg><svg viewBox="0 0 32 32" id="star" xmlns="http://www.w3.org/2000/svg"><path d="M15.168 5.06a.93.93 0 011.666 0l2.988 6.056a.93.93 0 00.7.508l6.682.97a.928.928 0 01.515 1.585l-4.835 4.713a.93.93 0 00-.268.823l1.141 6.655a.93.93 0 01-1.348.98l-5.977-3.142a.928.928 0 00-.865 0L9.59 27.35a.93.93 0 01-1.348-.98l1.141-6.655a.929.929 0 00-.268-.823L4.281 14.18a.93.93 0 01.515-1.584l6.683-.971a.929.929 0 00.7-.509l2.989-6.054z"/></svg><svg viewBox="0 0 32 32" id="star-filled" xmlns="http://www.w3.org/2000/svg"><path d="M15.168 5.06a.93.93 0 011.666 0l2.988 6.056a.93.93 0 00.7.508l6.682.97a.928.928 0 01.515 1.585l-4.835 4.713a.93.93 0 00-.268.823l1.141 6.655a.93.93 0 01-1.348.98l-5.977-3.142a.928.928 0 00-.865 0L9.59 27.35a.93.93 0 01-1.348-.98l1.141-6.655a.929.929 0 00-.268-.823L4.281 14.18a.93.93 0 01.515-1.584l6.683-.971a.929.929 0 00.7-.509l2.989-6.054z"/></svg><svg viewBox="0 0 22 22" id="thumb" xmlns="http://www.w3.org/2000/svg"><path d="M19.525 9.24a2.75 2.75 0 00-2.108-.99h-4.18l.513-1.31a3.786 3.786 0 00-3.566-5.106.917.917 0 00-.834.54L6.737 8.25H4.583A2.75 2.75 0 001.833 11v6.417a2.75 2.75 0 002.75 2.75h11.67a2.75 2.75 0 002.704-2.255l1.164-6.417a2.75 2.75 0 00-.596-2.255zM6.417 18.334H4.583a.917.917 0 01-.916-.917V11a.917.917 0 01.916-.916h1.834v8.25zm11.916-7.169l-1.164 6.417a.917.917 0 01-.917.752H8.25V9.359l2.493-5.61a1.934 1.934 0 011.265 2.549l-.486 1.31a1.832 1.832 0 001.715 2.476h4.18a.917.917 0 01.705.33.918.918 0 01.211.751z"/></svg></svg>