<svg width="22" height="22" fill="none" xmlns="http://www.w3.org/2000/svg"><path d="M19.525 9.24a2.75 2.75 0 00-2.108-.99h-4.18l.513-1.31a3.786 3.786 0 00-3.566-5.106.917.917 0 00-.834.54L6.737 8.25H4.583A2.75 2.75 0 001.833 11v6.417a2.75 2.75 0 002.75 2.75h11.67a2.75 2.75 0 002.704-2.255l1.164-6.417a2.75 2.75 0 00-.596-2.255zM6.417 18.334H4.583a.917.917 0 01-.916-.917V11a.917.917 0 01.916-.916h1.834v8.25zm11.916-7.169l-1.164 6.417a.917.917 0 01-.917.752H8.25V9.359l2.493-5.61a1.934 1.934 0 011.265 2.549l-.486 1.31a1.832 1.832 0 001.715 2.476h4.18a.917.917 0 01.705.33.918.918 0 01.211.751z" fill="#87919C"/></svg>