<svg width="24" height="24" viewBox="0 0 24 24" fill="none" xmlns="http://www.w3.org/2000/svg">
<path d="M22.8 1.6H20V0.4C20 0.1788 19.8212 0 19.6 0H16.8C16.5788 0 16.4 0.1788 16.4 0.4V1.6H7.60005V0.4C7.60005 0.1788 7.42125 0 7.20005 0H4.40005C4.17885 0 4.00005 0.1788 4.00005 0.4V1.6H1.20005C0.978849 1.6 0.800049 1.7788 0.800049 2V6.4V23.6C0.800049 23.8212 0.978849 24 1.20005 24H22.8C23.0212 24 23.2 23.8212 23.2 23.6V6.4V2C23.2 1.7788 23.0212 1.6 22.8 1.6ZM17.2 0.8H19.2V2V3.2H17.2V2V0.8ZM4.80005 0.8H6.80005V2V3.2H4.80005V2V0.8ZM1.60005 2.4H4.00005V3.6C4.00005 3.8212 4.17885 4 4.40005 4H7.20005C7.42125 4 7.60005 3.8212 7.60005 3.6V2.4H16.4V3.6C16.4 3.8212 16.5788 4 16.8 4H19.6C19.8212 4 20 3.8212 20 3.6V2.4H22.4V6H1.60005V2.4ZM1.60005 23.2V6.8H22.4V23.2H1.60005Z" fill="#3464E0"/>
<path d="M15.2 9.20001H12.4H11.6H8.80002H8.00002H4.40002V12.8V13.6V16.4V17.2V20.8H8.00002H8.80002H11.6H12.4H15.2H16H19.6V17.2V16.4V13.6V12.8V9.20001H16H15.2ZM12.4 10H15.2V12.8H12.4V10ZM15.2 16.4H12.4V13.6H15.2V16.4ZM8.80002 13.6H11.6V16.4H8.80002V13.6ZM8.80002 10H11.6V12.8H8.80002V10ZM5.20002 10H8.00002V12.8H5.20002V10ZM5.20002 13.6H8.00002V16.4H5.20002V13.6ZM8.00002 20H5.20002V17.2H8.00002V20ZM11.6 20H8.80002V17.2H11.6V20ZM15.2 20H12.4V17.2H15.2V20ZM18.8 20H16V17.2H18.8V20ZM18.8 16.4H16V13.6H18.8V16.4ZM18.8 10V12.8H16V10H18.8Z" fill="#3464E0"/>
</svg>
