<svg width="36" height="36" viewBox="0 0 36 36" fill="none" xmlns="http://www.w3.org/2000/svg">
<path d="M34.2 2.4H30V0.6C30 0.2682 29.7318 0 29.4 0H25.2C24.8682 0 24.6 0.2682 24.6 0.6V2.4H11.4V0.6C11.4 0.2682 11.1318 0 10.8 0H6.60001C6.26821 0 6.00001 0.2682 6.00001 0.6V2.4H1.80001C1.46821 2.4 1.20001 2.6682 1.20001 3V9.6V35.4C1.20001 35.7318 1.46821 36 1.80001 36H34.2C34.5318 36 34.8 35.7318 34.8 35.4V9.6V3C34.8 2.6682 34.5318 2.4 34.2 2.4ZM25.8 1.2H28.8V3V4.8H25.8V3V1.2ZM7.20001 1.2H10.2V3V4.8H7.20001V3V1.2ZM2.40001 3.6H6.00001V5.4C6.00001 5.7318 6.26821 6 6.60001 6H10.8C11.1318 6 11.4 5.7318 11.4 5.4V3.6H24.6V5.4C24.6 5.7318 24.8682 6 25.2 6H29.4C29.7318 6 30 5.7318 30 5.4V3.6H33.6V9H2.40001V3.6ZM2.40001 34.8V10.2H33.6V34.8H2.40001Z" fill="#C3CAD6"/>
<path d="M22.8 13.8H18.6H17.4H13.2H12H6.60004V19.2V20.4V24.6V25.8V31.2H12H13.2H17.4H18.6H22.8H24H29.4V25.8V24.6V20.4V19.2V13.8H24H22.8ZM18.6 15H22.8V19.2H18.6V15ZM22.8 24.6H18.6V20.4H22.8V24.6ZM13.2 20.4H17.4V24.6H13.2V20.4ZM13.2 15H17.4V19.2H13.2V15ZM7.80004 15H12V19.2H7.80004V15ZM7.80004 20.4H12V24.6H7.80004V20.4ZM12 30H7.80004V25.8H12V30ZM17.4 30H13.2V25.8H17.4V30ZM22.8 30H18.6V25.8H22.8V30ZM28.2 30H24V25.8H28.2V30ZM28.2 24.6H24V20.4H28.2V24.6ZM28.2 15V19.2H24V15H28.2Z" fill="#C3CAD6"/>
</svg>
