<svg width="24" height="24" viewBox="0 0 24 24" fill="none" xmlns="http://www.w3.org/2000/svg">
<path d="M12 0C5.3832 0 0 5.3832 0 12C0 18.6168 5.3832 24 12 24C18.6168 24 24 18.6168 24 12C24 5.3832 18.6168 0 12 0ZM12 23.2C5.8244 23.2 0.8 18.1756 0.8 12C0.8 5.8244 5.8244 0.8 12 0.8C18.1756 0.8 23.2 5.8244 23.2 12C23.2 18.1756 18.1756 23.2 12 23.2Z" fill="#3464E0"/>
<path d="M12.4 10.4084V6.3516C12.4 6.1304 12.2208 5.9516 12 5.9516C11.7792 5.9516 11.6 6.1304 11.6 6.3516V10.4084C11.0404 10.554 10.6024 10.992 10.4568 11.5516H7.59995C7.37915 11.5516 7.19995 11.7304 7.19995 11.9516C7.19995 12.1728 7.37915 12.3516 7.59995 12.3516H10.4568C10.6356 13.0396 11.2568 13.5516 12 13.5516C12.8824 13.5516 13.6 12.834 13.6 11.9516C13.6 11.208 13.088 10.5872 12.4 10.4084ZM12 12.7516C11.5588 12.7516 11.2 12.3928 11.2 11.9516C11.2 11.5104 11.5588 11.1516 12 11.1516C12.4412 11.1516 12.8 11.5104 12.8 11.9516C12.8 12.3928 12.4412 12.7516 12 12.7516Z" fill="#3464E0"/>
<path d="M12 3.95159C12.2208 3.95159 12.4 3.77279 12.4 3.55159V3.15159C12.4 2.93039 12.2208 2.75159 12 2.75159C11.7792 2.75159 11.6 2.93039 11.6 3.15159V3.55159C11.6 3.77279 11.7792 3.95159 12 3.95159Z" fill="#3464E0"/>
<path d="M12 19.9516C11.7792 19.9516 11.6 20.1304 11.6 20.3516V20.7516C11.6 20.9728 11.7792 21.1516 12 21.1516C12.2208 21.1516 12.4 20.9728 12.4 20.7516V20.3516C12.4 20.1304 12.2208 19.9516 12 19.9516Z" fill="#3464E0"/>
<path d="M20.8 11.5516H20.4C20.1792 11.5516 20 11.7304 20 11.9516C20 12.1728 20.1792 12.3516 20.4 12.3516H20.8C21.0208 12.3516 21.2 12.1728 21.2 11.9516C21.2 11.7304 21.0208 11.5516 20.8 11.5516Z" fill="#3464E0"/>
<path d="M3.60005 11.5516H3.20005C2.97925 11.5516 2.80005 11.7304 2.80005 11.9516C2.80005 12.1728 2.97925 12.3516 3.20005 12.3516H3.60005C3.82085 12.3516 4.00005 12.1728 4.00005 11.9516C4.00005 11.7304 3.82085 11.5516 3.60005 11.5516Z" fill="#3464E0"/>
<path d="M17.9397 5.44601L17.6569 5.72881C17.5005 5.88521 17.5005 6.13801 17.6569 6.29441C17.7349 6.37241 17.8373 6.41161 17.9397 6.41161C18.0421 6.41161 18.1445 6.37241 18.2225 6.29441L18.5053 6.01161C18.6617 5.85521 18.6617 5.60241 18.5053 5.44601C18.3489 5.28961 18.0961 5.29001 17.9397 5.44601Z" fill="#3464E0"/>
<path d="M5.77779 17.6084L5.49499 17.8912C5.33859 18.0476 5.33859 18.3004 5.49499 18.4568C5.57299 18.5348 5.67539 18.574 5.77779 18.574C5.88019 18.574 5.98258 18.5348 6.06058 18.4568L6.34338 18.174C6.49978 18.0176 6.49978 17.7648 6.34338 17.6084C6.18698 17.452 5.93378 17.4524 5.77779 17.6084Z" fill="#3464E0"/>
<path d="M18.2225 17.6084C18.0661 17.452 17.8133 17.452 17.6569 17.6084C17.5005 17.7648 17.5005 18.0176 17.6569 18.174L17.9397 18.4568C18.0177 18.5348 18.1201 18.574 18.2225 18.574C18.3249 18.574 18.4273 18.5348 18.5053 18.4568C18.6617 18.3004 18.6617 18.0476 18.5053 17.8912L18.2225 17.6084Z" fill="#3464E0"/>
<path d="M6.06058 5.446C5.90418 5.2896 5.65139 5.2896 5.49499 5.446C5.33859 5.6024 5.33859 5.8552 5.49499 6.0116L5.77779 6.2944C5.85579 6.3724 5.95818 6.4116 6.06058 6.4116C6.16298 6.4116 6.26538 6.3724 6.34338 6.2944C6.49978 6.138 6.49978 5.8852 6.34338 5.7288L6.06058 5.446Z" fill="#3464E0"/>
</svg>
