<svg width="34" height="36" viewBox="0 0 34 36" fill="none" xmlns="http://www.w3.org/2000/svg">
<path d="M33.2681 5.57018C32.5101 2.76218 26.8686 0 17 0C7.13141 0 1.48923 2.76218 0.731916 5.57018C0.676934 5.6664 0.636353 5.77178 0.636353 5.89091V6.21818V13.7455V14.0727V14.4V21.6V21.9273V22.2545V30.1091C0.636353 30.2151 0.664498 30.3153 0.712934 30.4043C1.48595 33.6083 8.40188 36 17 36C25.5785 36 32.4833 33.6181 33.2818 30.4259C33.3342 30.3323 33.3636 30.2243 33.3636 30.1091V22.2545V21.9273V21.6V14.4V14.0727V13.7455V6.21818V5.89091C33.3636 5.77178 33.323 5.6664 33.2681 5.57018ZM32.0028 22.2447C31.9845 22.3239 31.959 22.4025 31.9269 22.4823C31.9007 22.5471 31.8686 22.6119 31.8333 22.6767C31.7894 22.7572 31.7404 22.8377 31.6821 22.9183C31.6389 22.9791 31.5898 23.0393 31.5388 23.0996C31.4661 23.1853 31.3889 23.2711 31.3012 23.3561C31.2481 23.4079 31.1899 23.4589 31.131 23.5106C31.0236 23.6042 30.9117 23.6972 30.7867 23.7895C30.733 23.8294 30.6754 23.868 30.6185 23.9073C30.4705 24.0094 30.3161 24.1108 30.1465 24.2103C30.102 24.2372 30.0542 24.2627 30.0078 24.2889C29.8127 24.3988 29.6092 24.5081 29.3892 24.6142C29.3611 24.6279 29.3316 24.641 29.3028 24.6541C29.0574 24.77 28.8008 24.8839 28.5265 24.9938C28.5187 24.9971 28.5108 24.9997 28.503 25.003C27.0165 25.5967 25.115 26.0961 22.8994 26.4233C22.8883 26.4247 22.8772 26.426 22.866 26.4279C22.4353 26.4914 21.9935 26.5477 21.5399 26.5975C21.466 26.6053 21.3881 26.6105 21.3134 26.6184C20.9174 26.6596 20.5169 26.6976 20.1045 26.7277C19.916 26.7415 19.7183 26.748 19.5265 26.7598C19.2163 26.7781 18.9093 26.7984 18.5912 26.8095C18.0715 26.8259 17.5413 26.8364 17 26.8364C16.4587 26.8364 15.9285 26.8259 15.4081 26.8076C15.09 26.7964 14.783 26.7755 14.4728 26.7578C14.281 26.7467 14.0833 26.7395 13.8948 26.7257C13.4825 26.6956 13.0819 26.6577 12.6859 26.6164C12.6113 26.6086 12.5334 26.6033 12.4594 26.5955C12.0058 26.5457 11.564 26.4888 11.1333 26.426C11.1222 26.4247 11.111 26.4233 11.0999 26.4214C8.88428 26.0941 6.98283 25.5947 5.49635 25.001C5.4885 24.9984 5.48064 24.9951 5.47279 24.9919C5.19853 24.8819 4.9413 24.768 4.6965 24.6521C4.66835 24.6384 4.63824 24.6253 4.6101 24.6122C4.39017 24.5062 4.18661 24.3975 3.99155 24.2869C3.94573 24.2607 3.8973 24.2352 3.85279 24.2084C3.68326 24.1089 3.52879 24.0074 3.38086 23.9053C3.32457 23.866 3.26632 23.8274 3.21264 23.7875C3.08763 23.6952 2.9757 23.6023 2.86835 23.5087C2.8101 23.4576 2.75119 23.4065 2.69817 23.3542C2.61046 23.2691 2.53323 23.184 2.46057 23.0976C2.40952 23.0374 2.36043 22.9772 2.31723 22.9163C2.25963 22.8358 2.21053 22.7553 2.16603 22.6748C2.13068 22.61 2.09926 22.5452 2.07243 22.4804C2.04035 22.4012 2.01483 22.322 1.9965 22.2428C1.97228 22.1387 1.94544 22.0327 1.94544 21.9273C1.94544 21.8533 1.95395 21.7793 1.96573 21.706C1.9821 21.6072 1.97293 21.5084 1.94544 21.4148V16.5554C1.96377 16.5724 1.98668 16.5888 2.00566 16.6058C2.14835 16.7315 2.29366 16.8565 2.4573 16.9769C4.92297 18.8417 9.85366 20.2909 17 20.2909C24.1162 20.2909 29.0345 18.8535 31.5106 16.9999C31.7083 16.8559 31.8863 16.7073 32.0539 16.5561L32.0545 16.5554V21.4148C32.027 21.5084 32.0179 21.6072 32.0342 21.706C32.0467 21.7793 32.0545 21.8533 32.0545 21.9273C32.0545 22.0327 32.0277 22.1387 32.0028 22.2447ZM32.0545 8.70087V13.5602C32.027 13.6538 32.0179 13.7527 32.0342 13.8515C32.0467 13.9248 32.0545 13.9988 32.0545 14.0727C32.0545 14.1781 32.0277 14.2841 32.0028 14.3902C31.9845 14.4694 31.959 14.5479 31.9269 14.6278C31.9007 14.6926 31.8686 14.7574 31.8333 14.8222C31.7894 14.9027 31.7404 14.9832 31.6821 15.0637C31.6389 15.1246 31.5898 15.1848 31.5388 15.245C31.4661 15.3308 31.3889 15.4165 31.3012 15.5016C31.2481 15.5533 31.1899 15.6044 31.131 15.6561C31.0236 15.7497 30.9117 15.8426 30.7867 15.9349C30.733 15.9748 30.6754 16.0135 30.6185 16.0527C30.4705 16.1548 30.3161 16.2563 30.1465 16.3558C30.102 16.3826 30.0542 16.4081 30.0078 16.4343C29.8127 16.5443 29.6092 16.6536 29.3892 16.7596C29.3611 16.7734 29.3316 16.7865 29.3028 16.7996C29.0574 16.9154 28.8008 17.0293 28.5265 17.1393C28.5187 17.1425 28.5108 17.1452 28.503 17.1484C27.0165 17.7421 25.115 18.2415 22.8994 18.5688C22.8883 18.5701 22.8772 18.5714 22.866 18.5734C22.4353 18.6369 21.9935 18.6932 21.5399 18.7429C21.466 18.7508 21.3881 18.756 21.3134 18.7639C20.9174 18.8051 20.5169 18.8431 20.1045 18.8732C19.916 18.8869 19.7183 18.8935 19.5265 18.9052C19.2163 18.9236 18.9093 18.9439 18.5912 18.955C18.0715 18.9713 17.5413 18.9818 17 18.9818C16.4587 18.9818 15.9285 18.9713 15.4081 18.953C15.09 18.9419 14.783 18.9209 14.4728 18.9033C14.281 18.8921 14.0833 18.8849 13.8948 18.8712C13.4825 18.8411 13.0819 18.8031 12.6859 18.7619C12.6113 18.754 12.5334 18.7488 12.4594 18.7409C12.0058 18.6912 11.564 18.6343 11.1333 18.5714C11.1222 18.5701 11.111 18.5688 11.0999 18.5668C8.88428 18.2396 6.98283 17.7401 5.49635 17.1465C5.4885 17.1439 5.48064 17.1406 5.47279 17.1373C5.19853 17.0273 4.9413 16.9135 4.6965 16.7976C4.66835 16.7839 4.63824 16.7708 4.6101 16.7577C4.39017 16.6516 4.18661 16.543 3.99155 16.4324C3.94573 16.4062 3.8973 16.3807 3.85279 16.3538C3.68326 16.2543 3.52879 16.1529 3.38086 16.0508C3.32457 16.0115 3.26632 15.9729 3.21264 15.9329C3.08763 15.8407 2.9757 15.7477 2.86835 15.6541C2.8101 15.6031 2.75119 15.552 2.69817 15.4996C2.61046 15.4145 2.53323 15.3295 2.46057 15.2431C2.40952 15.1828 2.36043 15.1226 2.31723 15.0617C2.25963 14.9812 2.21053 14.9007 2.16603 14.8202C2.13068 14.7554 2.09926 14.6906 2.07243 14.6258C2.04035 14.5466 2.01483 14.4674 1.9965 14.3882C1.97228 14.2841 1.94544 14.1781 1.94544 14.0727C1.94544 13.9988 1.95395 13.9248 1.96573 13.8515C1.9821 13.7527 1.97293 13.6538 1.94544 13.5602V8.70087C2.02399 8.77222 2.11366 8.84225 2.19875 8.91294C2.24588 8.95222 2.28973 8.99149 2.33948 9.03076C2.53584 9.18524 2.74792 9.33774 2.97766 9.48633C3.02544 9.51709 3.07912 9.5472 3.12886 9.57796C3.3213 9.69775 3.52486 9.81491 3.7389 9.93011C3.8181 9.97265 3.8973 10.0145 3.97912 10.0564C4.21802 10.1782 4.46872 10.2967 4.7325 10.4112C4.7757 10.4302 4.81497 10.4498 4.85883 10.4681C5.16581 10.5984 5.49177 10.7228 5.83082 10.8432C5.92443 10.8766 6.02261 10.908 6.11883 10.9407C6.3885 11.0317 6.66733 11.1188 6.95599 11.2032C7.06006 11.2333 7.16217 11.2647 7.26886 11.2935C7.65177 11.3996 8.04712 11.5004 8.4621 11.5933C8.51904 11.6064 8.58057 11.6169 8.63817 11.6293C9.00406 11.7092 9.3837 11.7831 9.77381 11.8525C9.90602 11.8761 10.0402 11.8983 10.175 11.9206C10.5462 11.9815 10.9284 12.0371 11.3205 12.0881C11.4213 12.1012 11.5175 12.1163 11.6196 12.1287C12.1066 12.1876 12.6106 12.238 13.1284 12.2812C13.256 12.2917 13.3889 12.2996 13.5185 12.3087C13.9328 12.3388 14.3563 12.3637 14.7896 12.3833C14.9473 12.3905 15.1044 12.3977 15.2654 12.4036C15.8297 12.4226 16.4044 12.4364 17 12.4364C17.5956 12.4364 18.1703 12.4226 18.7345 12.4036C18.8949 12.3977 19.052 12.3905 19.2104 12.3833C19.6437 12.3637 20.0672 12.3388 20.4815 12.3087C20.6111 12.2989 20.7433 12.2917 20.8716 12.2812C21.3894 12.2387 21.8934 12.1876 22.3804 12.1287C22.4825 12.1163 22.5787 12.1012 22.6795 12.0881C23.0716 12.0371 23.4531 11.9815 23.8249 11.9206C23.9598 11.8983 24.094 11.8761 24.2262 11.8525C24.6163 11.7831 24.9959 11.7092 25.3618 11.6293C25.4194 11.6169 25.4809 11.6057 25.5379 11.5933C25.9529 11.5004 26.3482 11.3989 26.7311 11.2935C26.8378 11.2641 26.9399 11.2333 27.044 11.2032C27.3326 11.1188 27.6115 11.0317 27.8812 10.9407C27.9774 10.908 28.0756 10.8766 28.1692 10.8432C28.5082 10.7228 28.8348 10.5984 29.1412 10.4681C29.185 10.4498 29.2243 10.4302 29.2675 10.4112C29.5313 10.296 29.782 10.1782 30.0209 10.0564C30.1027 10.0145 30.1825 9.97265 30.2611 9.93011C30.4751 9.81556 30.6787 9.6984 30.8711 9.57796C30.9209 9.5472 30.9745 9.51709 31.0223 9.48633C31.2521 9.33774 31.4641 9.18589 31.6605 9.03076C31.7096 8.99149 31.7534 8.95222 31.8012 8.91294C31.8863 8.84225 31.976 8.77222 32.0545 8.70087ZM17 1.30909C25.8724 1.30909 32.0545 3.89585 32.0545 6.21818C32.0545 8.54051 25.8724 11.1273 17 11.1273C8.12762 11.1273 1.94544 8.54051 1.94544 6.21818C1.94544 3.89585 8.12762 1.30909 17 1.30909ZM32.0545 29.9147C32.0454 29.9435 32.0388 29.9729 32.0336 30.0031C31.6625 32.2671 25.5326 34.6909 17 34.6909C8.46733 34.6909 2.33752 32.2671 1.96639 30.0031C1.96115 29.9736 1.95395 29.9448 1.94544 29.9173V24.41C1.96377 24.427 1.98668 24.4433 2.00566 24.4604C2.14835 24.586 2.29366 24.7111 2.4573 24.8315C4.92297 26.6963 9.85366 28.1455 17 28.1455C24.1162 28.1455 29.0345 26.7081 31.5106 24.8544C31.7083 24.7104 31.8863 24.5618 32.0539 24.4106L32.0545 24.41V29.9147Z" fill="#C3CAD6"/>
</svg>
