<svg width="36" height="36" viewBox="0 0 36 36" fill="none" xmlns="http://www.w3.org/2000/svg">
<path d="M25.5 13.2H10.5C10.1688 13.2 9.90002 13.4682 9.90002 13.8C9.90002 14.1318 10.1688 14.4 10.5 14.4H25.5C25.8312 14.4 26.1 14.1318 26.1 13.8C26.1 13.4682 25.8312 13.2 25.5 13.2Z" fill="#C3CAD6"/>
<path d="M10.5 9.6H16.5C16.8312 9.6 17.1 9.3318 17.1 9C17.1 8.6682 16.8312 8.4 16.5 8.4H10.5C10.1688 8.4 9.90002 8.6682 9.90002 9C9.90002 9.3318 10.1688 9.6 10.5 9.6Z" fill="#C3CAD6"/>
<path d="M25.5 18H10.5C10.1688 18 9.90002 18.2682 9.90002 18.6C9.90002 18.9318 10.1688 19.2 10.5 19.2H25.5C25.8312 19.2 26.1 18.9318 26.1 18.6C26.1 18.2682 25.8312 18 25.5 18Z" fill="#C3CAD6"/>
<path d="M25.5 22.8H10.5C10.1688 22.8 9.90002 23.0682 9.90002 23.4C9.90002 23.7318 10.1688 24 10.5 24H25.5C25.8312 24 26.1 23.7318 26.1 23.4C26.1 23.0682 25.8312 22.8 25.5 22.8Z" fill="#C3CAD6"/>
<path d="M25.5 27.6H10.5C10.1688 27.6 9.90002 27.8682 9.90002 28.2C9.90002 28.5318 10.1688 28.8 10.5 28.8H25.5C25.8312 28.8 26.1 28.5318 26.1 28.2C26.1 27.8682 25.8312 27.6 25.5 27.6Z" fill="#C3CAD6"/>
<path d="M23.3484 0H3.90002V36H32.1V8.7516L23.3484 0ZM23.7 2.0484L30.0516 8.4H23.7V2.0484ZM5.10002 34.8V1.2H22.5V9.6H30.9V34.8H5.10002Z" fill="#C3CAD6"/>
</svg>
