<svg width="20" height="20" viewBox="0 0 20 20" fill="none" xmlns="http://www.w3.org/2000/svg">
<path d="M19.427 7.44129C19.2756 7.2898 19.0307 7.2898 18.8792 7.44129L8.30401 18.0165C7.52446 18.796 6.48414 19.2249 5.3737 19.2249C4.26287 19.2249 3.22216 18.796 2.44299 18.0165C1.66382 17.2369 1.23452 16.1966 1.23452 15.0858C1.23452 13.9753 1.66344 12.9346 2.44299 12.1554L13.0178 1.57988C14.1402 0.457817 15.9024 0.526397 17.1167 1.7399C18.3306 2.9538 18.3995 4.71633 17.2771 5.83878L7.34274 15.7735C6.78752 16.3287 5.8832 16.3291 5.32682 15.7735C4.77121 15.2175 4.77121 14.3132 5.32682 13.7576L12.0565 7.02788C12.208 6.87638 12.208 6.63151 12.0565 6.48002C11.905 6.32852 11.6601 6.32852 11.5086 6.48002L4.77896 13.2093C3.92113 14.0671 3.92113 15.4628 4.77896 16.321C5.63755 17.1796 7.03355 17.178 7.8906 16.321L17.8253 6.38625C19.2601 4.95112 19.1911 2.71784 17.6649 1.19166C16.1391 -0.334139 13.9054 -0.403494 12.4703 1.03164L1.89475 11.6072C0.968731 12.5328 0.459229 13.768 0.459229 15.0858C0.459229 16.4035 0.968731 17.6391 1.89475 18.5647C2.82037 19.4907 4.05558 20.0002 5.3737 20.0002C6.69104 20.0002 7.92663 19.4907 8.85226 18.5647L19.427 7.98915C19.5785 7.83766 19.5785 7.5924 19.427 7.44129Z" fill="#3464E0"/>
</svg>
