<svg width="36" height="36" viewBox="0 0 36 36" fill="none" xmlns="http://www.w3.org/2000/svg">
<path d="M23.3484 0H3.90002V36H32.1V8.7516L23.3484 0ZM23.7 2.0484L30.0516 8.4H23.7V2.0484ZM5.10002 34.8V1.2H22.5V9.6H30.9V34.8H5.10002Z" fill="#3464E0"/>
<path d="M25.5 12.6H15.9C15.5688 12.6 15.3 12.8682 15.3 13.2C15.3 13.5318 15.5688 13.8 15.9 13.8H25.5C25.8312 13.8 26.1 13.5318 26.1 13.2C26.1 12.8682 25.8312 12.6 25.5 12.6Z" fill="#3464E0"/>
<path d="M13.7251 10.9314L11.1445 12.996L10.3243 12.1758C10.0897 11.9412 9.71048 11.9412 9.47588 12.1758C9.24128 12.4104 9.24128 12.7896 9.47588 13.0242L10.6759 14.2242C10.7923 14.3406 10.9459 14.4 11.1001 14.4C11.2321 14.4 11.3647 14.3568 11.4745 14.2686L14.4745 11.8686C14.7337 11.661 14.7751 11.2836 14.5681 11.025C14.3617 10.7658 13.9837 10.7244 13.7251 10.9314Z" fill="#3464E0"/>
<path d="M25.5 19.2H15.9C15.5688 19.2 15.3 19.4682 15.3 19.8C15.3 20.1318 15.5688 20.4 15.9 20.4H25.5C25.8312 20.4 26.1 20.1318 26.1 19.8C26.1 19.4682 25.8312 19.2 25.5 19.2Z" fill="#3464E0"/>
<path d="M13.7251 17.5314L11.1445 19.596L10.3243 18.7758C10.0897 18.5412 9.71048 18.5412 9.47588 18.7758C9.24128 19.0104 9.24128 19.3896 9.47588 19.6242L10.6759 20.8242C10.7923 20.9406 10.9459 21 11.1001 21C11.2321 21 11.3647 20.9568 11.4745 20.8686L14.4745 18.4686C14.7337 18.261 14.7751 17.8836 14.5681 17.625C14.3617 17.3658 13.9837 17.3244 13.7251 17.5314Z" fill="#3464E0"/>
<path d="M25.5 25.8H15.9C15.5688 25.8 15.3 26.0682 15.3 26.4C15.3 26.7318 15.5688 27 15.9 27H25.5C25.8312 27 26.1 26.7318 26.1 26.4C26.1 26.0682 25.8312 25.8 25.5 25.8Z" fill="#3464E0"/>
<path d="M13.7251 24.1314L11.1445 26.196L10.3243 25.3758C10.0897 25.1412 9.71048 25.1412 9.47588 25.3758C9.24128 25.6104 9.24128 25.9896 9.47588 26.2242L10.6759 27.4242C10.7923 27.5406 10.9459 27.6 11.1001 27.6C11.2321 27.6 11.3647 27.5568 11.4745 27.4686L14.4745 25.0686C14.7337 24.861 14.7751 24.4836 14.5681 24.225C14.3617 23.9658 13.9837 23.9244 13.7251 24.1314Z" fill="#3464E0"/>
</svg>
