<svg width="36" height="33" viewBox="0 0 36 33" fill="none" xmlns="http://www.w3.org/2000/svg">
<path d="M28.2144 17.4V12.0036C28.2402 7.8894 25.4736 5.1606 23.0964 4.074C22.4154 3.7626 21.7134 3.5226 21 3.3444V3C21 1.3458 19.6542 0 18 0C16.3458 0 15 1.3458 15 3V3.3966C14.3574 3.57 13.7256 3.7962 13.1124 4.0794C10.4856 5.2902 7.82399 8.2086 7.79999 12V17.4C7.79999 21.2328 6.44639 24.5214 3.77699 27.1746C3.61799 27.333 3.56039 27.5664 3.62759 27.7806C3.69479 27.9948 3.87659 28.1532 4.09799 28.1916L9.79259 29.175C10.8534 29.358 11.8302 29.508 12.7596 29.6316C13.8066 31.6836 15.8628 33.0006 18.1092 33.0006C20.3562 33.0006 22.413 31.683 23.4594 29.6298C24.3852 29.5068 25.3572 29.3574 26.412 29.175L32.106 28.1916C32.3274 28.1538 32.5086 27.9948 32.5764 27.7806C32.6442 27.567 32.5866 27.333 32.427 27.1746C29.6322 24.396 28.2144 21.1074 28.2144 17.4ZM16.2 3C16.2 2.0076 17.0076 1.2 18 1.2C18.9924 1.2 19.8 2.0076 19.8 3V3.1092C18.6042 2.9376 17.391 2.9448 16.2 3.1374V3ZM18.1098 31.8C16.5906 31.8 15.171 31.0452 14.2596 29.811C15.6006 29.949 16.8522 30.0186 18.1032 30.0186C19.359 30.0186 20.6148 29.949 21.9612 29.8092C21.0492 31.0446 19.629 31.8 18.1098 31.8ZM26.2086 27.9918C25.0572 28.1904 24.0018 28.3518 23.0046 28.479C23.0034 28.479 23.0022 28.479 23.0004 28.479C22.5606 28.5348 22.1334 28.5834 21.7152 28.6254C21.7116 28.6254 21.7086 28.626 21.705 28.626C21.3216 28.6644 20.9472 28.6956 20.5764 28.722C20.5068 28.7268 20.4372 28.7316 20.3682 28.7358C20.0472 28.7568 19.7298 28.7736 19.4142 28.7856C19.35 28.788 19.2852 28.7916 19.221 28.7934C18.4746 28.8186 17.7384 28.8186 16.9926 28.794C16.926 28.7916 16.8588 28.788 16.7922 28.7856C16.482 28.773 16.1694 28.7574 15.8532 28.7364C15.7782 28.7316 15.7032 28.7268 15.6276 28.7214C15.2682 28.6956 14.9046 28.6656 14.5332 28.6284C14.5194 28.6272 14.5062 28.626 14.4924 28.6248C14.0772 28.5834 13.6536 28.5348 13.218 28.4796C13.2162 28.4796 13.2144 28.4796 13.2126 28.4796C12.2118 28.353 11.1522 28.1904 9.99599 27.9912L5.39999 27.198C7.78979 24.4656 8.99999 21.1752 8.99999 17.4V12.0036C9.02039 8.7426 11.3328 6.2214 13.6146 5.169C14.2932 4.8564 14.997 4.623 15.7128 4.4592C15.7188 4.458 15.7254 4.4586 15.7314 4.4574C17.2104 4.125 18.7836 4.11 20.2794 4.4166C20.2872 4.4184 20.295 4.4148 20.3028 4.416C21.0852 4.5792 21.8556 4.8264 22.5978 5.1654C24.8112 6.1776 27.0354 8.682 27.0144 12.0006V17.4006C27.0144 21.0204 28.3194 24.3864 30.8022 27.1992L26.2086 27.9918Z" fill="#C3CAD6"/>
<path d="M21.8502 6.8028C19.5252 5.7402 16.6782 5.739 14.3688 6.804C13.0518 7.4112 10.818 9.1878 10.8 11.9964C10.7982 12.3276 11.0646 12.5976 11.3964 12.6C11.3976 12.6 11.3988 12.6 11.4 12.6C11.7294 12.6 11.9982 12.3342 12 12.0036C12.0138 9.7974 13.8114 8.3826 14.871 7.8936C16.869 6.9714 19.3386 6.9738 21.3504 7.8936C21.6522 8.0316 22.008 7.899 22.146 7.5978C22.284 7.296 22.1508 6.9402 21.8502 6.8028Z" fill="#C3CAD6"/>
<path d="M2.8812 12.1758C2.6466 11.9412 2.2674 11.9412 2.0328 12.1758C0.7218 13.4868 0 15.2316 0 17.0898C0 18.948 0.7218 20.6934 2.0328 22.0038C2.1498 22.1208 2.3034 22.1796 2.457 22.1796C2.6106 22.1796 2.7642 22.1208 2.8812 22.0038C3.1158 21.7692 3.1158 21.39 2.8812 21.1554C1.797 20.0712 1.2 18.6276 1.2 17.0898C1.2 15.552 1.797 14.1078 2.8812 13.0242C3.1152 12.7896 3.1152 12.4104 2.8812 12.1758Z" fill="#C3CAD6"/>
<path d="M4.98298 20.814C5.13658 20.814 5.29018 20.7552 5.40718 20.6382C5.64178 20.4036 5.64178 20.0244 5.40718 19.7898C3.87238 18.255 3.87238 15.7584 5.40718 14.2242C5.64178 13.9896 5.64178 13.6104 5.40718 13.3758C5.17258 13.1412 4.79338 13.1412 4.55878 13.3758C2.55658 15.378 2.55658 18.6366 4.55878 20.6382C4.67578 20.7558 4.82938 20.814 4.98298 20.814Z" fill="#C3CAD6"/>
<path d="M33.9672 12.1758C33.7326 11.9412 33.3534 11.9412 33.1188 12.1758C32.8842 12.4104 32.8842 12.7896 33.1188 13.0242C34.203 14.1084 34.8 15.552 34.8 17.0898C34.8 18.6276 34.203 20.0712 33.1188 21.1554C32.8842 21.39 32.8842 21.7692 33.1188 22.0038C33.2358 22.1208 33.3894 22.1796 33.543 22.1796C33.6966 22.1796 33.8502 22.1208 33.9672 22.0038C35.2782 20.6934 36 18.948 36 17.0898C36 15.2316 35.2782 13.4868 33.9672 12.1758Z" fill="#C3CAD6"/>
<path d="M30.5928 13.3758C30.3582 13.6104 30.3582 13.9896 30.5928 14.2242C32.1276 15.759 32.1276 18.2556 30.5928 19.7898C30.3582 20.0244 30.3582 20.4036 30.5928 20.6382C30.7098 20.7552 30.8634 20.814 31.017 20.814C31.1706 20.814 31.3242 20.7552 31.4412 20.6382C33.4434 18.636 33.4434 15.3774 31.4412 13.3758C31.2066 13.1412 30.8268 13.1412 30.5928 13.3758Z" fill="#C3CAD6"/>
</svg>
