<svg width="12" height="12" viewBox="0 0 12 12" fill="none" xmlns="http://www.w3.org/2000/svg">
<g clip-path="url(#clip0)">
<path d="M11.6339 1.44659L10.5479 0.361101C10.0769 -0.110382 9.25393 -0.11139 8.78046 0.361101L1.07308 8.06848C1.04258 8.09848 1.02107 8.13548 1.00959 8.17648L0.00959476 11.6764C-0.0154126 11.7639 0.00858696 11.8579 0.0730858 11.9219C0.120593 11.9694 0.184576 11.9949 0.250083 11.9949C0.273075 11.9949 0.29609 11.9919 0.319082 11.9854L3.81901 10.9854C3.85951 10.9739 3.89701 10.9519 3.92701 10.9219L11.6339 3.21508C11.8699 2.97858 11.9999 2.66459 11.9999 2.3311C11.9999 1.99708 11.8699 1.68309 11.6339 1.44659ZM11.2804 2.86106L3.61905 10.5224L0.613592 11.3809L1.47258 8.37597L9.13393 0.714603C9.41743 0.431108 9.91193 0.4316 10.1944 0.714603L11.2804 1.80009C11.5729 2.09259 11.5729 2.56857 11.2804 2.86106Z" fill="#3464E0"/>
<path d="M11.634 1.44558L10.5481 0.360095C10.0771 -0.111389 9.25408 -0.112397 8.7806 0.360095L1.07373 8.06748C0.976236 8.16498 0.976236 8.32348 1.07373 8.42098C1.17123 8.51848 1.32974 8.51848 1.42724 8.42098L9.13408 0.713596C9.41757 0.430101 9.91207 0.430593 10.1946 0.713596L11.2805 1.79909C11.573 2.09158 11.573 2.56756 11.2805 2.86006L3.57318 10.5674C3.47568 10.6649 3.47568 10.8234 3.57318 10.9209C3.62219 10.9694 3.68617 10.994 3.75018 10.994C3.81419 10.994 3.87817 10.9695 3.92718 10.9209L11.634 3.21359C12.1215 2.72607 12.1215 1.93308 11.634 1.44558Z" fill="#3464E0"/>
<path d="M3.92671 10.5674L1.42675 8.06746C1.32925 7.96996 1.17074 7.96996 1.07325 8.06746C0.975748 8.16496 0.975748 8.32347 1.07325 8.42096L3.57321 10.9209C3.62222 10.9694 3.6862 10.9939 3.75021 10.9939C3.81421 10.9939 3.8782 10.9694 3.92671 10.9209C4.02421 10.8234 4.02421 10.6649 3.92671 10.5674Z" fill="#3464E0"/>
<path d="M10.4267 1.56758C10.3292 1.47009 10.1707 1.47009 10.0732 1.56758L3.07337 8.56745C2.97587 8.66495 2.97587 8.82346 3.07337 8.92096C3.12237 8.96945 3.18636 8.99396 3.25036 8.99396C3.31437 8.99396 3.37835 8.96947 3.42687 8.92096L10.4267 1.92106C10.5242 1.82356 10.5242 1.66506 10.4267 1.56758Z" fill="#3464E0"/>
</g>
<defs>
<clipPath id="clip0">
<rect width="12" height="12" fill="white"/>
</clipPath>
</defs>
</svg>
