<svg width="24" height="24" viewBox="0 0 24 24" fill="none" xmlns="http://www.w3.org/2000/svg">
<path d="M12 10.4C13.544 10.4 14.8 9.14359 14.8 7.59999C14.8 6.05639 13.544 4.79999 12 4.79999C10.456 4.79999 9.19995 6.05639 9.19995 7.59999C9.19995 9.14359 10.456 10.4 12 10.4ZM12 5.59999C13.1028 5.59999 14 6.49719 14 7.59999C14 8.70279 13.1028 9.59999 12 9.59999C10.8972 9.59999 9.99995 8.70279 9.99995 7.59999C9.99995 6.49719 10.8972 5.59999 12 5.59999Z" fill="#3464E0"/>
<path d="M11.9295 21.9028L18.0659 13.04C20.3675 9.9716 20.0347 4.928 17.3535 2.2472C15.9047 0.798 13.9783 0 11.9295 0C9.88068 0 7.95428 0.798 6.50548 2.2468C3.82428 4.9276 3.49148 9.9712 5.78388 13.0276L11.9295 21.9028ZM7.07108 2.8124C8.36908 1.5148 10.0943 0.8 11.9295 0.8C13.7647 0.8 15.4899 1.5148 16.7879 2.8124C19.2079 5.232 19.5059 9.7872 17.4171 12.572L11.9295 20.4972L6.43308 12.56C4.35308 9.7872 4.65148 5.232 7.07108 2.8124Z" fill="#3464E0"/>
<path d="M16.8468 17.2028C16.6268 17.176 16.4284 17.3336 16.4028 17.5532C16.3772 17.7728 16.534 17.9716 16.7532 17.9972C20.9596 18.4924 23.2 19.8268 23.2 20.6C23.2 21.6856 18.9392 23.2 12 23.2C5.0608 23.2 0.8 21.6856 0.8 20.6C0.8 19.8268 3.0404 18.4924 7.2468 17.9972C7.466 17.9716 7.6228 17.7724 7.5972 17.5532C7.5712 17.3336 7.3728 17.1752 7.1532 17.2028C2.9416 17.6988 0 19.0956 0 20.6C0 22.2896 4.122 24 12 24C19.878 24 24 22.2896 24 20.6C24 19.0956 21.0584 17.6988 16.8468 17.2028Z" fill="#3464E0"/>
</svg>
