<svg width="36" height="36" viewBox="0 0 36 36" fill="none" xmlns="http://www.w3.org/2000/svg">
<path d="M14.5671 0H2.14714C0.963 0 0 0.963 0 2.14714V14.5671C0 15.7513 0.963 16.7143 2.14714 16.7143H14.5671C15.7513 16.7143 16.7143 15.7513 16.7143 14.5671V2.14714C16.7143 0.963 15.7513 0 14.5671 0ZM15.4286 14.5671C15.4286 15.0422 15.0422 15.4286 14.5671 15.4286H2.14714C1.67207 15.4286 1.28571 15.0422 1.28571 14.5671V2.14714C1.28571 1.67207 1.67207 1.28571 2.14714 1.28571H14.5671C15.0422 1.28571 15.4286 1.67207 15.4286 2.14714V14.5671Z" fill="#C3CAD6"/>
<path d="M33.8528 0H21.4328C20.2487 0 19.2857 0.963 19.2857 2.14714V14.5671C19.2857 15.7513 20.2487 16.7143 21.4328 16.7143H33.8528C35.037 16.7143 36 15.7513 36 14.5671V2.14714C36 0.963 35.037 0 33.8528 0ZM34.7143 14.5671C34.7143 15.0422 34.3279 15.4286 33.8528 15.4286H21.4328C20.9578 15.4286 20.5714 15.0422 20.5714 14.5671V2.14714C20.5714 1.67207 20.9578 1.28571 21.4328 1.28571H33.8528C34.3279 1.28571 34.7143 1.67207 34.7143 2.14714V14.5671Z" fill="#C3CAD6"/>
<path d="M14.5671 19.2857H2.14714C0.963 19.2857 0 20.2487 0 21.4328V33.8528C0 35.037 0.963 36 2.14714 36H14.5671C15.7513 36 16.7143 35.037 16.7143 33.8528V21.4328C16.7143 20.2487 15.7513 19.2857 14.5671 19.2857ZM15.4286 33.8528C15.4286 34.3279 15.0422 34.7143 14.5671 34.7143H2.14714C1.67207 34.7143 1.28571 34.3279 1.28571 33.8528V21.4328C1.28571 20.9578 1.67207 20.5714 2.14714 20.5714H14.5671C15.0422 20.5714 15.4286 20.9578 15.4286 21.4328V33.8528Z" fill="#C3CAD6"/>
<path d="M35.3571 27H28.2857V19.9286C28.2857 19.5731 27.9983 19.2857 27.6428 19.2857C27.2873 19.2857 27 19.5731 27 19.9286V27H19.9286C19.5731 27 19.2857 27.2873 19.2857 27.6428C19.2857 27.9983 19.5731 28.2857 19.9286 28.2857H27V35.3571C27 35.7126 27.2873 36 27.6428 36C27.9983 36 28.2857 35.7126 28.2857 35.3571V28.2857H35.3571C35.7126 28.2857 36 27.9983 36 27.6428C36 27.2873 35.7126 27 35.3571 27Z" fill="#C3CAD6"/>
</svg>
