<svg width="36" height="36" viewBox="0 0 36 36" fill="none" xmlns="http://www.w3.org/2000/svg">
<path d="M18.9804 22.7934C19.605 22.7448 20.1744 22.4262 20.544 21.918L26.1618 14.1516C26.334 13.9134 26.3082 13.5846 26.0994 13.3758C25.8906 13.1676 25.5618 13.1418 25.3236 13.3134L17.556 18.933C17.0496 19.3014 16.731 19.8708 16.6824 20.4954C16.6338 21.12 16.86 21.7314 17.3022 22.1736C17.7048 22.5768 18.2478 22.8 18.8124 22.8C18.8682 22.8 18.924 22.7976 18.9804 22.7934ZM17.8788 20.589C17.8998 20.3148 18.0402 20.0646 18.261 19.9038L22.9992 16.476L19.5726 21.213C19.4106 21.4356 19.1604 21.5754 18.8862 21.597C18.6132 21.615 18.345 21.5202 18.15 21.3252C17.9568 21.1314 17.8572 20.8626 17.8788 20.589Z" fill="#C3CAD6"/>
<path d="M32.4204 11.7384C32.4144 11.7258 32.4144 11.7126 32.4078 11.7C32.4006 11.688 32.3892 11.6814 32.3814 11.67C31.7748 10.6296 31.0572 9.6618 30.2424 8.7846L31.5312 7.4964L32.3796 8.3448L34.9248 5.799L32.3796 3.2538L29.8338 5.799L30.6828 6.648L29.394 7.9362C28.5168 7.1214 27.5496 6.4032 26.5086 5.7966C26.4972 5.7888 26.4906 5.7774 26.4786 5.7702C26.466 5.763 26.4528 5.7636 26.4402 5.757C24.5844 4.6878 22.4994 3.9756 20.2764 3.7146V3H21.1764C22.0038 3 22.6764 2.3274 22.6764 1.5C22.6764 0.6726 22.0032 0 21.1758 0H15.7758C14.9484 0 14.2758 0.6726 14.2758 1.5C14.2758 2.3274 14.9484 3 15.7758 3H16.6758V3.6936C16.0278 3.7626 15.381 3.8682 14.7414 4.0146C14.4186 4.0884 14.2164 4.4106 14.2908 4.7334C14.3646 5.0562 14.6868 5.259 15.0096 5.184C15.5616 5.0574 16.119 4.962 16.6776 4.8978L17.3214 4.848C17.5182 4.833 17.6994 4.8222 17.8758 4.8138V6C17.8758 6.3318 18.144 6.6 18.4758 6.6C18.8076 6.6 19.0758 6.3318 19.0758 6V4.818C21.3324 4.9218 23.4588 5.5278 25.3494 6.525L24.7578 7.5492C24.5922 7.8366 24.6906 8.2032 24.9774 8.3688C25.0716 8.4234 25.1748 8.4492 25.2768 8.4492C25.4844 8.4492 25.686 8.3418 25.797 8.1492L26.3868 7.1274C28.2642 8.3184 29.859 9.9132 31.05 11.7906L30.0282 12.3804C29.742 12.546 29.6436 12.9126 29.8098 13.2C29.9214 13.3926 30.1224 13.5 30.33 13.5C30.432 13.5 30.5352 13.4742 30.6294 13.4196L31.6536 12.828C32.6646 14.7456 33.2724 16.9068 33.363 19.1994H32.178C31.8462 19.1994 31.578 19.4676 31.578 19.7994C31.578 20.1312 31.8462 20.3994 32.178 20.3994H33.363C33.2724 22.692 32.6646 24.8532 31.6536 26.7708L30.6294 26.1792C30.3426 26.0136 29.9754 26.1108 29.8098 26.3988C29.6442 26.6862 29.7426 27.0528 30.0294 27.2184L31.0512 27.8082C29.8602 29.6856 28.2654 31.2804 26.388 32.4714L25.7982 31.4496C25.632 31.1616 25.2642 31.0638 24.9786 31.23C24.6912 31.3956 24.5928 31.7628 24.759 32.0496L25.3506 33.0738C23.46 34.071 21.3336 34.677 19.077 34.7808V33.6C19.077 33.2682 18.8088 33 18.477 33C18.1452 33 17.877 33.2682 17.877 33.6V34.7856C16.9188 34.7526 15.9576 34.6326 15.0114 34.4154C14.6886 34.338 14.3664 34.5432 14.2926 34.866C14.2182 35.1888 14.4204 35.511 14.7432 35.5848C15.9408 35.8608 17.1642 36 18.378 36C18.4074 36 18.4356 35.9982 18.465 35.9976C18.4692 35.9976 18.4722 36 18.4758 36C18.4806 36 18.4848 35.997 18.4896 35.997C21.3738 35.9772 24.0798 35.1984 26.421 33.8532C26.4396 33.8448 26.4594 33.8406 26.4774 33.8298C26.4894 33.8226 26.496 33.8112 26.5074 33.8034C28.9308 32.391 30.9558 30.3684 32.3712 27.9468C32.3826 27.9306 32.397 27.918 32.4072 27.9C32.4144 27.8874 32.4138 27.8742 32.4198 27.8616C33.7902 25.4856 34.578 22.734 34.578 19.8C34.578 16.866 33.7902 14.1144 32.4204 11.7384ZM32.379 4.9506L33.2274 5.799L32.379 6.648L31.53 5.799L32.379 4.9506ZM17.8758 3.6126V1.8H15.7758C15.6108 1.8 15.4758 1.665 15.4758 1.5C15.4758 1.335 15.6108 1.2 15.7758 1.2H21.1758C21.3408 1.2 21.4758 1.335 21.4758 1.5C21.4758 1.665 21.3408 1.8 21.1758 1.8H19.0758V3.6126C18.867 3.6042 18.6678 3.6 18.4758 3.6C18.459 3.6 18.4398 3.6012 18.423 3.6012C18.408 3.6012 18.393 3.6 18.378 3.6C18.2796 3.6 18.1812 3.6066 18.0828 3.6084C18.0132 3.6102 17.9478 3.6096 17.8758 3.6126Z" fill="#C3CAD6"/>
<path d="M13.0758 8.4H10.0758C9.74403 8.4 9.47583 8.6682 9.47583 9C9.47583 9.3318 9.74403 9.6 10.0758 9.6H13.0758C13.4076 9.6 13.6758 9.3318 13.6758 9C13.6758 8.6682 13.4076 8.4 13.0758 8.4Z" fill="#C3CAD6"/>
<path d="M13.0758 12.6H7.07583C6.74403 12.6 6.47583 12.8682 6.47583 13.2C6.47583 13.5318 6.74403 13.8 7.07583 13.8H13.0758C13.4076 13.8 13.6758 13.5318 13.6758 13.2C13.6758 12.8682 13.4076 12.6 13.0758 12.6Z" fill="#C3CAD6"/>
<path d="M13.0758 16.8H4.07583C3.74403 16.8 3.47583 17.0682 3.47583 17.4C3.47583 17.7318 3.74403 18 4.07583 18H13.0758C13.4076 18 13.6758 17.7318 13.6758 17.4C13.6758 17.0682 13.4076 16.8 13.0758 16.8Z" fill="#C3CAD6"/>
<path d="M13.0758 21H1.67581C1.34401 21 1.07581 21.2682 1.07581 21.6C1.07581 21.9318 1.34401 22.2 1.67581 22.2H13.0758C13.4076 22.2 13.6758 21.9318 13.6758 21.6C13.6758 21.2682 13.4076 21 13.0758 21Z" fill="#C3CAD6"/>
<path d="M13.0758 25.2H5.27578C4.94398 25.2 4.67578 25.4682 4.67578 25.8C4.67578 26.1318 4.94398 26.4 5.27578 26.4H13.0758C13.4076 26.4 13.6758 26.1318 13.6758 25.8C13.6758 25.4682 13.4076 25.2 13.0758 25.2Z" fill="#C3CAD6"/>
<path d="M13.0758 29.4H8.87582C8.54402 29.4 8.27582 29.6682 8.27582 30C8.27582 30.3318 8.54402 30.6 8.87582 30.6H13.0758C13.4076 30.6 13.6758 30.3318 13.6758 30C13.6758 29.6682 13.4076 29.4 13.0758 29.4Z" fill="#C3CAD6"/>
</svg>
