<svg width="20" height="20" viewBox="0 0 20 20" fill="none" xmlns="http://www.w3.org/2000/svg">
<path d="M9.99996 1.6665C8.35179 1.6665 6.74062 2.15525 5.37021 3.07092C3.9998 3.9866 2.9317 5.28809 2.30097 6.81081C1.67024 8.33353 1.50521 10.0091 1.82675 11.6256C2.1483 13.2421 2.94197 14.727 4.10741 15.8924C5.27284 17.0578 6.7577 17.8515 8.37421 18.173C9.99072 18.4946 11.6663 18.3296 13.189 17.6988C14.7117 17.0681 16.0132 16 16.9289 14.6296C17.8446 13.2592 18.3333 11.648 18.3333 9.99984C18.3333 8.90549 18.1177 7.82186 17.699 6.81081C17.2802 5.79976 16.6663 4.8811 15.8925 4.10728C15.1187 3.33346 14.2 2.71963 13.189 2.30084C12.1779 1.88205 11.0943 1.6665 9.99996 1.6665ZM9.99996 16.6665C8.68142 16.6665 7.39249 16.2755 6.29616 15.543C5.19983 14.8104 4.34535 13.7692 3.84077 12.5511C3.33618 11.3329 3.20416 9.99244 3.46139 8.69924C3.71863 7.40603 4.35357 6.21814 5.28592 5.28579C6.21827 4.35344 7.40615 3.7185 8.69936 3.46127C9.99257 3.20403 11.333 3.33606 12.5512 3.84064C13.7694 4.34522 14.8105 5.19971 15.5431 6.29604C16.2756 7.39236 16.6666 8.6813 16.6666 9.99984C16.6666 11.7679 15.9643 13.4636 14.714 14.7139C13.4638 15.9641 11.7681 16.6665 9.99996 16.6665ZM13.3333 9.1665H10.8333V6.6665C10.8333 6.44549 10.7455 6.23353 10.5892 6.07725C10.4329 5.92097 10.221 5.83317 9.99996 5.83317C9.77895 5.83317 9.56699 5.92097 9.41071 6.07725C9.25443 6.23353 9.16663 6.44549 9.16663 6.6665V9.1665H6.66663C6.44562 9.1665 6.23365 9.2543 6.07737 9.41058C5.92109 9.56686 5.8333 9.77882 5.8333 9.99984C5.8333 10.2209 5.92109 10.4328 6.07737 10.5891C6.23365 10.7454 6.44562 10.8332 6.66663 10.8332H9.16663V13.3332C9.16663 13.5542 9.25443 13.7661 9.41071 13.9224C9.56699 14.0787 9.77895 14.1665 9.99996 14.1665C10.221 14.1665 10.4329 14.0787 10.5892 13.9224C10.7455 13.7661 10.8333 13.5542 10.8333 13.3332V10.8332H13.3333C13.5543 10.8332 13.7663 10.7454 13.9226 10.5891C14.0788 10.4328 14.1666 10.2209 14.1666 9.99984C14.1666 9.77882 14.0788 9.56686 13.9226 9.41058C13.7663 9.2543 13.5543 9.1665 13.3333 9.1665Z" fill="#10B97B"/>
</svg>
