<svg width="32" height="32" viewBox="0 0 32 32" fill="none" xmlns="http://www.w3.org/2000/svg">
<path d="M15.1679 5.06072C15.3248 4.74386 15.6478 4.54297 16.001 4.54297C16.3541 4.54297 16.6777 4.74386 16.834 5.06072L19.822 11.1159C19.9571 11.3898 20.2191 11.5798 20.522 11.6238L27.2041 12.5946C27.5547 12.6453 27.8446 12.8907 27.9538 13.2267C28.0631 13.5628 27.972 13.9324 27.7188 14.1789L22.884 18.8925C22.665 19.1059 22.565 19.4134 22.6163 19.7147L23.7574 26.3705C23.8165 26.7194 23.6741 27.0715 23.3872 27.2796C23.1009 27.4867 22.7224 27.5142 22.4087 27.3506L16.4317 24.2078C16.1615 24.0654 15.8379 24.0654 15.5671 24.2078L9.59012 27.3501C9.27739 27.5142 8.89788 27.4873 8.61156 27.2796C8.32524 27.072 8.18234 26.7194 8.24188 26.3705L9.38301 19.7147C9.43479 19.4134 9.33434 19.1059 9.11533 18.8925L4.28054 14.1789C4.02736 13.9319 3.93623 13.5628 4.04548 13.2267C4.15473 12.8907 4.44519 12.6453 4.79571 12.5946L11.4789 11.6238C11.7813 11.5798 12.0432 11.3898 12.1784 11.1153L15.1679 5.06072Z" fill="#CED7E0"/>
</svg>
