<svg width="22" height="22" viewBox="0 0 22 22" fill="none" xmlns="http://www.w3.org/2000/svg">
<path d="M19.5249 9.2402C19.2673 8.93096 18.945 8.68203 18.5807 8.51097C18.2164 8.33991 17.819 8.25089 17.4166 8.2502H13.2366L13.7499 6.93937C13.9634 6.36543 14.0345 5.74826 13.9571 5.1408C13.8797 4.53334 13.6561 3.95372 13.3055 3.45166C12.9549 2.94961 12.4877 2.5401 11.944 2.25827C11.4004 1.97644 10.7965 1.83069 10.1841 1.83354C10.0078 1.8339 9.83527 1.88512 9.68732 1.98105C9.53936 2.07698 9.42221 2.21354 9.34992 2.37437L6.73742 8.2502H4.58325C3.85391 8.2502 3.15443 8.53994 2.63871 9.05566C2.12298 9.57138 1.83325 10.2709 1.83325 11.0002V17.4169C1.83325 18.1462 2.12298 18.8457 2.63871 19.3614C3.15443 19.8771 3.85391 20.1669 4.58325 20.1669H16.2524C16.8957 20.1667 17.5186 19.9409 18.0127 19.5289C18.5068 19.1169 18.8408 18.5447 18.9566 17.9119L20.1208 11.4952C20.1928 11.0986 20.1767 10.6911 20.0737 10.3014C19.9708 9.91173 19.7834 9.54944 19.5249 9.2402ZM6.41659 18.3335H4.58325C4.34014 18.3335 4.10698 18.237 3.93507 18.0651C3.76316 17.8931 3.66659 17.66 3.66659 17.4169V11.0002C3.66659 10.7571 3.76316 10.5239 3.93507 10.352C4.10698 10.1801 4.34014 10.0835 4.58325 10.0835H6.41659V18.3335ZM18.3333 11.1652L17.1691 17.5819C17.13 17.7954 17.0165 17.9882 16.8486 18.1258C16.6807 18.2635 16.4695 18.3371 16.2524 18.3335H8.24992V9.35937L10.7433 3.74937C10.9999 3.82419 11.2383 3.95141 11.4433 4.12299C11.6483 4.29457 11.8155 4.50678 11.9344 4.74624C12.0532 4.9857 12.1212 5.24719 12.1339 5.51423C12.1466 5.78126 12.1038 6.04803 12.0083 6.2977L11.5224 7.60854C11.4189 7.8856 11.3839 8.18361 11.4206 8.47711C11.4572 8.77061 11.5642 9.0509 11.7326 9.29405C11.901 9.5372 12.1258 9.736 12.3877 9.87347C12.6496 10.0109 12.9408 10.083 13.2366 10.0835H17.4166C17.5513 10.0833 17.6843 10.1128 17.8063 10.1698C17.9283 10.2268 18.0362 10.3101 18.1224 10.4135C18.2107 10.5156 18.2754 10.6359 18.3119 10.7658C18.3483 10.8957 18.3556 11.0321 18.3333 11.1652Z" fill="#87919C"/>
</svg>
