<?xml version="1.0" standalone="no"?>
<!DOCTYPE svg PUBLIC "-//W3C//DTD SVG 1.1//EN" "http://www.w3.org/Graphics/SVG/1.1/DTD/svg11.dtd" >
<svg xmlns="http://www.w3.org/2000/svg" xmlns:xlink="http://www.w3.org/1999/xlink" version="1.1">
<metadata>
Created by FontForge 20170924 at Fri Jul  9 00:12:35 2010
 By www-data
Copyright (c) 2010 by DA. All rights reserved.
</metadata>
<defs>
<font id="Russia" horiz-adv-x="575" >
  <font-face 
    font-family="Russia"
    font-weight="400"
    font-stretch="normal"
    units-per-em="1000"
    panose-1="2 11 5 3 0 0 0 2 0 4"
    ascent="760"
    descent="-240"
    x-height="515"
    cap-height="676"
    bbox="-32 -224 1186 912"
    underline-thickness="20"
    underline-position="-133"
    unicode-range="U+0020-FB04"
  />
<missing-glyph horiz-adv-x="500" 
d="M31 0v764h418v-764h-418zM97 63h286v638h-286v-638z" />
    <glyph glyph-name="f_f" unicode="ff" horiz-adv-x="646" 
d="M507 0h-92v449h-230v-449h-92v449h-68v66h68v79q0 72 48 111.5t114 39.5q42 0 78 -12l-17 -78q-32 9 -58 9q-32 0 -52.5 -18t-20.5 -52v-79h230v79q0 72 48 111.5t114 39.5q42 0 78 -12l-17 -78q-32 9 -58 9q-32 0 -52.5 -18t-20.5 -52v-79h128l-20 -66h-108v-449z" />
    <glyph glyph-name="fi" unicode="fi" horiz-adv-x="572" 
d="M93 0v449h-68v66h68v76q0 72 48 113t114 41q42 0 78 -12l-17 -78q-32 9 -58 9q-31 0 -52 -19.5t-21 -53.5v-76h128l-20 -66h-108v-449h-92zM448 603q-24 0 -41 16.5t-17 40.5q0 23 17 39.5t41 16.5q23 0 40.5 -16.5t17.5 -39.5t-17.5 -40t-40.5 -17zM402 0v515h92v-515
h-92z" />
    <glyph glyph-name="fl" unicode="fl" horiz-adv-x="572" 
d="M402 0v725l92 20v-745h-92zM93 0v449h-68v66h68v76q0 72 48 113t114 41q42 0 78 -12l-17 -78q-32 9 -58 9q-31 0 -52 -19.5t-21 -53.5v-76h128l-20 -66h-108v-449h-92z" />
    <glyph glyph-name="f_f_i" unicode="ffi" horiz-adv-x="894" 
d="M507 0h-92v449h-230v-449h-92v449h-68v66h68v79q0 72 48 111.5t114 39.5q42 0 78 -12l-17 -78q-32 9 -58 9q-32 0 -52.5 -18t-20.5 -52v-79h230v79q0 72 48 111.5t114 39.5q42 0 78 -12l-17 -78q-32 9 -58 9q-32 0 -52.5 -18t-20.5 -52v-79h128l-20 -66h-108v-449z
M828 656q0 -23 -17.5 -40t-41.5 -17t-41 17t-17 40q0 24 17 40t41 16t41.5 -16t17.5 -40zM816 0h-92v515h92v-515z" />
    <glyph glyph-name="f_f_l" unicode="ffl" horiz-adv-x="894" 
d="M816 0h-92v725l92 20v-745zM507 0h-92v449h-230v-449h-92v449h-68v66h68v76q0 72 48 113t114 41q42 0 78 -12l-17 -78q-32 9 -58 9q-31 0 -52 -19.5t-21 -53.5v-76h230v79q0 72 48 111.5t114 39.5q42 0 78 -12l-17 -78q-32 9 -58 9q-32 0 -52.5 -18t-20.5 -52v-79h128
l-20 -66h-108v-449z" />
    <glyph glyph-name="f_t" unicode="ft" horiz-adv-x="632" 
d="M514 0h-92v449h-237v-449h-92v449h-68v66h68v79q0 72 48 111.5t114 39.5q42 0 78 -12l-17 -78q-32 9 -58 9q-32 0 -52.5 -18t-20.5 -52v-79h237v147l92 19v-166h101v-66h-101v-449z" />
    <glyph glyph-name="t_t" unicode="tt" horiz-adv-x="619" 
d="M500 0h-91v449h-219v-449h-91v449h-66l-21 66h87v147l91 19v-166h219v147l91 19v-166h101v-66h-101v-449z" />
    <glyph glyph-name="f_y" unicode="fy" horiz-adv-x="809" 
d="M397 180l-38 269h-174v-449h-92v449h-68v66h68v79q0 72 48 111.5t114 39.5q42 0 78 -12l-17 -78q-32 9 -58 9q-32 0 -52.5 -18t-20.5 -52v-79h257l46 -326q7 -52 29 -79.5t64 -27.5h51l54 433h92l-94 -726h-91l28 211h-42q-157 0 -182 180z" />
    <glyph glyph-name="t_y" unicode="ty" horiz-adv-x="795" 
d="M382 180l-38 269h-154v-449h-91v449h-66l-21 66h87v147l91 19v-166h237l46 -326q7 -52 29 -79.5t64 -27.5h51l54 433h92l-94 -726h-91l28 211h-42q-157 0 -182 180z" />
    <glyph glyph-name=".notdef" horiz-adv-x="500" 
d="M31 0v764h418v-764h-418zM97 63h286v638h-286v-638z" />
    <glyph glyph-name=".null" horiz-adv-x="0" 
 />
    <glyph glyph-name="nonmarkingreturn" horiz-adv-x="333" 
 />
    <glyph glyph-name="space" unicode=" " horiz-adv-x="240" 
 />
    <glyph glyph-name="exclam" unicode="!" horiz-adv-x="253" 
d="M169 215h-84l-8 450l101 20zM127 -8q-24 0 -41.5 17t-17.5 42q0 24 17.5 40.5t41.5 16.5t41 -16.5t17 -40.5t-17.5 -41.5t-40.5 -17.5z" />
    <glyph glyph-name="quotedbl" unicode="&#x22;" horiz-adv-x="369" 
d="M288 503h-64l-9 229h82zM145 503h-64l-10 229h83z" />
    <glyph glyph-name="numbersign" unicode="#" horiz-adv-x="559" 
d="M398 0h-82l19 196h-142l-19 -196h-82l19 196h-71v82h79l15 153h-70v82h78l20 196h82l-20 -196h142l20 196h82l-20 -196h70v-82h-78l-15 -153h70v-82h-78zM343 278l15 153h-142l-15 -153h142z" />
    <glyph glyph-name="dollar" unicode="$" horiz-adv-x="505" 
d="M286 -124h-75v112q-83 4 -172 36l17 82q98 -35 182 -35q51 0 85.5 28t34.5 78q0 45 -31.5 73t-76 44.5t-89.5 36t-76.5 59.5t-31.5 102q0 69 46 116t121 58v114h76v-113q60 -4 142 -33l-24 -79q-88 30 -149 30q-57 0 -86.5 -23.5t-29.5 -67.5q0 -35 22.5 -60t56.5 -37
t73.5 -29.5t73.5 -36.5t56.5 -58.5t22.5 -94.5q0 -78 -47 -126t-121 -61v-115z" />
    <glyph glyph-name="percent" unicode="%" horiz-adv-x="878" 
d="M369 533v-69q0 -71 -43 -113t-110 -42t-109.5 42t-42.5 113v69q0 71 43 113.5t109 42.5q67 0 110 -42.5t43 -113.5zM315 0h-79l321 676h78zM296 466v65q0 91 -80 91q-36 0 -57.5 -22.5t-21.5 -68.5v-65q0 -46 21.5 -69t57.5 -23q37 0 58.5 23t21.5 69zM814 211v-67
q0 -71 -43 -114t-110 -43t-110 42.5t-43 114.5v67q0 72 43 114.5t110 42.5t110 -43t43 -114zM740 146v63q0 93 -79 93q-80 0 -80 -93v-63q0 -92 80 -92q36 0 57.5 22.5t21.5 69.5z" />
    <glyph glyph-name="ampersand" unicode="&#x26;" 
d="M396 185v208h146v-80h-57v-128q0 -85 -57 -141.5t-155 -56.5t-156.5 56.5t-58.5 141.5q0 52 24 96.5t68 70.5q-83 50 -83 151q0 81 57.5 133.5t153.5 52.5q65 0 144 -29l-27 -77q-61 24 -115 24q-57 0 -88 -29t-31 -75q0 -49 29 -79.5t85 -30.5h49v-80h-53
q-55 0 -86.5 -37t-31.5 -91q0 -52 32.5 -83.5t88.5 -31.5t89 31.5t33 83.5z" />
    <glyph glyph-name="quotesingle" unicode="'" horiz-adv-x="226" 
d="M145 503h-64l-10 229h84z" />
    <glyph glyph-name="parenleft" unicode="(" horiz-adv-x="321" 
d="M304 -139v-80q-105 0 -162.5 50.5t-57.5 150.5v607q0 100 57.5 151t162.5 51v-81q-65 0 -98 -28t-33 -95v-603q0 -66 33 -94.5t98 -28.5z" />
    <glyph glyph-name="parenright" unicode=")" horiz-adv-x="321" 
d="M18 -219v80q65 0 97.5 28.5t32.5 94.5v603q0 67 -33 95t-97 28v81q105 0 162 -51t57 -151v-607q0 -100 -57 -150.5t-162 -50.5z" />
    <glyph glyph-name="asterisk" unicode="*" horiz-adv-x="490" 
d="M384 425l-106 67l6 -126h-77l5 126l-105 -67l-39 66l112 58l-112 59l39 65l105 -67l-5 126h77l-6 -126l106 67l38 -65l-112 -59l112 -58z" />
    <glyph glyph-name="plus" unicode="+" horiz-adv-x="565" 
d="M497 238h-175v-174h-79v174h-175v80h175v174h79v-174h175v-80z" />
    <glyph glyph-name="comma" unicode="," horiz-adv-x="256" 
d="M117 -148l-65 12l43 236h92z" />
    <glyph glyph-name="hyphen" unicode="-" horiz-adv-x="490" 
d="M406 236h-323v80h323v-80z" />
    <glyph glyph-name="period" unicode="." horiz-adv-x="253" 
d="M126 -11q-23 0 -40.5 17.5t-17.5 41.5t17 40.5t41 16.5t41.5 -16.5t17.5 -40.5t-17.5 -41.5t-41.5 -17.5z" />
    <glyph glyph-name="slash" unicode="/" horiz-adv-x="376" 
d="M135 -63h-82l187 795h83z" />
    <glyph glyph-name="zero" unicode="0" horiz-adv-x="585" 
d="M525 418v-159q0 -135 -65.5 -203.5t-166.5 -68.5q-102 0 -167.5 68.5t-65.5 203.5v159q0 135 65 203t168 68q102 0 167 -68t65 -203zM434 259v159q0 190 -141 190q-66 0 -104 -45.5t-38 -144.5v-159q0 -99 38 -145t104 -46q65 0 103 46t38 145z" />
    <glyph glyph-name="one" unicode="1" horiz-adv-x="384" 
d="M297 0h-92v591l-158 -29v83l250 42v-687z" />
    <glyph glyph-name="two" unicode="2" horiz-adv-x="526" 
d="M458 0h-405v63q0 53 17.5 98t45 76t61 58t66.5 49t60.5 44t45 49t17.5 57q0 48 -31 81t-88 33q-70 0 -152 -40l-33 73q96 48 188 48q93 0 151 -52.5t58 -140.5q0 -54 -32 -99.5t-77.5 -78.5t-91.5 -66t-78 -77t-32 -95h310v-80z" />
    <glyph glyph-name="three" unicode="3" horiz-adv-x="503" 
d="M34 18l24 77q78 -27 144 -27q67 0 110.5 36.5t43.5 99.5q0 54 -34.5 88t-106.5 34h-73l-15 76l184 195h-260l-11 79h369l11 -79l-187 -195q93 -1 155 -54t62 -144q0 -98 -72 -157.5t-175 -59.5q-79 0 -169 31z" />
    <glyph glyph-name="four" unicode="4" horiz-adv-x="551" 
d="M411 1l-89 -10v160h-262l-12 77l138 448h87l-132 -445h181v219l89 15v-234h96v-80h-96v-150z" />
    <glyph glyph-name="five" unicode="5" horiz-adv-x="510" 
d="M34 18l17 78q91 -28 164 -28q58 0 103.5 37.5t45.5 109.5q0 128 -156 128h-137l12 333h354l-21 -79h-249l-7 -175h60q113 0 175 -52t62 -153q0 -109 -72.5 -169.5t-168.5 -60.5q-92 0 -182 31z" />
    <glyph glyph-name="six" unicode="6" horiz-adv-x="554" 
d="M60 210v230q0 107 61 178t172 71q68 0 151 -25l-19 -80q-74 24 -132 24q-67 0 -104 -45.5t-37 -116.5v-35q64 40 137 40q94 0 154.5 -61.5t60.5 -170.5t-63.5 -170.5t-158.5 -61.5t-158.5 59.5t-63.5 163.5zM151 335v-126q0 -60 34 -100.5t96 -40.5t96 43t34 108
q0 70 -34 113t-96 43q-68 0 -130 -40z" />
    <glyph glyph-name="seven" unicode="7" horiz-adv-x="489" 
d="M269 0h-95q0 201 49.5 343t137.5 254h-332l-6 79h438v-77q-102 -128 -147 -255.5t-45 -343.5z" />
    <glyph glyph-name="eight" unicode="8" horiz-adv-x="566" 
d="M376 358q64 -32 100 -74t36 -111q0 -84 -68 -135t-161 -51q-91 0 -159.5 50.5t-68.5 135.5q0 64 36 104.5t99 72.5q-115 62 -115 165q0 73 56.5 123.5t151.5 50.5q88 0 149 -49t61 -125q0 -55 -31 -91.5t-86 -65.5zM291 396q52 24 80 51.5t28 68.5q0 42 -32 67t-84 25
q-51 0 -82.5 -25t-31.5 -67t30.5 -67.5t91.5 -52.5zM274 309q-61 -29 -93.5 -59t-32.5 -77q0 -46 39 -75.5t96 -29.5q56 0 95.5 29t39.5 76q0 25 -10.5 45.5t-34.5 37.5t-43.5 27t-55.5 26z" />
    <glyph glyph-name="nine" unicode="9" horiz-adv-x="547" 
d="M395 230v35q-64 -40 -137 -40q-94 0 -154.5 61.5t-60.5 170.5q0 110 63.5 171t159.5 61q93 0 157 -60t64 -163v-230q0 -107 -61 -178t-171 -71q-69 0 -152 25l19 80q74 -24 133 -24q67 0 103.5 45.5t36.5 116.5zM396 341v126q0 60 -34 100.5t-95 40.5q-62 0 -96.5 -43
t-34.5 -108q0 -70 34 -113t97 -43q65 0 129 40z" />
    <glyph glyph-name="colon" unicode=":" horiz-adv-x="253" 
d="M126 321q-24 0 -41 17.5t-17 40.5q0 24 17 41t41 17t41.5 -17t17.5 -41q0 -23 -17.5 -40.5t-41.5 -17.5zM126 -11q-24 0 -41 17.5t-17 41.5t17 40.5t41 16.5t41.5 -16.5t17.5 -40.5t-17.5 -41.5t-41.5 -17.5z" />
    <glyph glyph-name="semicolon" unicode=";" horiz-adv-x="263" 
d="M135 321q-24 0 -41.5 17.5t-17.5 40.5q0 24 17.5 41t41.5 17t41 -17t17 -41q0 -23 -17 -40.5t-41 -17.5zM115 -156l-65 12l43 236h93z" />
    <glyph glyph-name="less" unicode="&#x3c;" horiz-adv-x="514" 
d="M396 8l-328 272l328 272l50 -62l-252 -210l252 -210z" />
    <glyph glyph-name="equal" unicode="=" horiz-adv-x="564" 
d="M496 344h-428v80h428v-80zM496 135h-428v80h428v-80z" />
    <glyph glyph-name="greater" unicode="&#x3e;" horiz-adv-x="514" 
d="M446 280l-327 -272l-51 62l253 210l-253 210l51 62z" />
    <glyph glyph-name="question" unicode="?" horiz-adv-x="446" 
d="M260 182l-88 20v60q0 39 19.5 77t43.5 63.5t43.5 58.5t19.5 62q0 39 -24 62t-67 23q-53 0 -117 -43l-39 69q78 55 157 55q75 0 127.5 -43.5t52.5 -122.5q0 -38 -20 -75.5t-44 -63t-44 -58.5t-20 -62v-82zM216 -11q-25 0 -42 17t-17 42q0 24 17.5 40.5t41.5 16.5
q23 0 40.5 -16.5t17.5 -40.5t-17.5 -41.5t-40.5 -17.5z" />
    <glyph glyph-name="at" unicode="@" horiz-adv-x="882" 
d="M632 -29l31 -58q-115 -82 -255 -82q-158 0 -250 100.5t-92 253.5q0 121 49.5 222.5t146 164t221.5 62.5q151 0 243 -102.5t92 -259.5q0 -30 -5 -57h-213l-9 -73q-7 -60 -57.5 -101t-120.5 -41q-64 0 -105.5 36.5t-41.5 91.5q0 71 49.5 109.5t128.5 38.5h85l3 24
q6 39 -13 66t-60 27q-52 0 -118 -19l-9 65q78 23 136 23q73 0 112.5 -44.5t30.5 -117.5l-3 -24h137q0 123 -74.5 207.5t-195.5 84.5q-102 0 -181 -54.5t-118.5 -140t-39.5 -183.5q0 -128 75 -210.5t203 -82.5q116 0 218 74zM513 142l9 73h-86q-40 0 -65 -20t-25 -59
q0 -29 20.5 -48t54.5 -19q36 0 62 21.5t30 51.5z" />
    <glyph glyph-name="A" unicode="A" horiz-adv-x="599" 
d="M30 0l215 676h109l215 -676h-97l-56 182h-234l-56 -182h-96zM206 262h186l-64 209q-5 14 -29 107q-11 -52 -28 -107z" />
    <glyph glyph-name="B" unicode="B" horiz-adv-x="569" 
d="M287 0h-204v676h207q98 0 155 -50t57 -128q0 -96 -88 -142q57 -22 85 -65t28 -96q0 -78 -62.5 -136.5t-177.5 -58.5zM178 387h102q59 0 92.5 28t33.5 75q0 48 -30.5 75t-88.5 27h-109v-205zM178 84h108q70 0 107.5 30t37.5 81q0 52 -34 82t-103 30h-116v-223z" />
    <glyph glyph-name="C" unicode="C" horiz-adv-x="563" 
d="M500 99l18 -82q-103 -30 -192 -30q-118 0 -190 69.5t-72 201.5v160q0 132 72 201.5t190 69.5q91 0 192 -32l-18 -80q-93 28 -173 28q-78 0 -123 -47.5t-45 -145.5v-148q0 -99 44.5 -146t123.5 -47q85 0 173 28z" />
    <glyph glyph-name="D" unicode="D" horiz-adv-x="626" 
d="M323 0h-240v635q147 54 240 54q101 0 169.5 -66t68.5 -182v-200q0 -118 -62 -179.5t-176 -61.5zM467 247v188q0 82 -39.5 126t-105.5 44q-65 0 -144 -27v-494h145q74 0 109 38.5t35 124.5z" />
    <glyph glyph-name="E" unicode="E" horiz-adv-x="526" 
d="M83 0v676h370v-84h-275v-211h234l-6 -81h-228v-216h284v-84h-379z" />
    <glyph glyph-name="F" unicode="F" horiz-adv-x="509" 
d="M83 0v676h369v-84h-274v-211h226l-7 -81h-219v-300h-95z" />
    <glyph glyph-name="G" unicode="G" horiz-adv-x="607" 
d="M64 258v160q0 132 72 201.5t190 69.5q80 0 197 -34l-21 -80q-97 30 -175 30t-123 -47.5t-45 -144.5v-148q0 -98 45 -146t123 -48q50 0 122 17v200h-74v74h163v-337q-112 -38 -212 -38q-118 0 -190 69.5t-72 201.5z" />
    <glyph glyph-name="H" unicode="H" horiz-adv-x="634" 
d="M83 0v676h95v-290h279v290h94v-676h-94v303h-279v-303h-95z" />
    <glyph glyph-name="I" unicode="I" horiz-adv-x="261" 
d="M83 0v676h95v-676h-95z" />
    <glyph glyph-name="J" unicode="J" horiz-adv-x="476" 
d="M28 18l22 79q75 -26 138 -26q61 0 90.5 40.5t29.5 109.5v455l95 -7v-451q0 -108 -56 -169.5t-155 -61.5q-76 0 -164 31z" />
    <glyph glyph-name="K" unicode="K" horiz-adv-x="589" 
d="M83 0v676h95v-336l242 336h107l-217 -302l251 -374h-111l-197 295l-75 -105v-190h-95z" />
    <glyph glyph-name="L" unicode="L" horiz-adv-x="506" 
d="M83 0v676h95v-592h290l-7 -84h-378z" />
    <glyph glyph-name="M" unicode="M" horiz-adv-x="815" 
d="M48 0l80 676h111l142 -372q9 -22 26 -87q19 62 28 87l141 372h111l80 -676h-93l-53 456q-5 42 -8 99q-20 -72 -30 -99l-123 -328h-105l-123 328q-17 43 -32 97q-5 -89 -6 -97l-52 -456h-94z" />
    <glyph glyph-name="N" unicode="N" horiz-adv-x="627" 
d="M83 0v676h75l294 -493q-2 36 -2 98v395h94v-676h-78l-292 486q4 -48 4 -99v-387h-95z" />
    <glyph glyph-name="O" unicode="O" horiz-adv-x="630" 
d="M64 259v157q0 131 71 202t180 71t180 -71t71 -202v-157q0 -131 -71 -201.5t-180 -70.5t-180 70.5t-71 201.5zM159 264q0 -97 42 -145t114 -48t114.5 48t42.5 145v146q0 98 -42.5 146.5t-114.5 48.5t-114 -48.5t-42 -146.5v-146z" />
    <glyph glyph-name="P" unicode="P" horiz-adv-x="551" 
d="M83 0v676h225q91 0 147.5 -59.5t56.5 -145.5q0 -85 -56.5 -145t-147.5 -60h-130v-266h-95zM178 349h129q51 0 80 34t29 88t-29 87.5t-80 33.5h-129v-243z" />
    <glyph glyph-name="Q" unicode="Q" horiz-adv-x="631" 
d="M64 259v157q0 131 71 202t180 71t180.5 -71t71.5 -202v-157q0 -98 -40.5 -162t-109.5 -91l50 -130l-75 -48l-60 160q-3 0 -8.5 -0.5t-8.5 -0.5q-109 0 -180 70.5t-71 201.5zM159 264q0 -97 42 -145t114 -48t114.5 48t42.5 145v146q0 98 -42.5 146.5t-114.5 48.5
t-114 -48.5t-42 -146.5v-146z" />
    <glyph glyph-name="R" unicode="R" horiz-adv-x="558" 
d="M83 0v676h226q91 0 147 -59.5t56 -145.5q0 -67 -35.5 -118t-96.5 -70l133 -283h-105l-123 271h-107v-271h-95zM178 349h129q51 0 80.5 34t29.5 88t-29.5 87.5t-80.5 33.5h-129v-243z" />
    <glyph glyph-name="S" unicode="S" horiz-adv-x="505" 
d="M45 24l17 82q98 -35 181 -35q51 0 85.5 28t34.5 78q0 38 -22.5 66t-56.5 43.5t-73 35t-73 40t-56.5 59.5t-22.5 91q0 79 59 128t151 49q81 0 175 -35l-24 -79q-85 30 -151 30q-54 0 -83.5 -24t-29.5 -67q0 -35 22.5 -61.5t56.5 -41t73 -34t73 -41t56.5 -62.5t22.5 -96
q0 -90 -62.5 -140.5t-154.5 -50.5q-91 0 -198 37z" />
    <glyph glyph-name="T" unicode="T" horiz-adv-x="521" 
d="M213 0v592h-181v84h457v-84h-182v-592h-94z" />
    <glyph glyph-name="U" unicode="U" horiz-adv-x="631" 
d="M78 217v459h95v-453q0 -67 40 -109.5t104 -42.5q63 0 102.5 42.5t39.5 109.5v453h94v-459q0 -100 -68.5 -165t-167.5 -65q-101 0 -170 65t-69 165z" />
    <glyph glyph-name="V" unicode="V" horiz-adv-x="599" 
d="M245 0l-215 676h96l145 -471q15 -49 28 -112q15 66 29 112l144 471h97l-215 -676h-109z" />
    <glyph glyph-name="W" unicode="W" horiz-adv-x="825" 
d="M161 0l-119 676h95l74 -455q6 -38 12 -112q17 75 28 112l107 349h108l108 -349q17 -55 28 -111q5 71 12 111l74 455h95l-119 -676h-108l-121 388q-13 45 -23 90q-10 -51 -22 -90l-121 -388h-108z" />
    <glyph glyph-name="X" unicode="X" horiz-adv-x="582" 
d="M28 0l209 356l-185 320h103l136 -238l139 238h100l-185 -317l209 -359h-105l-158 276l-161 -276h-102z" />
    <glyph glyph-name="Y" unicode="Y" horiz-adv-x="561" 
d="M233 0v259l-208 417h100l155 -321l156 321h100l-208 -417v-259h-95z" />
    <glyph glyph-name="Z" unicode="Z" horiz-adv-x="549" 
d="M47 0v70l318 522h-313v84h430v-68l-320 -524h341l-11 -84h-445z" />
    <glyph glyph-name="bracketleft" unicode="[" horiz-adv-x="279" 
d="M260 -219h-176v1010h176v-79h-87v-852h87v-79z" />
    <glyph glyph-name="backslash" unicode="\" horiz-adv-x="376" 
d="M323 -63h-82l-188 795h82z" />
    <glyph glyph-name="bracketright" unicode="]" horiz-adv-x="279" 
d="M195 -219h-176v79h87v852h-87v79h176v-1010z" />
    <glyph glyph-name="asciicircum" unicode="^" horiz-adv-x="597" 
d="M516 436l-76 -35l-141 255l-141 -255l-76 35l173 296h88z" />
    <glyph glyph-name="underscore" unicode="_" horiz-adv-x="500" 
d="M500 -171h-500v79h500v-79z" />
    <glyph glyph-name="grave" unicode="`" horiz-adv-x="390" 
d="M285 584l-203 74l30 73l197 -86z" />
    <glyph glyph-name="a" unicode="a" horiz-adv-x="485" 
d="M46 154q0 74 51 115t136 41h101v28q0 53 -25.5 81t-73.5 28q-60 0 -136 -23l-20 76q87 28 156 28q87 0 138.5 -51t51.5 -139v-184q0 -70 -55 -118.5t-133 -48.5q-81 0 -136 48t-55 119zM140 155q0 -36 26.5 -61.5t70.5 -25.5q42 0 69.5 25.5t27.5 60.5v84h-101
q-47 0 -70 -23t-23 -60z" />
    <glyph glyph-name="b" unicode="b" horiz-adv-x="526" 
d="M59 202v523l92 20v-253q59 36 118 36q84 0 140.5 -55.5t56.5 -160.5v-110q0 -100 -58.5 -157.5t-144.5 -57.5t-145 57.5t-59 157.5zM151 207q0 -68 31 -103.5t81 -35.5q49 0 80.5 35.5t31.5 103.5v100q0 73 -31.5 106.5t-81.5 33.5q-51 0 -111 -35v-205z" />
    <glyph glyph-name="c" unicode="c" horiz-adv-x="471" 
d="M59 213v90q0 113 58 169t157 56q69 0 146 -24l-17 -78q-80 21 -125 21q-64 0 -95.5 -35.5t-31.5 -113.5v-81q0 -77 31.5 -113t95.5 -36q55 0 125 20l17 -77q-80 -24 -146 -24q-99 0 -157 56.5t-58 169.5z" />
    <glyph glyph-name="d" unicode="d" horiz-adv-x="525" 
d="M59 202v110q0 105 56.5 160.5t140.5 55.5q61 0 118 -36v240h91v-530q0 -100 -58 -157.5t-144 -57.5t-145 57.5t-59 157.5zM151 207q0 -68 31 -103.5t81 -35.5t80.5 35.5t30.5 103.5v205q-60 35 -110 35q-51 0 -82 -33.5t-31 -106.5v-100z" />
    <glyph glyph-name="e" unicode="e" horiz-adv-x="510" 
d="M59 201v117q0 99 56.5 154.5t141.5 55.5q84 0 141.5 -54t57.5 -137v-106h-305v-30q0 -133 120 -133q60 0 139 24l18 -79q-81 -26 -157 -26q-96 0 -154 56t-58 158zM151 303h213v34q0 49 -29.5 79.5t-77.5 30.5t-77 -32t-29 -90v-22z" />
    <glyph glyph-name="f" unicode="f" horiz-adv-x="324" 
d="M93 0v449h-68v66h68v76q0 72 48 113t114 41q42 0 78 -12l-17 -78q-32 9 -58 9q-31 0 -52 -19.5t-21 -53.5v-76h128l-20 -66h-108v-449h-92z" />
    <glyph glyph-name="g" unicode="g" horiz-adv-x="479" 
d="M56 -103q102 -42 174 -42q59 0 90.5 19t31.5 49q0 23 -26 36.5t-63.5 20.5t-75 15.5t-63.5 30.5t-26 57q0 34 31 60q-80 49 -80 149v58q0 79 52 128.5t132 49.5q36 0 72 -13l151 11l-6 -66l-69 -4q34 -43 34 -106v-58q0 -79 -51 -128t-131 -49q-21 0 -40 3
q-13 -11 -13 -22q0 -13 27.5 -21.5t66 -16.5t77.5 -20t66.5 -40t27.5 -69q0 -67 -56 -110t-158 -43q-99 0 -201 47zM233 195q47 0 69.5 26.5t22.5 70.5v58q0 44 -22.5 70.5t-69.5 26.5t-70.5 -26.5t-23.5 -70.5v-58q0 -44 23.5 -70.5t70.5 -26.5z" />
    <glyph glyph-name="h" unicode="h" horiz-adv-x="549" 
d="M78 0v732h92v-240q57 36 118 36q84 0 136 -50t52 -155v-323h-92v317q0 71 -26.5 100.5t-76.5 29.5q-51 0 -111 -35v-412h-92z" />
    <glyph glyph-name="i" unicode="i" horiz-adv-x="248" 
d="M124 603q-24 0 -41 16.5t-17 40.5q0 23 17 39.5t41 16.5q23 0 40.5 -16.5t17.5 -39.5t-17.5 -40t-40.5 -17zM78 0v515h92v-515h-92z" />
    <glyph glyph-name="j" unicode="j" horiz-adv-x="247" 
d="M123 603q-24 0 -41.5 16.5t-17.5 40.5q0 23 17.5 39.5t41.5 16.5t41.5 -16.5t17.5 -39.5t-18 -40t-41 -17zM78 -222v737h91v-717z" />
    <glyph glyph-name="k" unicode="k" horiz-adv-x="481" 
d="M78 0v732h92v-438l91 33q38 13 51 62l33 126h90l-38 -142q-12 -44 -28 -70t-48 -40l136 -263h-99l-117 233l-71 -26v-207h-92z" />
    <glyph glyph-name="l" unicode="l" horiz-adv-x="248" 
d="M78 0v725l92 20v-745h-92z" />
    <glyph glyph-name="m" unicode="m" horiz-adv-x="809" 
d="M73 0v324q0 98 53.5 151t134.5 53q100 0 143 -98q45 98 143 98q83 0 136 -53t53 -151v-324h-92v314q0 65 -26 99t-71 34t-71 -38.5t-26 -111.5v-297h-91v297q0 73 -26 111.5t-72 38.5q-45 0 -70.5 -34t-25.5 -99v-314h-92z" />
    <glyph glyph-name="n" unicode="n" horiz-adv-x="543" 
d="M73 0v319q0 98 57 153.5t142 55.5q86 0 142 -55t56 -154v-319h-92v314q0 65 -29 99t-77 34q-49 0 -78 -34t-29 -99v-314h-92z" />
    <glyph glyph-name="o" unicode="o" horiz-adv-x="536" 
d="M59 213v89q0 110 57.5 168t151.5 58t151.5 -58t57.5 -168v-89q0 -110 -57.5 -168t-151.5 -58t-151.5 58t-57.5 168zM151 218q0 -150 117 -150t117 150v79q0 150 -117 150t-117 -150v-79z" />
    <glyph glyph-name="p" unicode="p" horiz-adv-x="526" 
d="M151 23v-234h-92v524q0 100 59 157.5t145 57.5t144.5 -57.5t58.5 -157.5v-110q0 -105 -56.5 -160.5t-140.5 -55.5q-59 0 -118 36zM151 103q60 -35 111 -35q50 0 81.5 33.5t31.5 106.5v100q0 68 -31.5 103.5t-80.5 35.5q-50 0 -81 -35.5t-31 -103.5v-205z" />
    <glyph glyph-name="q" unicode="q" horiz-adv-x="526" 
d="M59 203v110q0 100 59 157.5t145 57.5t144.5 -57.5t58.5 -157.5v-517l-91 -20v247q-59 -36 -119 -36q-84 0 -140.5 55.5t-56.5 160.5zM151 208q0 -73 31.5 -106.5t81.5 -33.5q49 0 111 35v205q0 68 -31 103.5t-81 35.5q-49 0 -80.5 -35.5t-31.5 -103.5v-100z" />
    <glyph glyph-name="r" unicode="r" horiz-adv-x="355" 
d="M73 0v336q0 85 56.5 138.5t139.5 53.5q33 0 73 -9l-17 -79q-28 7 -55 7q-47 0 -76 -30.5t-29 -80.5v-336h-92z" />
    <glyph glyph-name="s" unicode="s" horiz-adv-x="421" 
d="M42 14l17 78q77 -24 133 -24q42 0 67.5 19.5t25.5 49.5q0 31 -24 51.5t-58 34t-67.5 29.5t-57.5 49.5t-24 82.5q0 63 46.5 103.5t125.5 40.5q66 0 133 -23l-21 -78q-63 20 -112 20q-40 0 -59.5 -17t-19.5 -46q0 -28 24 -47.5t57.5 -32.5t67.5 -29.5t58 -50.5t24 -85
q0 -62 -48.5 -107t-137.5 -45q-75 0 -150 27z" />
    <glyph glyph-name="t" unicode="t" horiz-adv-x="309" 
d="M99 0v449h-66l-21 66h87v147l91 19v-166h101v-66h-101v-449h-91z" />
    <glyph glyph-name="u" unicode="u" horiz-adv-x="543" 
d="M73 196v319h92v-314q0 -65 29 -99t77 -34q49 0 78 34t29 99v314h92v-319q0 -98 -56.5 -153.5t-142.5 -55.5t-142 55t-56 154z" />
    <glyph glyph-name="v" unicode="v" horiz-adv-x="492" 
d="M194 0l-171 515h95l98 -305q7 -22 30 -116q16 72 30 116l98 305h95l-171 -515h-104z" />
    <glyph glyph-name="w" unicode="w" horiz-adv-x="780" 
d="M74 173l-24 342h91l23 -336q3 -50 27 -80t64 -30t64.5 31t24.5 80v298h90v-298q0 -49 25 -80t65 -31t64 30t27 80l23 336h92l-25 -343q-7 -86 -55.5 -135.5t-125.5 -49.5q-87 0 -135 73q-46 -73 -135 -73q-76 0 -124.5 50t-55.5 136z" />
    <glyph glyph-name="x" unicode="x" horiz-adv-x="489" 
d="M22 0l169 267l-155 248h101l107 -175l110 175h99l-155 -246l169 -269h-102l-120 195l-123 -195h-100z" />
    <glyph glyph-name="y" unicode="y" horiz-adv-x="489" 
d="M77 180l-47 335h92l46 -326q7 -52 29 -79.5t64 -27.5h51l54 433h92l-94 -726h-91l28 211h-42q-157 0 -182 180z" />
    <glyph glyph-name="z" unicode="z" horiz-adv-x="473" 
d="M55 0v72l245 364h-238v79h344v-72l-241 -364h253l-10 -79h-353z" />
    <glyph glyph-name="braceleft" unicode="{" horiz-adv-x="405" 
d="M389 -137v-81q-103 0 -161.5 48t-58.5 146v152q0 65 -28.5 93t-91.5 28v75q64 0 92 27t28 93v152q0 98 58.5 146.5t161.5 48.5v-81q-66 0 -98.5 -26t-32.5 -90v-150q0 -111 -80 -158q80 -49 80 -158v-149q0 -64 32.5 -90t98.5 -26z" />
    <glyph glyph-name="bar" unicode="|" horiz-adv-x="253" 
d="M171 -200h-89v932h89v-932z" />
    <glyph glyph-name="braceright" unicode="}" horiz-adv-x="405" 
d="M16 -218v81q66 0 98.5 26t32.5 90v149q0 108 81 158q-81 48 -81 158v150q0 64 -32.5 90t-98.5 26v81q103 0 161.5 -48.5t58.5 -146.5v-152q0 -66 28 -93t91 -27v-75q-62 0 -90.5 -28t-28.5 -93v-152q0 -98 -58.5 -146t-161.5 -48z" />
    <glyph glyph-name="asciitilde" unicode="~" horiz-adv-x="568" 
d="M437 334l57 -51q-58 -83 -125 -83q-34 0 -65.5 20t-58 39.5t-46.5 19.5q-35 0 -68 -47l-57 50q56 83 126 83q33 0 64.5 -19.5t58 -39t46.5 -19.5q35 0 68 47z" />
    <glyph glyph-name="uni00A0" unicode="&#xa0;" horiz-adv-x="240" 
 />
    <glyph glyph-name="exclamdown" unicode="&#xa1;" horiz-adv-x="253" 
d="M185 527q0 -25 -17.5 -41.5t-41.5 -16.5t-41 17t-17 41t17.5 41t40.5 17q24 0 41.5 -17t17.5 -41zM176 -88l-101 -20l9 470h84z" />
    <glyph glyph-name="cent" unicode="&#xa2;" horiz-adv-x="482" 
d="M313 -124h-75v113q-84 10 -131 66t-47 158v90q0 102 47.5 157.5t130.5 65.5v113h75v-113q50 -4 108 -22l-18 -78q-78 21 -125 21q-63 0 -94.5 -36t-31.5 -113v-81q0 -149 126 -149q55 0 125 20l18 -77q-60 -18 -108 -22v-113z" />
    <glyph glyph-name="sterling" unicode="&#xa3;" horiz-adv-x="489" 
d="M439 0h-374v73q69 87 69 168q0 11 -2 33h-72v65h61q-3 11 -10 37.5t-10.5 40.5t-6.5 36t-3 41q0 93 56 144t144 51q76 0 151 -32l-26 -75q-64 24 -119 24q-110 0 -110 -119q0 -19 3 -41t5.5 -33.5t9.5 -39.5t9 -34h178v-65h-167q2 -22 2 -33q0 -88 -62 -162h274v-79z" />
    <glyph glyph-name="currency" unicode="&#xa4;" horiz-adv-x="568" 
d="M433 70l-60 59q-41 -25 -88 -25q-49 0 -90 25l-59 -59l-62 62l59 59q-24 40 -24 88t25 89l-60 60l62 62l60 -60q42 25 89 25q45 0 87 -25l61 60l61 -62l-59 -60q25 -41 25 -89t-25 -89l59 -58zM381 279q0 40 -28.5 68t-67.5 28q-40 0 -68 -28t-28 -68t28 -68t68 -28
q39 0 67.5 28t28.5 68z" />
    <glyph glyph-name="yen" unicode="&#xa5;" horiz-adv-x="517" 
d="M438 111h-132v-111h-94v111h-132v64h132v71h-132v65h106l-180 365h101l152 -328l151 328h100l-178 -365h106v-65h-132v-71h132v-64z" />
    <glyph glyph-name="brokenbar" unicode="&#xa6;" horiz-adv-x="253" 
d="M171 385h-89v347h89v-347zM171 -200h-89v342h89v-342z" />
    <glyph glyph-name="section" unicode="&#xa7;" horiz-adv-x="554" 
d="M67 -95l16 81q86 -31 158 -31q47 0 76.5 21.5t29.5 64.5q0 41 -27.5 67.5t-66.5 42.5t-77.5 34.5t-66 56t-27.5 94.5q0 74 54 118q-14 31 -14 72q0 74 53 118.5t136 44.5q77 0 159 -33l-22 -79q-72 28 -132 28q-97 0 -97 -77q0 -27 14.5 -47t38 -33t52 -25t57 -27.5
t52 -35t38 -52.5t14.5 -76q0 -73 -54 -119q14 -31 14 -71q0 -79 -59 -124.5t-142 -45.5q-81 0 -177 33zM197 387q-18 -18 -18 -50q0 -40 30 -63.5t83.5 -46t79.5 -43.5q15 18 15 48q0 44 -28.5 69t-83 47t-78.5 39z" />
    <glyph glyph-name="dieresis" unicode="&#xa8;" horiz-adv-x="450" 
d="M370 657q0 -21 -15.5 -36t-37.5 -15q-21 0 -36.5 15t-15.5 36q0 22 15.5 37.5t36.5 15.5q22 0 37.5 -15.5t15.5 -37.5zM185 657q0 -21 -15.5 -36t-37.5 -15q-21 0 -36.5 15t-15.5 36q0 22 15.5 37.5t36.5 15.5q22 0 37.5 -15.5t15.5 -37.5z" />
    <glyph glyph-name="copyright" unicode="&#xa9;" horiz-adv-x="757" 
d="M378 -13q-144 0 -229 95.5t-85 240.5q0 144 85 239.5t229 95.5q145 0 229.5 -95.5t84.5 -239.5q0 -145 -84.5 -240.5t-229.5 -95.5zM378 49q116 0 182.5 77.5t66.5 196.5t-66.5 196t-182.5 77t-182 -77t-66 -196t66 -196.5t182 -77.5zM465 210l12 -52q-52 -16 -102 -16
q-60 0 -99 36.5t-39 99.5v88q0 63 39 100t99 37q50 0 102 -16l-12 -52q-50 13 -90 13q-36 0 -56 -24t-20 -65v-76q0 -40 20 -63t56 -23q44 0 90 13z" />
    <glyph glyph-name="ordfeminine" unicode="&#xaa;" horiz-adv-x="365" 
d="M319 542v-127q0 -50 -40 -84.5t-95 -34.5q-58 0 -97.5 34.5t-39.5 84.5q0 54 36 82.5t98 28.5h63v18q0 67 -62 67q-42 0 -97 -16l-16 61q65 20 113 20q62 0 99.5 -36.5t37.5 -97.5zM244 415v55h-61q-61 0 -61 -54q0 -24 17.5 -40t44.5 -16q26 0 43 16.5t17 38.5z" />
    <glyph glyph-name="guillemotleft" unicode="&#xab;" horiz-adv-x="504" 
d="M446 151l-64 -49l-141 178l141 178l64 -50l-102 -128zM274 151l-64 -49l-142 178l142 178l64 -50l-103 -128z" />
    <glyph glyph-name="logicalnot" unicode="&#xac;" horiz-adv-x="564" 
d="M496 59h-80v177h-348v80h428v-257z" />
    <glyph glyph-name="uni00AD" unicode="&#xad;" horiz-adv-x="490" 
d="M406 236h-323v80h323v-80z" />
    <glyph glyph-name="registered" unicode="&#xae;" horiz-adv-x="757" 
d="M378 -13q-144 0 -229 95.5t-85 240.5q0 144 85 239.5t229 95.5q145 0 229.5 -95.5t84.5 -239.5q0 -145 -84.5 -240.5t-229.5 -95.5zM378 49q116 0 182.5 77.5t66.5 196.5t-66.5 196t-182.5 77t-182 -77t-66 -196t66 -196.5t182 -77.5zM505 148h-66l-62 132h-48v-132h-62
v350h118q51 0 81.5 -31.5t30.5 -77.5q0 -73 -62 -99zM329 334h54q25 0 39 15.5t14 39.5t-13.5 39t-40.5 15h-53v-109z" />
    <glyph glyph-name="macron" unicode="&#xaf;" horiz-adv-x="425" 
d="M339 625h-253v71h253v-71z" />
    <glyph glyph-name="degree" unicode="&#xb0;" horiz-adv-x="385" 
d="M193 493q-52 0 -88.5 37t-36.5 90q0 50 36.5 86t88.5 36q50 0 87 -37t37 -87q0 -52 -36.5 -88.5t-87.5 -36.5zM193 561q24 0 40.5 16.5t16.5 40.5t-16.5 40.5t-41.5 16.5q-23 0 -39.5 -16.5t-16.5 -40.5t16.5 -40.5t40.5 -16.5z" />
    <glyph glyph-name="plusminus" unicode="&#xb1;" horiz-adv-x="545" 
d="M477 235h-165v-158h-79v158h-165v80h165v159h79v-159h165v-80zM477 -70h-409v78h409v-78z" />
    <glyph glyph-name="acute" unicode="&#xb4;" horiz-adv-x="390" 
d="M309 658l-203 -74l-25 61l198 86z" />
    <glyph glyph-name="mu" unicode="&#xb5;" horiz-adv-x="548" 
d="M170 -211h-92v726h92v-323q0 -60 29.5 -92t76.5 -32q49 0 78 34t29 99v314h92v-319q0 -98 -56.5 -153.5t-142.5 -55.5q-61 0 -106 31v-229z" />
    <glyph glyph-name="paragraph" unicode="&#xb6;" horiz-adv-x="606" 
d="M539 -120h-88v711h-91v-711h-88v411h-35q-75 0 -127 56.5t-52 135.5q0 80 52.5 136t130.5 56h298v-795z" />
    <glyph glyph-name="periodcentered" unicode="&#xb7;" horiz-adv-x="279" 
d="M195 279q0 -22 -16.5 -37.5t-39.5 -15.5q-21 0 -37.5 15.5t-16.5 37.5q0 23 16.5 39.5t37.5 16.5q24 0 40 -16.5t16 -39.5z" />
    <glyph glyph-name="cedilla" unicode="&#xb8;" horiz-adv-x="298" 
d="M148 -90v90h77v-99q0 -59 -35 -85.5t-85 -26.5q-38 0 -66 8l10 70q22 -6 50 -6q49 0 49 49z" />
    <glyph glyph-name="ordmasculine" unicode="&#xba;" horiz-adv-x="392" 
d="M345 517v-62q0 -76 -41 -117.5t-108 -41.5t-108 41.5t-41 117.5v62q0 76 41 117.5t108 41.5t108 -41.5t41 -117.5zM271 459v54q0 98 -75 98t-75 -98v-54q0 -99 75 -99t75 99z" />
    <glyph glyph-name="guillemotright" unicode="&#xbb;" horiz-adv-x="504" 
d="M294 102l-63 50l102 128l-102 129l63 49l142 -178zM122 102l-64 50l102 128l-102 129l64 49l141 -178z" />
    <glyph glyph-name="questiondown" unicode="&#xbf;" horiz-adv-x="446" 
d="M282 525q0 -24 -17.5 -40.5t-41.5 -16.5q-23 0 -40.5 16.5t-17.5 40.5t17.5 41.5t40.5 17.5q25 0 42 -17t17 -42zM349 8l39 -69q-78 -55 -157 -55q-75 0 -127.5 43.5t-52.5 122.5q0 38 20 75.5t44 63t44 58.5t20 62v82l88 -20v-60q0 -39 -19.5 -77t-43.5 -63.5
t-43.5 -58.5t-19.5 -62q0 -39 24 -62t67 -23q53 0 117 43z" />
    <glyph glyph-name="Agrave" unicode="&#xc0;" horiz-adv-x="599" 
d="M388 730l-203 74l30 73l198 -86zM30 0l215 676h109l215 -676h-97l-56 182h-234l-56 -182h-96zM206 262h186l-64 209q-5 14 -29 107q-11 -52 -28 -107z" />
    <glyph glyph-name="Aacute" unicode="&#xc1;" horiz-adv-x="599" 
d="M413 804l-203 -74l-25 61l198 86zM30 0l215 676h109l215 -676h-97l-56 182h-234l-56 -182h-96zM206 262h186l-64 209q-5 14 -29 107q-11 -52 -28 -107z" />
    <glyph glyph-name="Acircumflex" unicode="&#xc2;" horiz-adv-x="599" 
d="M398 732l-98 66l-99 -66l-38 62l136 81l137 -81zM30 0l215 676h109l215 -676h-97l-56 182h-234l-56 -182h-96zM206 262h186l-64 209q-5 14 -29 107q-11 -52 -28 -107z" />
    <glyph glyph-name="Atilde" unicode="&#xc3;" horiz-adv-x="599" 
d="M404 845l39 -43q-9 -22 -31.5 -40t-54.5 -18q-27 0 -64 23.5t-52 23.5q-25 0 -47 -29l-39 43q9 22 31.5 40t54.5 18q27 0 64 -23.5t52 -23.5q25 0 47 29zM30 0l215 676h109l215 -676h-97l-56 182h-234l-56 -182h-96zM206 262h186l-64 209q-5 14 -29 107q-11 -52 -28 -107
z" />
    <glyph glyph-name="Adieresis" unicode="&#xc4;" horiz-adv-x="599" 
d="M444 803q0 -21 -15.5 -36t-37.5 -15q-21 0 -36.5 15t-15.5 36t15.5 37t36.5 16q22 0 37.5 -15.5t15.5 -37.5zM259 803q0 -21 -15.5 -36t-36.5 -15t-37 15t-16 36q0 22 16 37.5t37 15.5t36.5 -15.5t15.5 -37.5zM30 0l215 676h109l215 -676h-97l-56 182h-234l-56 -182h-96z
M206 262h186l-64 209q-5 14 -29 107q-11 -52 -28 -107z" />
    <glyph glyph-name="Aring" unicode="&#xc5;" horiz-adv-x="599" 
d="M300 730q-38 0 -65 27t-27 65q0 37 27 63.5t65 26.5q37 0 63.5 -26.5t26.5 -63.5q0 -38 -26.5 -65t-63.5 -27zM300 787q13 0 23 10.5t10 24.5t-9.5 24t-23.5 10t-24 -10t-10 -24t10 -24.5t24 -10.5zM30 0l215 676h109l215 -676h-97l-56 182h-234l-56 -182h-96zM206 262
h186l-64 209q-5 14 -29 107q-11 -52 -28 -107z" />
    <glyph glyph-name="AE" unicode="&#xc6;" horiz-adv-x="903" 
d="M499 0l-13 182h-244l-105 -182h-107l400 676h379l5 -84h-266l16 -211h240l-15 -81h-220l16 -216h274l5 -84h-365zM459 559l-171 -297h192z" />
    <glyph glyph-name="Ccedilla" unicode="&#xc7;" horiz-adv-x="563" 
d="M297 -90v78q-106 9 -169.5 77.5t-63.5 192.5v160q0 132 72 201.5t190 69.5q91 0 192 -32l-18 -80q-93 28 -173 28q-78 0 -123 -47.5t-45 -145.5v-148q0 -99 44.5 -146t123.5 -47q85 0 173 28l18 -82q-75 -22 -144 -28v-88q0 -59 -35 -85.5t-85 -26.5q-37 0 -66 8l10 70
q24 -6 50 -6q49 0 49 49z" />
    <glyph glyph-name="Egrave" unicode="&#xc8;" horiz-adv-x="526" 
d="M361 730l-203 74l30 73l197 -86zM83 0v676h370v-84h-275v-211h234l-6 -81h-228v-216h284v-84h-379z" />
    <glyph glyph-name="Eacute" unicode="&#xc9;" horiz-adv-x="526" 
d="M376 804l-203 -74l-24 61l197 86zM83 0v676h370v-84h-275v-211h234l-6 -81h-228v-216h284v-84h-379z" />
    <glyph glyph-name="Ecircumflex" unicode="&#xca;" horiz-adv-x="526" 
d="M364 732l-98 66l-99 -66l-38 62l137 81l137 -81zM83 0v676h370v-84h-275v-211h234l-6 -81h-228v-216h284v-84h-379z" />
    <glyph glyph-name="Edieresis" unicode="&#xcb;" horiz-adv-x="526" 
d="M416 803q0 -21 -15.5 -36t-37.5 -15q-21 0 -36.5 15t-15.5 36t15.5 37t36.5 16q22 0 37.5 -15.5t15.5 -37.5zM231 803q0 -21 -15.5 -36t-36.5 -15t-37 15t-16 36q0 22 16 37.5t37 15.5t36.5 -15.5t15.5 -37.5zM83 0v676h370v-84h-275v-211h234l-6 -81h-228v-216h284v-84
h-379z" />
    <glyph glyph-name="Igrave" unicode="&#xcc;" horiz-adv-x="261" 
d="M219 730l-203 74l30 73l198 -86zM83 0v676h95v-676h-95z" />
    <glyph glyph-name="Iacute" unicode="&#xcd;" horiz-adv-x="261" 
d="M244 804l-203 -74l-25 61l198 86zM83 0v676h95v-676h-95z" />
    <glyph glyph-name="Icircumflex" unicode="&#xce;" horiz-adv-x="261" 
d="M229 732l-99 66l-98 -66l-39 62l137 81l137 -81zM83 0v676h95v-676h-95z" />
    <glyph glyph-name="Idieresis" unicode="&#xcf;" horiz-adv-x="261" 
d="M276 803q0 -21 -15.5 -36t-37.5 -15q-21 0 -36.5 15t-15.5 36q0 22 15.5 37.5t36.5 15.5q22 0 37.5 -15.5t15.5 -37.5zM90 803q0 -21 -15 -36t-37 -15q-21 0 -36.5 15t-15.5 36q0 22 15.5 37.5t36.5 15.5q22 0 37 -15.5t15 -37.5zM83 0v676h95v-676h-95z" />
    <glyph glyph-name="Eth" unicode="&#xd0;" horiz-adv-x="626" 
d="M323 0h-240v308h-63v66h63v261q147 54 240 54q101 0 169.5 -66t68.5 -182v-200q0 -118 -62 -179.5t-176 -61.5zM467 247v188q0 82 -39.5 126t-105.5 44q-65 0 -144 -27v-204h143v-66h-143v-224h145q74 0 109 38.5t35 124.5z" />
    <glyph glyph-name="Ntilde" unicode="&#xd1;" horiz-adv-x="627" 
d="M418 845l39 -43q-9 -22 -31.5 -40t-53.5 -18q-28 0 -64.5 23.5t-51.5 23.5q-27 0 -47 -29l-39 43q10 22 32 40t54 18q28 0 64 -23.5t52 -23.5q26 0 46 29zM83 0v676h75l294 -494q-2 72 -2 99v395h94v-676h-78l-292 486q4 -48 4 -99v-387h-95z" />
    <glyph glyph-name="Ograve" unicode="&#xd2;" horiz-adv-x="630" 
d="M404 730l-203 74l30 73l197 -86zM64 259v157q0 131 71 202t180 71t180 -71t71 -202v-157q0 -131 -71 -201.5t-180 -70.5t-180 70.5t-71 201.5zM159 410v-146q0 -97 42 -145t114 -48t114.5 48t42.5 145v146q0 98 -42.5 146.5t-114.5 48.5t-114 -48.5t-42 -146.5z" />
    <glyph glyph-name="Oacute" unicode="&#xd3;" horiz-adv-x="630" 
d="M427 804l-203 -74l-25 61l198 86zM64 259v157q0 131 71 202t180 71t180 -71t71 -202v-157q0 -131 -71 -201.5t-180 -70.5t-180 70.5t-71 201.5zM159 410v-146q0 -97 42 -145t114 -48t114.5 48t42.5 145v146q0 98 -42.5 146.5t-114.5 48.5t-114 -48.5t-42 -146.5z" />
    <glyph glyph-name="Ocircumflex" unicode="&#xd4;" horiz-adv-x="630" 
d="M413 732l-98 66l-99 -66l-38 62l136 81l137 -81zM64 259v157q0 131 71 202t180 71t180 -71t71 -202v-157q0 -131 -71 -201.5t-180 -70.5t-180 70.5t-71 201.5zM159 410v-146q0 -97 42 -145t114 -48t114.5 48t42.5 145v146q0 98 -42.5 146.5t-114.5 48.5t-114 -48.5
t-42 -146.5z" />
    <glyph glyph-name="Otilde" unicode="&#xd5;" horiz-adv-x="630" 
d="M419 845l39 -43q-9 -22 -31.5 -40t-53.5 -18q-28 0 -64.5 23.5t-51.5 23.5q-27 0 -47 -29l-39 43q10 22 32 40t54 18q27 0 64 -23.5t52 -23.5q26 0 46 29zM64 259v157q0 131 71 202t180 71t180 -71t71 -202v-157q0 -131 -71 -201.5t-180 -70.5t-180 70.5t-71 201.5z
M159 410v-146q0 -97 42 -145t114 -48t114.5 48t42.5 145v146q0 98 -42.5 146.5t-114.5 48.5t-114 -48.5t-42 -146.5z" />
    <glyph glyph-name="Odieresis" unicode="&#xd6;" horiz-adv-x="630" 
d="M461 803q0 -21 -15.5 -36t-37.5 -15q-21 0 -36.5 15t-15.5 36q0 22 15.5 37.5t36.5 15.5q22 0 37.5 -15.5t15.5 -37.5zM275 803q0 -21 -15 -36t-37 -15q-21 0 -36.5 15t-15.5 36q0 22 15.5 37.5t36.5 15.5q22 0 37 -15.5t15 -37.5zM64 259v157q0 131 71 202t180 71
t180 -71t71 -202v-157q0 -131 -71 -201.5t-180 -70.5t-180 70.5t-71 201.5zM159 410v-146q0 -97 42 -145t114 -48t114.5 48t42.5 145v146q0 98 -42.5 146.5t-114.5 48.5t-114 -48.5t-42 -146.5z" />
    <glyph glyph-name="multiply" unicode="&#xd7;" horiz-adv-x="496" 
d="M371 97l-123 123l-123 -124l-57 57l124 123l-123 124l56 56l123 -124l123 124l56 -56l-123 -124l123 -123z" />
    <glyph glyph-name="Oslash" unicode="&#xd8;" horiz-adv-x="630" 
d="M157 -60l-64 30l42 87q-71 74 -71 202v157q0 131 71 202t180 71q64 0 116 -26l36 73l64 -30l-41 -83q76 -74 76 -207v-157q0 -131 -71 -201.5t-180 -70.5q-65 0 -122 27zM182 153l212 433q-34 19 -79 19q-72 0 -114 -48.5t-42 -146.5v-146q0 -68 23 -111zM472 264v146
q0 74 -28 119l-213 -437q34 -21 84 -21q72 0 114.5 48t42.5 145z" />
    <glyph glyph-name="Ugrave" unicode="&#xd9;" horiz-adv-x="631" 
d="M404 730l-203 74l30 73l198 -86zM78 217v459h95v-453q0 -67 40 -109.5t104 -42.5q63 0 102.5 42.5t39.5 109.5v453h94v-459q0 -100 -68.5 -165t-167.5 -65q-101 0 -170 65t-69 165z" />
    <glyph glyph-name="Uacute" unicode="&#xda;" horiz-adv-x="631" 
d="M429 804l-203 -74l-25 61l198 86zM78 217v459h95v-453q0 -67 40 -109.5t104 -42.5q63 0 102.5 42.5t39.5 109.5v453h94v-459q0 -100 -68.5 -165t-167.5 -65q-101 0 -170 65t-69 165z" />
    <glyph glyph-name="Ucircumflex" unicode="&#xdb;" horiz-adv-x="631" 
d="M413 732l-98 66l-99 -66l-38 62l137 81l137 -81zM78 217v459h95v-453q0 -67 40 -109.5t104 -42.5q63 0 102.5 42.5t39.5 109.5v453h94v-459q0 -100 -68.5 -165t-167.5 -65q-101 0 -170 65t-69 165z" />
    <glyph glyph-name="Udieresis" unicode="&#xdc;" horiz-adv-x="631" 
d="M461 803q0 -21 -15.5 -36t-37.5 -15q-21 0 -36.5 15t-15.5 36q0 22 15.5 37.5t36.5 15.5q22 0 37.5 -15.5t15.5 -37.5zM276 803q0 -21 -15.5 -36t-37.5 -15q-21 0 -36.5 15t-15.5 36q0 22 15.5 37.5t36.5 15.5q22 0 37.5 -15.5t15.5 -37.5zM78 217v459h95v-453
q0 -67 40 -109.5t104 -42.5q63 0 102.5 42.5t39.5 109.5v453h94v-459q0 -100 -68.5 -165t-167.5 -65q-101 0 -170 65t-69 165z" />
    <glyph glyph-name="Yacute" unicode="&#xdd;" horiz-adv-x="561" 
d="M394 804l-203 -74l-25 61l198 86zM233 0v259l-208 417h100l155 -321l156 321h100l-208 -417v-259h-95z" />
    <glyph glyph-name="Thorn" unicode="&#xde;" horiz-adv-x="551" 
d="M308 134h-130v-134h-95v676h95v-133h130q91 0 147.5 -59.5t56.5 -145.5q0 -85 -56.5 -144.5t-147.5 -59.5zM178 216h129q51 0 80 34t29 88t-29 88t-80 34h-129v-244z" />
    <glyph glyph-name="germandbls" unicode="&#xdf;" horiz-adv-x="602" 
d="M184 573v-573h-91v449h-68v66h68v62q0 81 49 124.5t121 43.5q73 0 124 -41.5t51 -120.5q0 -35 -17 -66t-37 -49.5t-37 -42t-17 -45.5q0 -28 23.5 -47t57 -31.5t67 -28.5t57 -49.5t23.5 -84.5q0 -62 -47 -107t-134 -45q-75 0 -148 27l17 78q74 -24 131 -24q40 0 65 19.5
t25 49.5q0 31 -23 51t-56 33t-66 28.5t-56 48.5t-23 82q0 37 16.5 68t36.5 48t36.5 39.5t16.5 44.5q0 41 -24.5 62.5t-59.5 21.5q-33 0 -57 -22.5t-24 -68.5z" />
    <glyph glyph-name="agrave" unicode="&#xe0;" horiz-adv-x="485" 
d="M324 584l-203 74l30 73l197 -86zM46 154q0 74 51 115t136 41h101v28q0 53 -25.5 81t-73.5 28q-60 0 -136 -23l-20 76q87 28 156 28q87 0 138.5 -51t51.5 -139v-184q0 -70 -55 -118.5t-133 -48.5q-81 0 -136 48t-55 119zM140 155q0 -36 26.5 -61.5t70.5 -25.5
q42 0 69.5 25.5t27.5 60.5v84h-101q-47 0 -70 -23t-23 -60z" />
    <glyph glyph-name="aacute" unicode="&#xe1;" horiz-adv-x="485" 
d="M340 658l-203 -74l-25 61l198 86zM46 154q0 74 51 115t136 41h101v28q0 53 -25.5 81t-73.5 28q-60 0 -136 -23l-20 76q87 28 156 28q87 0 138.5 -51t51.5 -139v-184q0 -70 -55 -118.5t-133 -48.5q-81 0 -136 48t-55 119zM140 155q0 -36 26.5 -61.5t70.5 -25.5
q42 0 69.5 25.5t27.5 60.5v84h-101q-47 0 -70 -23t-23 -60z" />
    <glyph glyph-name="acircumflex" unicode="&#xe2;" horiz-adv-x="485" 
d="M331 586l-98 66l-99 -66l-38 62l137 81l137 -81zM46 154q0 74 51 115t136 41h101v28q0 53 -25.5 81t-73.5 28q-60 0 -136 -23l-20 76q87 28 156 28q87 0 138.5 -51t51.5 -139v-184q0 -70 -55 -118.5t-133 -48.5q-81 0 -136 48t-55 119zM140 155q0 -36 26.5 -61.5
t70.5 -25.5q42 0 69.5 25.5t27.5 60.5v84h-101q-47 0 -70 -23t-23 -60z" />
    <glyph glyph-name="atilde" unicode="&#xe3;" horiz-adv-x="485" 
d="M338 699l39 -43q-9 -22 -31.5 -40t-53.5 -18q-28 0 -64.5 23.5t-51.5 23.5q-27 0 -47 -29l-39 43q10 22 32 40t54 18q27 0 63.5 -23.5t52.5 -23.5q26 0 46 29zM46 154q0 74 51 115t136 41h101v28q0 53 -25.5 81t-73.5 28q-60 0 -136 -23l-20 76q87 28 156 28
q87 0 138.5 -51t51.5 -139v-184q0 -70 -55 -118.5t-133 -48.5q-81 0 -136 48t-55 119zM140 155q0 -36 26.5 -61.5t70.5 -25.5q42 0 69.5 25.5t27.5 60.5v84h-101q-47 0 -70 -23t-23 -60z" />
    <glyph glyph-name="adieresis" unicode="&#xe4;" horiz-adv-x="485" 
d="M376 657q0 -21 -15.5 -36t-37.5 -15q-21 0 -36.5 15t-15.5 36q0 22 15.5 37.5t36.5 15.5q22 0 37.5 -15.5t15.5 -37.5zM191 657q0 -21 -15.5 -36t-37.5 -15q-21 0 -36.5 15t-15.5 36q0 22 15.5 37.5t36.5 15.5q22 0 37.5 -15.5t15.5 -37.5zM46 154q0 74 51 115t136 41
h101v28q0 53 -25.5 81t-73.5 28q-60 0 -136 -23l-20 76q87 28 156 28q87 0 138.5 -51t51.5 -139v-184q0 -70 -55 -118.5t-133 -48.5q-81 0 -136 48t-55 119zM140 155q0 -36 26.5 -61.5t70.5 -25.5q42 0 69.5 25.5t27.5 60.5v84h-101q-47 0 -70 -23t-23 -60z" />
    <glyph glyph-name="aring" unicode="&#xe5;" horiz-adv-x="485" 
d="M237 584q-38 0 -65.5 27t-27.5 65q0 37 27.5 63.5t65.5 26.5q37 0 63.5 -26.5t26.5 -63.5q0 -38 -26.5 -65t-63.5 -27zM237 641q13 0 23 10.5t10 24.5t-9.5 24t-23.5 10t-24 -10t-10 -24t10 -24.5t24 -10.5zM46 154q0 74 51 115t136 41h101v28q0 53 -25.5 81t-73.5 28
q-60 0 -136 -23l-20 76q87 28 156 28q87 0 138.5 -51t51.5 -139v-184q0 -70 -55 -118.5t-133 -48.5q-81 0 -136 48t-55 119zM140 155q0 -36 26.5 -61.5t70.5 -25.5q42 0 69.5 25.5t27.5 60.5v84h-101q-47 0 -70 -23t-23 -60z" />
    <glyph glyph-name="ae" unicode="&#xe6;" horiz-adv-x="784" 
d="M682 92l18 -79q-81 -26 -157 -26q-104 0 -158 63q-56 -63 -148 -63q-81 0 -136 48t-55 119q0 74 51 114.5t136 40.5h101v29q0 53 -25.5 81t-73.5 28q-58 0 -136 -23l-20 76q87 28 156 28q97 0 147 -66q54 66 147 66q84 0 141.5 -54t57.5 -137v-106h-305v-30
q0 -133 120 -133q63 0 139 24zM636 303v34q0 49 -29.5 79.5t-77.5 30.5t-77 -32t-29 -90v-22h213zM334 201v36h-101q-47 0 -70 -22.5t-23 -59.5q0 -36 26.5 -61.5t70.5 -25.5q68 0 108 53q-11 38 -11 80z" />
    <glyph glyph-name="ccedilla" unicode="&#xe7;" horiz-adv-x="471" 
d="M242 -90v79q-85 9 -134 64.5t-49 159.5v90q0 113 58 169t157 56q69 0 146 -24l-17 -78q-80 21 -125 21q-64 0 -95.5 -35.5t-31.5 -113.5v-81q0 -77 31.5 -113t95.5 -36q55 0 125 20l17 -77q-50 -16 -102 -22v-88q0 -59 -35 -85.5t-84 -26.5q-38 0 -66 8l9 70q24 -6 50 -6
q50 0 50 49z" />
    <glyph glyph-name="egrave" unicode="&#xe8;" horiz-adv-x="510" 
d="M344 584l-203 74l30 73l198 -86zM59 201v117q0 99 56.5 154.5t141.5 55.5q84 0 141.5 -54t57.5 -137v-106h-305v-30q0 -133 120 -133q60 0 139 24l18 -79q-81 -26 -157 -26q-96 0 -154 56t-58 158zM151 303h213v34q0 49 -29.5 79.5t-77.5 30.5t-77 -32t-29 -90v-22z" />
    <glyph glyph-name="eacute" unicode="&#xe9;" horiz-adv-x="510" 
d="M365 658l-203 -74l-24 61l197 86zM59 201v117q0 99 56.5 154.5t141.5 55.5q84 0 141.5 -54t57.5 -137v-106h-305v-30q0 -133 120 -133q60 0 139 24l18 -79q-81 -26 -157 -26q-96 0 -154 56t-58 158zM151 303h213v34q0 49 -29.5 79.5t-77.5 30.5t-77 -32t-29 -90v-22z" />
    <glyph glyph-name="ecircumflex" unicode="&#xea;" horiz-adv-x="510" 
d="M354 586l-99 66l-98 -66l-39 62l137 81l137 -81zM59 201v117q0 99 56.5 154.5t141.5 55.5q84 0 141.5 -54t57.5 -137v-106h-305v-30q0 -133 120 -133q60 0 139 24l18 -79q-81 -26 -157 -26q-96 0 -154 56t-58 158zM151 303h213v34q0 49 -29.5 79.5t-77.5 30.5t-77 -32
t-29 -90v-22z" />
    <glyph glyph-name="edieresis" unicode="&#xeb;" horiz-adv-x="510" 
d="M400 657q0 -21 -15.5 -36t-37.5 -15q-21 0 -36.5 15t-15.5 36q0 22 15.5 37.5t36.5 15.5q22 0 37.5 -15.5t15.5 -37.5zM214 657q0 -21 -15 -36t-37 -15q-21 0 -36.5 15t-15.5 36q0 22 15.5 37.5t36.5 15.5q22 0 37 -15.5t15 -37.5zM59 201v117q0 99 56.5 154.5
t141.5 55.5q84 0 141.5 -54t57.5 -137v-106h-305v-30q0 -133 120 -133q60 0 139 24l18 -79q-81 -26 -157 -26q-96 0 -154 56t-58 158zM151 303h213v34q0 49 -29.5 79.5t-77.5 30.5t-77 -32t-29 -90v-22z" />
    <glyph glyph-name="igrave" unicode="&#xec;" horiz-adv-x="248" 
d="M213 584l-203 74l30 73l197 -86zM170 0h-92v515h92v-515z" />
    <glyph glyph-name="iacute" unicode="&#xed;" horiz-adv-x="248" 
d="M238 658l-203 -74l-25 61l198 86zM170 0h-92v515h92v-515z" />
    <glyph glyph-name="icircumflex" unicode="&#xee;" horiz-adv-x="248" 
d="M222 586l-98 66l-99 -66l-38 62l137 81l137 -81zM170 0h-92v515h92v-515z" />
    <glyph glyph-name="idieresis" unicode="&#xef;" horiz-adv-x="248" 
d="M268 657q0 -21 -15.5 -36t-37.5 -15q-21 0 -36.5 15t-15.5 36t15.5 37t36.5 16q22 0 37.5 -15.5t15.5 -37.5zM83 657q0 -21 -15.5 -36t-36.5 -15t-37 15t-16 36q0 22 16 37.5t37 15.5t36.5 -15.5t15.5 -37.5zM170 0h-92v515h92v-515z" />
    <glyph glyph-name="eth" unicode="&#xf0;" horiz-adv-x="536" 
d="M59 210v65q0 109 58 166t147 57q70 0 126 -37v55q0 128 -91 143l-35 -99l-62 22l28 79q-53 -4 -103 -21l-16 72q86 27 146 28l32 88l61 -22l-25 -72q71 -15 111.5 -68.5t40.5 -146.5v-309q0 -107 -59 -165t-150 -58t-150 58t-59 165zM151 269v-54q0 -77 32 -112t85 -35
t85 35.5t32 111.5v164q-54 38 -117 38q-117 0 -117 -148z" />
    <glyph glyph-name="ntilde" unicode="&#xf1;" horiz-adv-x="543" 
d="M376 699l39 -43q-9 -22 -31.5 -40t-53.5 -18q-28 0 -64.5 23.5t-51.5 23.5q-27 0 -47 -29l-39 43q10 22 32 40t54 18q28 0 64 -23.5t52 -23.5q26 0 46 29zM73 0v319q0 98 57 153.5t142 55.5q86 0 142 -55t56 -154v-319h-92v314q0 65 -29 99t-77 34q-49 0 -78 -34t-29 -99
v-314h-92z" />
    <glyph glyph-name="ograve" unicode="&#xf2;" horiz-adv-x="536" 
d="M357 584l-203 74l30 73l197 -86zM59 213v89q0 110 57.5 168t151.5 58t151.5 -58t57.5 -168v-89q0 -110 -57.5 -168t-151.5 -58t-151.5 58t-57.5 168zM151 218q0 -150 117 -150t117 150v79q0 150 -117 150t-117 -150v-79z" />
    <glyph glyph-name="oacute" unicode="&#xf3;" horiz-adv-x="536" 
d="M382 658l-203 -74l-25 61l198 86zM59 213v89q0 110 57.5 168t151.5 58t151.5 -58t57.5 -168v-89q0 -110 -57.5 -168t-151.5 -58t-151.5 58t-57.5 168zM151 218q0 -150 117 -150t117 150v79q0 150 -117 150t-117 -150v-79z" />
    <glyph glyph-name="ocircumflex" unicode="&#xf4;" horiz-adv-x="536" 
d="M366 586l-98 66l-99 -66l-38 62l137 81l137 -81zM59 213v89q0 110 57.5 168t151.5 58t151.5 -58t57.5 -168v-89q0 -110 -57.5 -168t-151.5 -58t-151.5 58t-57.5 168zM151 218q0 -150 117 -150t117 150v79q0 150 -117 150t-117 -150v-79z" />
    <glyph glyph-name="otilde" unicode="&#xf5;" horiz-adv-x="536" 
d="M372 699l39 -43q-9 -22 -31.5 -40t-53.5 -18q-28 0 -64.5 23.5t-51.5 23.5q-27 0 -47 -29l-39 43q10 22 32 40t54 18q27 0 63.5 -23.5t52.5 -23.5q26 0 46 29zM59 213v89q0 110 57.5 168t151.5 58t151.5 -58t57.5 -168v-89q0 -110 -57.5 -168t-151.5 -58t-151.5 58
t-57.5 168zM151 218q0 -150 117 -150t117 150v79q0 150 -117 150t-117 -150v-79z" />
    <glyph glyph-name="odieresis" unicode="&#xf6;" horiz-adv-x="536" 
d="M413 657q0 -21 -15.5 -36t-37.5 -15q-21 0 -36.5 15t-15.5 36q0 22 15.5 37.5t36.5 15.5q22 0 37.5 -15.5t15.5 -37.5zM228 657q0 -21 -15.5 -36t-37.5 -15q-21 0 -36.5 15t-15.5 36q0 22 15.5 37.5t36.5 15.5q22 0 37.5 -15.5t15.5 -37.5zM59 213v89q0 110 57.5 168
t151.5 58t151.5 -58t57.5 -168v-89q0 -110 -57.5 -168t-151.5 -58t-151.5 58t-57.5 168zM151 218q0 -150 117 -150t117 150v79q0 150 -117 150t-117 -150v-79z" />
    <glyph glyph-name="oslash" unicode="&#xf8;" horiz-adv-x="535" 
d="M146 -66l-59 30l36 74q-64 61 -64 175v89q0 110 57.5 168t150.5 58q46 0 87 -15l34 70l60 -30l-37 -76q65 -59 65 -175v-89q0 -110 -57.5 -168t-151.5 -58q-49 0 -87 16zM169 132l148 306q-21 9 -50 9q-117 0 -117 -150v-79q0 -54 19 -86zM385 218v79q0 55 -19 87
l-150 -307q22 -9 51 -9q118 0 118 150z" />
    <glyph glyph-name="ugrave" unicode="&#xf9;" horiz-adv-x="543" 
d="M361 584l-203 74l30 73l197 -86zM73 196v319h92v-314q0 -65 29 -99t77 -34q49 0 78 34t29 99v314h92v-319q0 -98 -56.5 -153.5t-142.5 -55.5t-142 55t-56 154z" />
    <glyph glyph-name="uacute" unicode="&#xfa;" horiz-adv-x="543" 
d="M381 658l-203 -74l-25 61l198 86zM73 196v319h92v-314q0 -65 29 -99t77 -34q49 0 78 34t29 99v314h92v-319q0 -98 -56.5 -153.5t-142.5 -55.5t-142 55t-56 154z" />
    <glyph glyph-name="ucircumflex" unicode="&#xfb;" horiz-adv-x="543" 
d="M370 586l-98 66l-99 -66l-38 62l136 81l137 -81zM73 196v319h92v-314q0 -65 29 -99t77 -34q49 0 78 34t29 99v314h92v-319q0 -98 -56.5 -153.5t-142.5 -55.5t-142 55t-56 154z" />
    <glyph glyph-name="udieresis" unicode="&#xfc;" horiz-adv-x="543" 
d="M416 657q0 -21 -15.5 -36t-37.5 -15q-21 0 -36.5 15t-15.5 36q0 22 15.5 37.5t36.5 15.5q22 0 37.5 -15.5t15.5 -37.5zM231 657q0 -21 -15.5 -36t-37.5 -15q-21 0 -36.5 15t-15.5 36q0 22 15.5 37.5t36.5 15.5q22 0 37.5 -15.5t15.5 -37.5zM73 196v319h92v-314
q0 -65 29 -99t77 -34q49 0 78 34t29 99v314h92v-319q0 -98 -56.5 -153.5t-142.5 -55.5t-142 55t-56 154z" />
    <glyph glyph-name="yacute" unicode="&#xfd;" horiz-adv-x="489" 
d="M357 658l-203 -74l-24 61l197 86zM77 180l-47 335h92l46 -326q7 -52 29 -79.5t64 -27.5h51l54 433h92l-94 -726h-91l28 211h-42q-157 0 -182 180z" />
    <glyph glyph-name="thorn" unicode="&#xfe;" horiz-adv-x="545" 
d="M170 -210h-92v942h92v-239q47 35 112 35q86 0 144.5 -57.5t58.5 -157.5v-110q0 -105 -56.5 -160.5t-140.5 -55.5q-59 0 -118 36v-233zM394 208v100q0 68 -31.5 103.5t-80.5 35.5t-80.5 -33.5t-31.5 -96.5v-214q60 -35 111 -35q50 0 81.5 33.5t31.5 106.5z" />
    <glyph glyph-name="ydieresis" unicode="&#xff;" horiz-adv-x="489" 
d="M391 657q0 -21 -15.5 -36t-37.5 -15q-21 0 -36.5 15t-15.5 36t16 37t36 16q22 0 37.5 -15.5t15.5 -37.5zM206 657q0 -21 -15.5 -36t-36.5 -15t-37 15t-16 36q0 22 16 37.5t37 15.5t36.5 -15.5t15.5 -37.5zM77 180l-47 335h92l46 -326q7 -52 29 -79.5t64 -27.5h51l54 433
h92l-94 -726h-91l28 211h-42q-157 0 -182 180z" />
    <glyph glyph-name="Amacron" unicode="&#x100;" horiz-adv-x="599" 
d="M425 771h-253v71h253v-71zM30 0l215 676h109l215 -676h-97l-56 182h-234l-56 -182h-96zM206 262h186l-64 209q-5 14 -29 107q-11 -52 -28 -107z" />
    <glyph glyph-name="amacron" unicode="&#x101;" horiz-adv-x="485" 
d="M359 625h-253v71h253v-71zM46 154q0 74 51 115t136 41h101v28q0 53 -25.5 81t-73.5 28q-60 0 -136 -23l-20 76q87 28 156 28q87 0 138.5 -51t51.5 -139v-184q0 -70 -55 -118.5t-133 -48.5q-81 0 -136 48t-55 119zM140 155q0 -36 26.5 -61.5t70.5 -25.5q42 0 69.5 25.5
t27.5 60.5v84h-101q-47 0 -70 -23t-23 -60z" />
    <glyph glyph-name="Abreve" unicode="&#x102;" horiz-adv-x="599" 
d="M350 867h69q-1 -54 -35 -89.5t-85 -35.5t-85.5 35.5t-34.5 89.5h68q0 -25 15 -42.5t37 -17.5q21 0 36 17.5t15 42.5zM30 0l215 676h109l215 -676h-97l-56 182h-234l-56 -182h-96zM206 262h186l-64 209q-5 14 -29 107q-11 -52 -28 -107z" />
    <glyph glyph-name="abreve" unicode="&#x103;" horiz-adv-x="485" 
d="M278 721h69q-1 -54 -35 -89.5t-85 -35.5t-85.5 35.5t-34.5 89.5h68q1 -26 15.5 -43t36.5 -17t36.5 17t14.5 43zM46 154q0 74 51 115t136 41h101v28q0 53 -25.5 81t-73.5 28q-60 0 -136 -23l-20 76q87 28 156 28q87 0 138.5 -51t51.5 -139v-184q0 -70 -55 -118.5
t-133 -48.5q-81 0 -136 48t-55 119zM140 155q0 -36 26.5 -61.5t70.5 -25.5q42 0 69.5 25.5t27.5 60.5v84h-101q-47 0 -70 -23t-23 -60z" />
    <glyph glyph-name="Aogonek" unicode="&#x104;" horiz-adv-x="599" 
d="M30 0l215 676h109l215 -676q-86 -64 -86 -121q0 -37 37 -37q23 0 36 6l13 -62q-25 -9 -54 -9q-49 0 -76.5 25.5t-27.5 68.5q0 72 78 129h-17l-56 182h-234l-56 -182h-96zM206 262h186l-64 209q-5 14 -29 107q-11 -52 -28 -107z" />
    <glyph glyph-name="aogonek" unicode="&#x105;" horiz-adv-x="485" 
d="M292 -152l12 -62q-25 -9 -53 -9q-49 0 -77 25.5t-28 68.5q0 64 63 118q-71 8 -117 54.5t-46 110.5q0 74 51 115t136 41h101v28q0 53 -25.5 81t-73.5 28q-60 0 -136 -23l-20 76q87 28 156 28q87 0 138.5 -51t51.5 -139v-184q0 -55 -35 -97.5t-91 -59.5q-81 -62 -81 -118
q0 -37 38 -37q22 0 36 6zM140 155q0 -36 26.5 -61.5t70.5 -25.5q42 0 69.5 25.5t27.5 60.5v84h-101q-47 0 -70 -23t-23 -60z" />
    <glyph glyph-name="Cacute" unicode="&#x106;" horiz-adv-x="563" 
d="M420 804l-203 -74l-24 61l197 86zM500 99l18 -82q-103 -30 -192 -30q-118 0 -190 69.5t-72 201.5v160q0 132 72 201.5t190 69.5q91 0 192 -32l-18 -80q-93 28 -173 28q-78 0 -123 -47.5t-45 -145.5v-148q0 -99 44.5 -146t123.5 -47q85 0 173 28z" />
    <glyph glyph-name="cacute" unicode="&#x107;" horiz-adv-x="471" 
d="M361 660l-203 -74l-25 61l198 86zM59 213v90q0 113 58 169t157 56q69 0 146 -24l-17 -78q-80 21 -125 21q-64 0 -95.5 -35.5t-31.5 -113.5v-81q0 -77 31.5 -113t95.5 -36q55 0 125 20l17 -77q-80 -24 -146 -24q-99 0 -157 56.5t-58 169.5z" />
    <glyph glyph-name="Ccircumflex" unicode="&#x108;" horiz-adv-x="563" 
d="M410 732l-98 66l-99 -66l-38 62l136 81l137 -81zM500 99l18 -82q-103 -30 -192 -30q-118 0 -190 69.5t-72 201.5v160q0 132 72 201.5t190 69.5q91 0 192 -32l-18 -80q-93 28 -173 28q-78 0 -123 -47.5t-45 -145.5v-148q0 -99 44.5 -146t123.5 -47q85 0 173 28z" />
    <glyph glyph-name="ccircumflex" unicode="&#x109;" horiz-adv-x="471" 
d="M353 586l-99 66l-98 -66l-39 62l137 81l137 -81zM59 213v90q0 113 58 169t157 56q69 0 146 -24l-17 -78q-80 21 -125 21q-64 0 -95.5 -35.5t-31.5 -113.5v-81q0 -77 31.5 -113t95.5 -36q55 0 125 20l17 -77q-80 -24 -146 -24q-99 0 -157 56.5t-58 169.5z" />
    <glyph glyph-name="Cdotaccent" unicode="&#x10a;" horiz-adv-x="563" 
d="M360 803q0 -21 -15.5 -36t-37.5 -15q-21 0 -36.5 15t-15.5 36t15.5 37t36.5 16q22 0 37.5 -15.5t15.5 -37.5zM500 99l18 -82q-103 -30 -192 -30q-118 0 -190 69.5t-72 201.5v160q0 132 72 201.5t190 69.5q91 0 192 -32l-18 -80q-93 28 -173 28q-78 0 -123 -47.5
t-45 -145.5v-148q0 -99 44.5 -146t123.5 -47q85 0 173 28z" />
    <glyph glyph-name="cdotaccent" unicode="&#x10b;" horiz-adv-x="471" 
d="M301 657q0 -21 -15.5 -36t-37.5 -15q-21 0 -36.5 15t-15.5 36t16 37t36 16q22 0 37.5 -15.5t15.5 -37.5zM59 213v90q0 113 58 169t157 56q69 0 146 -24l-17 -78q-80 21 -125 21q-64 0 -95.5 -35.5t-31.5 -113.5v-81q0 -77 31.5 -113t95.5 -36q55 0 125 20l17 -77
q-80 -24 -146 -24q-99 0 -157 56.5t-58 169.5z" />
    <glyph glyph-name="Ccaron" unicode="&#x10c;" horiz-adv-x="563" 
d="M450 813l-136 -82l-137 82l38 61l98 -66l99 66zM500 99l18 -82q-103 -30 -192 -30q-118 0 -190 69.5t-72 201.5v160q0 132 72 201.5t190 69.5q91 0 192 -32l-18 -80q-93 28 -173 28q-78 0 -123 -47.5t-45 -145.5v-148q0 -99 44.5 -146t123.5 -47q85 0 173 28z" />
    <glyph glyph-name="ccaron" unicode="&#x10d;" horiz-adv-x="471" 
d="M390 667l-137 -82l-137 82l38 61l99 -66l98 66zM59 213v90q0 113 58 169t157 56q69 0 146 -24l-17 -78q-80 21 -125 21q-64 0 -95.5 -35.5t-31.5 -113.5v-81q0 -77 31.5 -113t95.5 -36q55 0 125 20l17 -77q-80 -24 -146 -24q-99 0 -157 56.5t-58 169.5z" />
    <glyph glyph-name="Dcaron" unicode="&#x10e;" horiz-adv-x="626" 
d="M449 813l-137 -82l-137 82l39 61l98 -66l99 66zM323 0h-240v635q147 54 240 54q101 0 169.5 -66t68.5 -182v-200q0 -118 -62 -179.5t-176 -61.5zM467 247v188q0 82 -39.5 126t-105.5 44q-65 0 -144 -27v-494h145q74 0 109 38.5t35 124.5z" />
    <glyph glyph-name="dcaron" unicode="&#x10f;" horiz-adv-x="525" 
d="M591 551h-62v181l87 11zM59 202v110q0 105 56.5 160.5t140.5 55.5q61 0 118 -36v240h91v-530q0 -100 -58 -157.5t-144 -57.5t-145 57.5t-59 157.5zM151 307v-100q0 -68 31 -103.5t81 -35.5t80.5 35.5t30.5 103.5v205q-60 35 -110 35q-51 0 -82 -33.5t-31 -106.5z" />
    <glyph glyph-name="Dcroat" unicode="&#x110;" horiz-adv-x="626" 
d="M323 0h-240v308h-63v66h63v261q147 54 240 54q101 0 169.5 -66t68.5 -182v-200q0 -118 -62 -179.5t-176 -61.5zM467 247v188q0 82 -39.5 126t-105.5 44q-65 0 -144 -27v-204h143v-66h-143v-224h145q74 0 109 38.5t35 124.5z" />
    <glyph glyph-name="dcroat" unicode="&#x111;" horiz-adv-x="525" 
d="M59 202v110q0 105 56.5 160.5t140.5 55.5q61 0 118 -36v111h-106v66h106v63h91v-63h42v-66h-42v-401q0 -100 -58 -157.5t-144 -57.5t-145 57.5t-59 157.5zM151 307v-100q0 -68 31 -103.5t81 -35.5t80.5 35.5t30.5 103.5v205q-60 35 -110 35q-51 0 -82 -33.5t-31 -106.5z
" />
    <glyph glyph-name="Emacron" unicode="&#x112;" horiz-adv-x="526" 
d="M392 771h-253v71h253v-71zM83 0v676h370v-84h-275v-211h234l-6 -81h-228v-216h284v-84h-379z" />
    <glyph glyph-name="emacron" unicode="&#x113;" horiz-adv-x="510" 
d="M381 625h-253v71h253v-71zM59 201v117q0 99 56.5 154.5t141.5 55.5q84 0 141.5 -54t57.5 -137v-106h-305v-30q0 -133 120 -133q60 0 139 24l18 -79q-81 -26 -157 -26q-96 0 -154 56t-58 158zM151 303h213v34q0 49 -29.5 79.5t-77.5 30.5t-77 -32t-29 -90v-22z" />
    <glyph glyph-name="Ebreve" unicode="&#x114;" horiz-adv-x="526" 
d="M313 867h69q-1 -54 -35 -89.5t-85 -35.5t-85.5 35.5t-34.5 89.5h68q1 -26 15.5 -43t36.5 -17t36.5 17t14.5 43zM83 0v676h370v-84h-275v-211h234l-6 -81h-228v-216h284v-84h-379z" />
    <glyph glyph-name="ebreve" unicode="&#x115;" horiz-adv-x="510" 
d="M306 721h69q-1 -54 -35 -89.5t-85 -35.5t-85.5 35.5t-34.5 89.5h68q0 -25 15 -42.5t37 -17.5q21 0 36 17.5t15 42.5zM59 201v117q0 99 56.5 154.5t141.5 55.5q84 0 141.5 -54t57.5 -137v-106h-305v-30q0 -133 120 -133q60 0 139 24l18 -79q-81 -26 -157 -26
q-96 0 -154 56t-58 158zM151 303h213v34q0 49 -29.5 79.5t-77.5 30.5t-77 -32t-29 -90v-22z" />
    <glyph glyph-name="Edotaccent" unicode="&#x116;" horiz-adv-x="526" 
d="M328 803q0 -21 -15.5 -36t-37.5 -15q-21 0 -36.5 15t-15.5 36q0 22 15.5 37.5t36.5 15.5q22 0 37.5 -15.5t15.5 -37.5zM83 0v676h370v-84h-275v-211h234l-6 -81h-228v-216h284v-84h-379z" />
    <glyph glyph-name="edotaccent" unicode="&#x117;" horiz-adv-x="510" 
d="M307 657q0 -21 -15.5 -36t-37.5 -15q-21 0 -36.5 15t-15.5 36t16 37t36 16q22 0 37.5 -15.5t15.5 -37.5zM59 201v117q0 99 56.5 154.5t141.5 55.5q84 0 141.5 -54t57.5 -137v-106h-305v-30q0 -133 120 -133q60 0 139 24l18 -79q-81 -26 -157 -26q-96 0 -154 56t-58 158z
M151 303h213v34q0 49 -29.5 79.5t-77.5 30.5t-77 -32t-29 -90v-22z" />
    <glyph glyph-name="Eogonek" unicode="&#x118;" horiz-adv-x="526" 
d="M83 0v676h370v-84h-275v-211h234l-6 -81h-228v-216h284v-84q-86 -65 -86 -121q0 -37 38 -37q22 0 36 6l12 -62q-25 -9 -53 -9q-49 0 -77 25.5t-28 68.5q0 72 78 129h-299z" />
    <glyph glyph-name="eogonek" unicode="&#x119;" horiz-adv-x="510" 
d="M415 -152l13 -62q-25 -9 -54 -9q-49 0 -76.5 25.5t-27.5 68.5q0 64 55 119q-48 -3 -54 -3q-96 0 -154 56t-58 158v117q0 99 56.5 154.5t141.5 55.5q84 0 141.5 -54t57.5 -137v-106h-305v-30q0 -133 120 -133q63 0 139 24l18 -79q-37 -27 -61.5 -63.5t-24.5 -70.5
q0 -37 37 -37q23 0 36 6zM364 303v34q0 49 -29.5 79.5t-77.5 30.5t-77 -32t-29 -90v-22h213z" />
    <glyph glyph-name="Ecaron" unicode="&#x11a;" horiz-adv-x="526" 
d="M408 813l-137 -82l-137 82l39 61l98 -66l99 66zM83 0v676h370v-84h-275v-211h234l-6 -81h-228v-216h284v-84h-379z" />
    <glyph glyph-name="ecaron" unicode="&#x11b;" horiz-adv-x="510" 
d="M392 667l-137 -82l-137 82l39 61l98 -66l99 66zM59 201v117q0 99 56.5 154.5t141.5 55.5q84 0 141.5 -54t57.5 -137v-106h-305v-30q0 -133 120 -133q60 0 139 24l18 -79q-81 -26 -157 -26q-96 0 -154 56t-58 158zM151 303h213v34q0 49 -29.5 79.5t-77.5 30.5t-77 -32
t-29 -90v-22z" />
    <glyph glyph-name="Gcircumflex" unicode="&#x11c;" horiz-adv-x="607" 
d="M408 732l-98 66l-99 -66l-38 62l136 81l137 -81zM64 258v160q0 132 72 201.5t190 69.5q80 0 197 -34l-21 -80q-97 30 -175 30t-123 -47.5t-45 -144.5v-148q0 -98 45 -146t123 -48q50 0 122 17v200h-74v74h163v-337q-112 -38 -212 -38q-118 0 -190 69.5t-72 201.5z" />
    <glyph glyph-name="gcircumflex" unicode="&#x11d;" horiz-adv-x="479" 
d="M326 586l-98 66l-99 -66l-38 62l136 81l137 -81zM56 -103q102 -42 174 -42q59 0 90.5 19t31.5 49q0 23 -26 36.5t-63.5 20.5t-75 15.5t-63.5 30.5t-26 57q0 34 31 60q-80 49 -80 149v58q0 79 52 128.5t132 49.5q36 0 72 -13l151 11l-6 -66l-69 -4q34 -43 34 -106v-58
q0 -79 -51 -128t-131 -49q-21 0 -40 3q-13 -11 -13 -22q0 -13 27.5 -21.5t66 -16.5t77.5 -20t66.5 -40t27.5 -69q0 -67 -56 -110t-158 -43q-99 0 -201 47zM233 195q47 0 69.5 26.5t22.5 70.5v58q0 44 -22.5 70.5t-69.5 26.5t-70.5 -26.5t-23.5 -70.5v-58q0 -44 23.5 -70.5
t70.5 -26.5z" />
    <glyph glyph-name="Gbreve" unicode="&#x11e;" horiz-adv-x="607" 
d="M361 867h69q-1 -54 -35 -89.5t-85 -35.5t-85.5 35.5t-34.5 89.5h68q1 -26 15.5 -43t36.5 -17t36.5 17t14.5 43zM64 258v160q0 132 72 201.5t190 69.5q80 0 197 -34l-21 -80q-97 30 -175 30t-123 -47.5t-45 -144.5v-148q0 -98 45 -146t123 -48q50 0 122 17v200h-74v74h163
v-337q-112 -38 -212 -38q-118 0 -190 69.5t-72 201.5z" />
    <glyph glyph-name="gbreve" unicode="&#x11f;" horiz-adv-x="479" 
d="M273 721h68q0 -54 -34.5 -89.5t-85.5 -35.5t-85 35.5t-35 89.5h69q0 -26 14.5 -43t36.5 -17t37 17.5t15 42.5zM56 -103q102 -42 174 -42q59 0 90.5 19t31.5 49q0 23 -26 36.5t-63.5 20.5t-75 15.5t-63.5 30.5t-26 57q0 34 31 60q-80 49 -80 149v58q0 79 52 128.5
t132 49.5q36 0 72 -13l151 11l-6 -66l-69 -4q34 -43 34 -106v-58q0 -79 -51 -128t-131 -49q-21 0 -40 3q-13 -11 -13 -22q0 -13 27.5 -21.5t66 -16.5t77.5 -20t66.5 -40t27.5 -69q0 -67 -56 -110t-158 -43q-99 0 -201 47zM233 195q47 0 69.5 26.5t22.5 70.5v58
q0 44 -22.5 70.5t-69.5 26.5t-70.5 -26.5t-23.5 -70.5v-58q0 -44 23.5 -70.5t70.5 -26.5z" />
    <glyph glyph-name="Gdotaccent" unicode="&#x120;" horiz-adv-x="607" 
d="M364 803q0 -21 -15.5 -36t-37.5 -15q-21 0 -36.5 15t-15.5 36q0 22 15.5 37.5t36.5 15.5q22 0 37.5 -15.5t15.5 -37.5zM64 258v160q0 132 72 201.5t190 69.5q80 0 197 -34l-21 -80q-97 30 -175 30t-123 -47.5t-45 -144.5v-148q0 -98 45 -146t123 -48q50 0 122 17v200h-74
v74h163v-337q-112 -38 -212 -38q-118 0 -190 69.5t-72 201.5z" />
    <glyph glyph-name="gdotaccent" unicode="&#x121;" horiz-adv-x="479" 
d="M278 657q0 -21 -15.5 -36t-37.5 -15q-21 0 -36.5 15t-15.5 36t15.5 37t36.5 16q22 0 37.5 -15.5t15.5 -37.5zM56 -103q102 -42 174 -42q59 0 90.5 19t31.5 49q0 23 -26 36.5t-63.5 20.5t-75 15.5t-63.5 30.5t-26 57q0 34 31 60q-80 49 -80 149v58q0 79 52 128.5t132 49.5
q36 0 72 -13l151 11l-6 -66l-69 -4q34 -43 34 -106v-58q0 -79 -51 -128t-131 -49q-21 0 -40 3q-13 -11 -13 -22q0 -13 27.5 -21.5t66 -16.5t77.5 -20t66.5 -40t27.5 -69q0 -67 -56 -110t-158 -43q-99 0 -201 47zM233 195q47 0 69.5 26.5t22.5 70.5v58q0 44 -22.5 70.5
t-69.5 26.5t-70.5 -26.5t-23.5 -70.5v-58q0 -44 23.5 -70.5t70.5 -26.5z" />
    <glyph glyph-name="Gcommaaccent" unicode="&#x122;" horiz-adv-x="607" 
d="M64 258v160q0 132 72 201.5t190 69.5q80 0 197 -34l-21 -80q-97 30 -175 30t-123 -47.5t-45 -144.5v-148q0 -98 45 -146t123 -48q50 0 122 17v200h-74v74h163v-337q-112 -38 -212 -38q-118 0 -190 69.5t-72 201.5zM307 -224h-64l29 160h87z" />
    <glyph glyph-name="gcommaaccent" unicode="&#x123;" horiz-adv-x="479" 
d="M266 585h-64l29 160h87zM56 -103q102 -42 174 -42q59 0 90.5 19t31.5 49q0 23 -26 36.5t-63.5 20.5t-75 15.5t-63.5 30.5t-26 57q0 34 31 60q-80 49 -80 149v58q0 79 52 128.5t132 49.5q36 0 72 -13l151 11l-6 -66l-69 -4q34 -43 34 -106v-58q0 -79 -51 -128t-131 -49
q-21 0 -40 3q-13 -11 -13 -22q0 -13 27.5 -21.5t66 -16.5t77.5 -20t66.5 -40t27.5 -69q0 -67 -56 -110t-158 -43q-99 0 -201 47zM233 195q47 0 69.5 26.5t22.5 70.5v58q0 44 -22.5 70.5t-69.5 26.5t-70.5 -26.5t-23.5 -70.5v-58q0 -44 23.5 -70.5t70.5 -26.5z" />
    <glyph glyph-name="Hcircumflex" unicode="&#x124;" horiz-adv-x="634" 
d="M415 732l-98 66l-99 -66l-38 62l136 81l137 -81zM83 0v676h95v-290h279v290h94v-676h-94v303h-279v-303h-95z" />
    <glyph glyph-name="hcircumflex" unicode="&#x125;" horiz-adv-x="549" 
d="M221 736l-98 67l-99 -67l-38 62l136 82l137 -82zM476 0h-92v317q0 71 -26.5 100.5t-76.5 29.5q-51 0 -111 -35v-412h-92v732h92v-240q57 36 118 36q84 0 136 -50t52 -155v-323z" />
    <glyph glyph-name="Hbar" unicode="&#x126;" horiz-adv-x="634" 
d="M551 0h-94v303h-279v-303h-95v488h-40v66h40v122h95v-122h279v122h94v-122h40v-66h-40v-488zM457 386v102h-279v-102h279z" />
    <glyph glyph-name="hbar" unicode="&#x127;" horiz-adv-x="549" 
d="M476 0h-92v317q0 71 -26.5 100.5t-76.5 29.5q-51 0 -111 -35v-412h-92v603h-40v66h40v63h92v-63h106v-66h-106v-111q57 36 118 36q84 0 136 -50t52 -155v-323z" />
    <glyph glyph-name="Itilde" unicode="&#x128;" horiz-adv-x="261" 
d="M235 845l39 -43q-9 -22 -31.5 -40t-53.5 -18q-28 0 -64.5 23.5t-51.5 23.5q-27 0 -47 -29l-39 43q10 22 32 40t54 18q27 0 64 -23.5t52 -23.5q26 0 46 29zM83 0v676h95v-676h-95z" />
    <glyph glyph-name="itilde" unicode="&#x129;" horiz-adv-x="248" 
d="M229 699l39 -43q-9 -22 -31.5 -40t-54.5 -18q-28 0 -64 23.5t-52 23.5q-25 0 -47 -29l-39 43q9 22 31.5 40t54.5 18q28 0 64 -23.5t52 -23.5q25 0 47 29zM170 0h-92v515h92v-515z" />
    <glyph glyph-name="Imacron" unicode="&#x12a;" horiz-adv-x="261" 
d="M257 771h-253v71h253v-71zM83 0v676h95v-676h-95z" />
    <glyph glyph-name="imacron" unicode="&#x12b;" horiz-adv-x="248" 
d="M250 625h-253v71h253v-71zM170 0h-92v515h92v-515z" />
    <glyph glyph-name="Ibreve" unicode="&#x12c;" horiz-adv-x="261" 
d="M182 881h69q-1 -54 -35 -89.5t-85 -35.5t-85.5 35.5t-34.5 89.5h68q0 -25 15 -42.5t37 -17.5q21 0 36 17.5t15 42.5zM83 0v676h95v-676h-95z" />
    <glyph glyph-name="ibreve" unicode="&#x12d;" horiz-adv-x="248" 
d="M175 721h69q-1 -54 -35 -89.5t-85 -35.5t-85.5 35.5t-34.5 89.5h68q0 -25 15 -42.5t37 -17.5q21 0 36 17.5t15 42.5zM170 0h-92v515h92v-515z" />
    <glyph glyph-name="Iogonek" unicode="&#x12e;" horiz-adv-x="261" 
d="M83 0v676h95v-676q-86 -64 -86 -121q0 -37 37 -37q23 0 36 6l13 -62q-25 -9 -54 -9q-49 0 -76.5 25.5t-27.5 68.5q0 72 78 129h-15z" />
    <glyph glyph-name="iogonek" unicode="&#x12f;" horiz-adv-x="248" 
d="M124 603q-24 0 -41 16.5t-17 40.5q0 23 17 39.5t41 16.5q23 0 40.5 -16.5t17.5 -39.5t-17.5 -40t-40.5 -17zM78 0v515h92v-515q-86 -65 -86 -121q0 -37 38 -37q22 0 35 6l13 -62q-26 -9 -53 -9q-50 0 -77.5 25.5t-27.5 68.5q0 72 78 129h-12z" />
    <glyph glyph-name="Idotaccent" unicode="&#x130;" horiz-adv-x="261" 
d="M183 803q0 -21 -15.5 -36t-37.5 -15q-21 0 -36.5 15t-15.5 36q0 22 15.5 37.5t36.5 15.5q22 0 37.5 -15.5t15.5 -37.5zM83 0v676h95v-676h-95z" />
    <glyph glyph-name="dotlessi" unicode="&#x131;" horiz-adv-x="248" 
d="M170 0h-92v515h92v-515z" />
    <glyph glyph-name="IJ" unicode="&#x132;" horiz-adv-x="737" 
d="M569 221v455l95 -7v-451q0 -108 -56 -169.5t-155 -61.5q-76 0 -164 31l22 79q75 -26 138 -26q61 0 90.5 40.5t29.5 109.5zM178 0h-95v676h95v-676z" />
    <glyph glyph-name="ij" unicode="&#x133;" horiz-adv-x="495" 
d="M430 660q0 -23 -17.5 -40t-40.5 -17q-25 0 -42 16.5t-17 40.5q0 23 17 39.5t42 16.5q23 0 40.5 -16.5t17.5 -39.5zM182 660q0 -23 -17.5 -40t-40.5 -17q-24 0 -41 16.5t-17 40.5q0 23 17 39.5t41 16.5q23 0 40.5 -16.5t17.5 -39.5zM418 -202l-92 -20v737h92v-717zM170 0
h-92v515h92v-515z" />
    <glyph glyph-name="Jcircumflex" unicode="&#x134;" horiz-adv-x="476" 
d="M449 732l-98 66l-99 -66l-38 62l136 81l137 -81zM28 18l22 79q75 -26 138 -26q61 0 90.5 40.5t29.5 109.5v455l95 -7v-451q0 -108 -56 -169.5t-155 -61.5q-76 0 -164 31z" />
    <glyph glyph-name="jcircumflex" unicode="&#x135;" horiz-adv-x="247" 
d="M223 584l-99 69l-98 -69l-39 62l137 84l137 -84zM169 -202l-91 -20v737h91v-717z" />
    <glyph glyph-name="Kcommaaccent" unicode="&#x136;" horiz-adv-x="589" 
d="M83 0v676h95v-336l242 336h107l-217 -302l251 -374h-111l-197 295l-75 -105v-190h-95zM294 -224h-64l29 160h87z" />
    <glyph glyph-name="kcommaaccent" unicode="&#x137;" horiz-adv-x="481" 
d="M78 0v732h92v-438l91 33q38 13 51 62l33 126h90l-38 -142q-12 -44 -28 -70t-48 -40l136 -263h-100l-117 233l-70 -26v-207h-92zM243 -224h-64l29 160h87z" />
    <glyph glyph-name="Lacute" unicode="&#x139;" horiz-adv-x="506" 
d="M247 804l-203 -74l-24 61l197 86zM83 0v676h95v-592h290l-7 -84h-378z" />
    <glyph glyph-name="lacute" unicode="&#x13a;" horiz-adv-x="248" 
d="M235 819l-203 -74l-24 61l197 86zM170 0h-92v725l92 20v-745z" />
    <glyph glyph-name="Lcommaaccent" unicode="&#x13b;" horiz-adv-x="506" 
d="M83 0v676h95v-592h290l-7 -84h-378zM271 -224h-63l29 160h87z" />
    <glyph glyph-name="lcommaaccent" unicode="&#x13c;" horiz-adv-x="248" 
d="M78 0v725l92 20v-745h-92zM112 -224h-64l29 160h87z" />
    <glyph glyph-name="Lcaron" unicode="&#x13d;" horiz-adv-x="506" 
d="M367 495h-62v181l87 11zM461 0h-378v676h95v-592h290z" />
    <glyph glyph-name="lcaron" unicode="&#x13e;" horiz-adv-x="248" 
d="M78 0v725l92 20v-745h-92zM297 551h-62v181l87 11z" />
    <glyph glyph-name="Ldot" unicode="&#x13f;" horiz-adv-x="506" 
d="M461 0h-378v676h95v-592h290zM381 279q0 -22 -16.5 -37.5t-39.5 -15.5q-22 0 -38.5 15.5t-16.5 37.5q0 23 16.5 39.5t38.5 16.5q23 0 39.5 -16.5t16.5 -39.5z" />
    <glyph glyph-name="ldot" unicode="&#x140;" horiz-adv-x="325" 
d="M170 0h-92v725l92 20v-745zM337 279q0 -22 -16.5 -37.5t-39.5 -15.5q-21 0 -37.5 15.5t-16.5 37.5q0 23 16 39.5t38 16.5q23 0 39.5 -16.5t16.5 -39.5z" />
    <glyph glyph-name="Lslash" unicode="&#x141;" horiz-adv-x="506" 
d="M461 0h-378v282l-53 -20l-21 57l74 26v331h95v-296l93 34l20 -57l-113 -41v-232h290z" />
    <glyph glyph-name="lslash" unicode="&#x142;" horiz-adv-x="248" 
d="M170 0h-92v289l-56 -20l-20 57l76 27v372l92 20v-359l56 21l21 -57l-77 -28v-322z" />
    <glyph glyph-name="Nacute" unicode="&#x143;" horiz-adv-x="627" 
d="M427 804l-203 -74l-24 61l197 86zM83 0v676h75l294 -493q-2 72 -2 98v395h94v-676h-78l-292 486q4 -48 4 -99v-387h-95z" />
    <glyph glyph-name="nacute" unicode="&#x144;" horiz-adv-x="543" 
d="M380 658l-203 -74l-25 61l198 86zM73 0v319q0 98 57 153.5t142 55.5q86 0 142 -55t56 -154v-319h-92v314q0 65 -29 99t-77 34q-49 0 -78 -34t-29 -99v-314h-92z" />
    <glyph glyph-name="Ncommaaccent" unicode="&#x145;" horiz-adv-x="627" 
d="M83 0v676h75l294 -493q-2 72 -2 98v395h94v-676h-78l-292 486q4 -48 4 -99v-387h-95zM317 -224h-64l29 160h87z" />
    <glyph glyph-name="ncommaaccent" unicode="&#x146;" horiz-adv-x="543" 
d="M73 0v319q0 98 57 153.5t142 55.5q86 0 142 -55t56 -154v-319h-92v314q0 65 -29 99t-77 34q-49 0 -78 -34t-29 -99v-314h-92zM270 -224h-63l29 160h87z" />
    <glyph glyph-name="Ncaron" unicode="&#x147;" horiz-adv-x="627" 
d="M450 813l-136 -82l-137 82l38 61l98 -66l99 66zM83 0v676h75l294 -493q-2 72 -2 98v395h94v-676h-78l-292 486q4 -48 4 -99v-387h-95z" />
    <glyph glyph-name="ncaron" unicode="&#x148;" horiz-adv-x="543" 
d="M408 667l-136 -82l-137 82l38 61l98 -66l99 66zM73 0v319q0 98 57 153.5t142 55.5q86 0 142 -55t56 -154v-319h-92v314q0 65 -29 99t-77 34q-49 0 -78 -34t-29 -99v-314h-92z" />
    <glyph glyph-name="Eng" unicode="&#x14a;" horiz-adv-x="627" 
d="M544 -202l-91 -20v243l-279 465q4 -48 4 -99v-387h-95v676h75l294 -493q-2 72 -2 98v395h94v-878z" />
    <glyph glyph-name="eng" unicode="&#x14b;" horiz-adv-x="543" 
d="M470 -200l-92 -20v532q0 65 -29 99t-77 34q-49 0 -78 -34t-29 -99v-312h-92v317q0 98 57 153.5t142 55.5q86 0 142 -55t56 -154v-517z" />
    <glyph glyph-name="Omacron" unicode="&#x14c;" horiz-adv-x="630" 
d="M442 771h-254v71h254v-71zM64 259v157q0 131 71 202t180 71t180 -71t71 -202v-157q0 -131 -71 -201.5t-180 -70.5t-180 70.5t-71 201.5zM159 410v-146q0 -97 42 -145t114 -48t114.5 48t42.5 145v146q0 98 -42.5 146.5t-114.5 48.5t-114 -48.5t-42 -146.5z" />
    <glyph glyph-name="omacron" unicode="&#x14d;" horiz-adv-x="536" 
d="M395 625h-254v71h254v-71zM59 213v89q0 110 57.5 168t151.5 58t151.5 -58t57.5 -168v-89q0 -110 -57.5 -168t-151.5 -58t-151.5 58t-57.5 168zM151 218q0 -150 117 -150t117 150v79q0 150 -117 150t-117 -150v-79z" />
    <glyph glyph-name="Obreve" unicode="&#x14e;" horiz-adv-x="630" 
d="M366 867h69q-1 -54 -35 -89.5t-85 -35.5t-85.5 35.5t-34.5 89.5h68q1 -26 15.5 -43t36.5 -17t36.5 17t14.5 43zM64 259v157q0 131 71 202t180 71t180 -71t71 -202v-157q0 -131 -71 -201.5t-180 -70.5t-180 70.5t-71 201.5zM159 410v-146q0 -97 42 -145t114 -48t114.5 48
t42.5 145v146q0 98 -42.5 146.5t-114.5 48.5t-114 -48.5t-42 -146.5z" />
    <glyph glyph-name="obreve" unicode="&#x14f;" horiz-adv-x="536" 
d="M319 721h69q-1 -54 -35 -89.5t-85 -35.5t-85.5 35.5t-34.5 89.5h68q1 -26 15.5 -43t36.5 -17t36.5 17t14.5 43zM59 213v89q0 110 57.5 168t151.5 58t151.5 -58t57.5 -168v-89q0 -110 -57.5 -168t-151.5 -58t-151.5 58t-57.5 168zM151 218q0 -150 117 -150t117 150v79
q0 150 -117 150t-117 -150v-79z" />
    <glyph glyph-name="Ohungarumlaut" unicode="&#x150;" horiz-adv-x="630" 
d="M562 820l-166 -96l-35 58l160 105zM352 819l-166 -95l-35 57l160 106zM64 259v157q0 131 71 202t180 71t180 -71t71 -202v-157q0 -131 -71 -201.5t-180 -70.5t-180 70.5t-71 201.5zM159 410v-146q0 -97 42 -145t114 -48t114.5 48t42.5 145v146q0 98 -42.5 146.5
t-114.5 48.5t-114 -48.5t-42 -146.5z" />
    <glyph glyph-name="ohungarumlaut" unicode="&#x151;" horiz-adv-x="536" 
d="M507 674l-166 -96l-35 58l160 105zM297 673l-165 -95l-36 57l160 106zM59 213v89q0 110 57.5 168t151.5 58t151.5 -58t57.5 -168v-89q0 -110 -57.5 -168t-151.5 -58t-151.5 58t-57.5 168zM151 218q0 -150 117 -150t117 150v79q0 150 -117 150t-117 -150v-79z" />
    <glyph glyph-name="OE" unicode="&#x152;" horiz-adv-x="894" 
d="M830 0h-429q-44 -13 -86 -13q-109 0 -180 70.5t-71 201.5v157q0 131 71 202t180 71q43 0 85 -13h421v-84h-307q52 -70 52 -176v-35h214l-6 -81h-208v-41q0 -106 -51 -175h315v-84zM472 264v146q0 98 -42.5 146.5t-114.5 48.5t-114 -48.5t-42 -146.5v-146q0 -97 42 -145
t114 -48t114.5 48t42.5 145z" />
    <glyph glyph-name="oe" unicode="&#x153;" horiz-adv-x="836" 
d="M736 92l18 -79q-81 -26 -157 -26q-114 0 -168 75q-53 -75 -161 -75q-94 0 -151.5 58t-57.5 168v89q0 110 57.5 168t151.5 58q107 0 161 -75q54 75 154 75q84 0 141.5 -54t57.5 -137v-106h-305v-30q0 -133 120 -133q63 0 139 24zM690 303v34q0 49 -29.5 79.5t-77.5 30.5
t-77 -32t-29 -90v-22h213zM385 218v79q0 150 -117 150t-117 -150v-79q0 -150 117 -150t117 150z" />
    <glyph glyph-name="Racute" unicode="&#x154;" horiz-adv-x="558" 
d="M393 804l-203 -74l-25 61l198 86zM83 0v676h226q91 0 147 -59.5t56 -145.5q0 -67 -35.5 -118t-96.5 -70l133 -283h-105l-123 271h-107v-271h-95zM178 349h129q51 0 80.5 34t29.5 88t-29.5 87.5t-80.5 33.5h-129v-243z" />
    <glyph glyph-name="racute" unicode="&#x155;" horiz-adv-x="355" 
d="M315 658l-203 -74l-24 61l197 86zM73 0v336q0 85 56.5 138.5t139.5 53.5q33 0 73 -9l-17 -79q-28 7 -55 7q-47 0 -76 -30.5t-29 -80.5v-336h-92z" />
    <glyph glyph-name="Rcommaaccent" unicode="&#x156;" horiz-adv-x="558" 
d="M83 0v676h226q91 0 147 -59.5t56 -145.5q0 -67 -35.5 -118t-96.5 -70l133 -283h-105l-123 271h-107v-271h-95zM178 349h129q51 0 80.5 34t29.5 88t-29.5 87.5t-80.5 33.5h-129v-243zM279 -224h-63l29 160h87z" />
    <glyph glyph-name="rcommaaccent" unicode="&#x157;" horiz-adv-x="355" 
d="M73 0v336q0 85 56.5 138.5t139.5 53.5q33 0 73 -9l-17 -79q-28 7 -55 7q-47 0 -76 -30.5t-29 -80.5v-336h-92zM108 -224h-63l29 160h87z" />
    <glyph glyph-name="Rcaron" unicode="&#x158;" horiz-adv-x="558" 
d="M416 813l-137 -82l-137 82l38 61l99 -66l98 66zM83 0v676h226q91 0 147 -59.5t56 -145.5q0 -67 -35.5 -118t-96.5 -70l133 -283h-105l-123 271h-107v-271h-95zM178 349h129q51 0 80.5 34t29.5 88t-29.5 87.5t-80.5 33.5h-129v-243z" />
    <glyph glyph-name="rcaron" unicode="&#x159;" horiz-adv-x="355" 
d="M331 667l-137 -82l-137 82l38 61l99 -66l98 66zM73 0v336q0 85 56.5 138.5t139.5 53.5q33 0 73 -9l-17 -79q-28 7 -55 7q-47 0 -76 -30.5t-29 -80.5v-336h-92z" />
    <glyph glyph-name="Sacute" unicode="&#x15a;" horiz-adv-x="505" 
d="M366 804l-203 -74l-25 61l198 86zM45 24l17 82q98 -35 181 -35q51 0 85.5 28t34.5 78q0 38 -22.5 66t-56.5 43.5t-73 35t-73 40t-56.5 59.5t-22.5 91q0 79 59 128t151 49q81 0 175 -35l-24 -79q-85 30 -151 30q-54 0 -83.5 -24t-29.5 -67q0 -35 22.5 -61.5t56.5 -41
t73 -34t73 -41t56.5 -62.5t22.5 -96q0 -90 -62.5 -140.5t-154.5 -50.5q-91 0 -198 37z" />
    <glyph glyph-name="sacute" unicode="&#x15b;" horiz-adv-x="421" 
d="M321 658l-203 -74l-25 61l198 86zM42 14l17 78q77 -24 133 -24q42 0 67.5 19.5t25.5 49.5q0 31 -24 51.5t-58 34t-67.5 29.5t-57.5 49.5t-24 82.5q0 63 46.5 103.5t125.5 40.5q66 0 133 -23l-21 -78q-63 20 -112 20q-40 0 -59.5 -17t-19.5 -46q0 -28 24 -47.5t57.5 -32.5
t67.5 -29.5t58 -50.5t24 -85q0 -62 -48.5 -107t-137.5 -45q-75 0 -150 27z" />
    <glyph glyph-name="Scircumflex" unicode="&#x15c;" horiz-adv-x="505" 
d="M351 732l-99 66l-98 -66l-39 62l137 81l137 -81zM45 24l17 82q98 -35 181 -35q51 0 85.5 28t34.5 78q0 38 -22.5 66t-56.5 43.5t-73 35t-73 40t-56.5 59.5t-22.5 91q0 79 59 128t151 49q81 0 175 -35l-24 -79q-85 30 -151 30q-54 0 -83.5 -24t-29.5 -67q0 -35 22.5 -61.5
t56.5 -41t73 -34t73 -41t56.5 -62.5t22.5 -96q0 -90 -62.5 -140.5t-154.5 -50.5q-91 0 -198 37z" />
    <glyph glyph-name="scircumflex" unicode="&#x15d;" horiz-adv-x="421" 
d="M309 586l-99 66l-98 -66l-39 62l137 81l137 -81zM42 14l17 78q77 -24 133 -24q42 0 67.5 19.5t25.5 49.5q0 31 -24 51.5t-58 34t-67.5 29.5t-57.5 49.5t-24 82.5q0 63 46.5 103.5t125.5 40.5q66 0 133 -23l-21 -78q-63 20 -112 20q-40 0 -59.5 -17t-19.5 -46
q0 -28 24 -47.5t57.5 -32.5t67.5 -29.5t58 -50.5t24 -85q0 -62 -48.5 -107t-137.5 -45q-75 0 -150 27z" />
    <glyph glyph-name="Scedilla" unicode="&#x15e;" horiz-adv-x="505" 
d="M214 -90v78q-84 5 -169 36l17 82q98 -35 181 -35q51 0 85.5 28t34.5 78q0 38 -22.5 66t-56.5 43.5t-73 35t-73 40t-56.5 59.5t-22.5 91q0 79 59 128t151 49q81 0 175 -35l-24 -79q-85 30 -151 30q-54 0 -83.5 -24t-29.5 -67q0 -35 22.5 -61.5t56.5 -41t73 -34t73 -41
t56.5 -62.5t22.5 -96q0 -78 -47.5 -126.5t-122.5 -60.5v-90q0 -59 -35 -85.5t-84 -26.5q-38 0 -66 8l9 70q24 -6 50 -6q50 0 50 49z" />
    <glyph glyph-name="scedilla" unicode="&#x15f;" horiz-adv-x="421" 
d="M179 -90v77q-68 3 -137 27l17 78q77 -24 133 -24q42 0 67.5 19.5t25.5 49.5q0 31 -24 51.5t-58 34t-67.5 29.5t-57.5 49.5t-24 82.5q0 63 46.5 103.5t125.5 40.5q66 0 133 -23l-21 -78q-63 20 -112 20q-40 0 -59.5 -17t-19.5 -46q0 -28 24 -47.5t57.5 -32.5t67.5 -29.5
t58 -50.5t24 -85q0 -49 -31.5 -89.5t-90.5 -54.5v-94q0 -59 -35 -85.5t-85 -26.5q-37 0 -66 8l10 70q24 -6 50 -6q49 0 49 49z" />
    <glyph glyph-name="Scaron" unicode="&#x160;" horiz-adv-x="505" 
d="M391 813l-137 -82l-137 82l38 61l99 -66l98 66zM45 24l17 82q98 -35 181 -35q51 0 85.5 28t34.5 78q0 38 -22.5 66t-56.5 43.5t-73 35t-73 40t-56.5 59.5t-22.5 91q0 79 59 128t151 49q81 0 175 -35l-24 -79q-85 30 -151 30q-54 0 -83.5 -24t-29.5 -67q0 -35 22.5 -61.5
t56.5 -41t73 -34t73 -41t56.5 -62.5t22.5 -96q0 -90 -62.5 -140.5t-154.5 -50.5q-91 0 -198 37z" />
    <glyph glyph-name="scaron" unicode="&#x161;" horiz-adv-x="421" 
d="M347 667l-137 -82l-137 82l39 61l98 -66l99 66zM42 14l17 78q77 -24 133 -24q42 0 67.5 19.5t25.5 49.5q0 31 -24 51.5t-58 34t-67.5 29.5t-57.5 49.5t-24 82.5q0 63 46.5 103.5t125.5 40.5q66 0 133 -23l-21 -78q-63 20 -112 20q-40 0 -59.5 -17t-19.5 -46
q0 -28 24 -47.5t57.5 -32.5t67.5 -29.5t58 -50.5t24 -85q0 -62 -48.5 -107t-137.5 -45q-75 0 -150 27z" />
    <glyph glyph-name="Tcommaaccent" unicode="&#x162;" horiz-adv-x="521" 
d="M213 0v592h-181v84h457v-84h-182v-592h-94zM252 -224h-63l29 160h87z" />
    <glyph glyph-name="tcommaaccent" unicode="&#x163;" horiz-adv-x="309" 
d="M99 0v449h-66l-21 66h87v147l91 19v-166h101v-66h-101v-449h-91zM134 -224h-64l30 160h87z" />
    <glyph glyph-name="Tcaron" unicode="&#x164;" horiz-adv-x="521" 
d="M397 813l-137 -82l-137 82l39 61l98 -66l99 66zM213 0v592h-181v84h457v-84h-182v-592h-94z" />
    <glyph glyph-name="tcaron" unicode="&#x165;" horiz-adv-x="306" 
d="M325 571h-62v181l87 11zM188 0h-89v446h-65l-21 69h86v147l89 19v-166h99v-69h-99v-446z" />
    <glyph glyph-name="Tbar" unicode="&#x166;" horiz-adv-x="521" 
d="M307 0h-94v320h-99v67h99v205h-181v84h457v-84h-182v-205h103v-67h-103v-320z" />
    <glyph glyph-name="tbar" unicode="&#x167;" horiz-adv-x="309" 
d="M190 0h-91v250h-66v66h66v133h-66l-21 66h87v147l91 19v-166h101v-66h-101v-133h100v-66h-100v-250z" />
    <glyph glyph-name="Utilde" unicode="&#x168;" horiz-adv-x="631" 
d="M420 845l39 -43q-9 -22 -31.5 -40t-54.5 -18q-27 0 -64 23.5t-52 23.5q-25 0 -47 -29l-39 43q9 22 31.5 40t54.5 18q27 0 64 -23.5t52 -23.5q25 0 47 29zM78 217v459h95v-453q0 -67 40 -109.5t104 -42.5q63 0 102.5 42.5t39.5 109.5v453h94v-459q0 -100 -68.5 -165
t-167.5 -65q-101 0 -170 65t-69 165z" />
    <glyph glyph-name="utilde" unicode="&#x169;" horiz-adv-x="543" 
d="M376 699l39 -43q-9 -22 -31.5 -40t-53.5 -18q-28 0 -64.5 23.5t-51.5 23.5q-27 0 -47 -29l-39 43q10 22 32 40t54 18q28 0 64 -23.5t52 -23.5q26 0 46 29zM73 196v319h92v-314q0 -65 29 -99t77 -34q49 0 78 34t29 99v314h92v-319q0 -98 -56.5 -153.5t-142.5 -55.5
t-142 55t-56 154z" />
    <glyph glyph-name="Umacron" unicode="&#x16a;" horiz-adv-x="631" 
d="M442 771h-253v71h253v-71zM78 217v459h95v-453q0 -67 40 -109.5t104 -42.5q63 0 102.5 42.5t39.5 109.5v453h94v-459q0 -100 -68.5 -165t-167.5 -65q-101 0 -170 65t-69 165z" />
    <glyph glyph-name="umacron" unicode="&#x16b;" horiz-adv-x="543" 
d="M398 625h-254v71h254v-71zM73 196v319h92v-314q0 -65 29 -99t77 -34q49 0 78 34t29 99v314h92v-319q0 -98 -56.5 -153.5t-142.5 -55.5t-142 55t-56 154z" />
    <glyph glyph-name="Ubreve" unicode="&#x16c;" horiz-adv-x="631" 
d="M367 867h68q0 -54 -34.5 -89.5t-85.5 -35.5t-85 35.5t-35 89.5h69q0 -26 14.5 -43t36.5 -17t37 17.5t15 42.5zM78 217v459h95v-453q0 -67 40 -109.5t104 -42.5q63 0 102.5 42.5t39.5 109.5v453h94v-459q0 -100 -68.5 -165t-167.5 -65q-101 0 -170 65t-69 165z" />
    <glyph glyph-name="ubreve" unicode="&#x16d;" horiz-adv-x="543" 
d="M322 721h69q-1 -54 -35 -89.5t-85 -35.5t-85.5 35.5t-34.5 89.5h68q1 -26 15.5 -43t36.5 -17t36.5 17t14.5 43zM73 196v319h92v-314q0 -65 29 -99t77 -34q49 0 78 34t29 99v314h92v-319q0 -98 -56.5 -153.5t-142.5 -55.5t-142 55t-56 154z" />
    <glyph glyph-name="Uring" unicode="&#x16e;" horiz-adv-x="631" 
d="M317 730q-38 0 -65.5 27t-27.5 65q0 37 27.5 63.5t65.5 26.5q37 0 63.5 -26.5t26.5 -63.5q0 -38 -26.5 -65t-63.5 -27zM317 787q13 0 23 10.5t10 24.5t-9.5 24t-23.5 10t-24 -10t-10 -24t10 -24.5t24 -10.5zM78 217v459h95v-453q0 -67 40 -109.5t104 -42.5
q63 0 102.5 42.5t39.5 109.5v453h94v-459q0 -100 -68.5 -165t-167.5 -65q-101 0 -170 65t-69 165z" />
    <glyph glyph-name="uring" unicode="&#x16f;" horiz-adv-x="543" 
d="M272 584q-38 0 -65 27t-27 65q0 37 27 63.5t65 26.5q37 0 64 -26.5t27 -63.5t-27 -64.5t-64 -27.5zM272 641q14 0 24 10.5t10 24.5t-10 24t-24 10t-23.5 -10t-9.5 -24t9.5 -24.5t23.5 -10.5zM73 196v319h92v-314q0 -65 29 -99t77 -34q49 0 78 34t29 99v314h92v-319
q0 -98 -56.5 -153.5t-142.5 -55.5t-142 55t-56 154z" />
    <glyph glyph-name="Uhungarumlaut" unicode="&#x170;" horiz-adv-x="631" 
d="M564 820l-166 -96l-35 58l160 105zM354 819l-166 -95l-35 57l160 106zM78 217v459h95v-453q0 -67 40 -109.5t104 -42.5q63 0 102.5 42.5t39.5 109.5v453h94v-459q0 -100 -68.5 -165t-167.5 -65q-101 0 -170 65t-69 165z" />
    <glyph glyph-name="uhungarumlaut" unicode="&#x171;" horiz-adv-x="543" 
d="M517 674l-166 -96l-35 58l160 105zM307 673l-166 -95l-35 57l160 106zM73 196v319h92v-314q0 -65 29 -99t77 -34q49 0 78 34t29 99v314h92v-319q0 -98 -56.5 -153.5t-142.5 -55.5t-142 55t-56 154z" />
    <glyph glyph-name="Uogonek" unicode="&#x172;" horiz-adv-x="631" 
d="M358 -152l13 -62q-26 -9 -54 -9q-49 0 -76.5 25.5t-27.5 68.5q0 65 65 119q-87 12 -143.5 74t-56.5 153v459h95v-453q0 -67 40 -109.5t104 -42.5q63 0 102.5 42.5t39.5 109.5v453h94v-459q0 -89 -55.5 -151t-139.5 -75q-73 -58 -73 -112q0 -37 37 -37q23 0 36 6z" />
    <glyph glyph-name="uogonek" unicode="&#x173;" horiz-adv-x="543" 
d="M318 -152l12 -62q-26 -9 -53 -9q-49 0 -77 25.5t-28 68.5q0 66 64 119q-73 10 -118 64t-45 142v319h92v-314q0 -65 29 -99t77 -34q49 0 78 34t29 99v314h92v-319q0 -83 -41.5 -136t-108.5 -67q-76 -61 -76 -114q0 -37 38 -37q22 0 36 6z" />
    <glyph glyph-name="Wcircumflex" unicode="&#x174;" horiz-adv-x="825" 
d="M510 732l-98 66l-99 -66l-38 62l137 81l137 -81zM161 0l-119 676h95l74 -455q6 -38 12 -112q17 75 28 112l107 349h108l108 -349q17 -55 28 -111q5 71 12 111l74 455h95l-119 -676h-108l-121 388q-13 45 -23 90q-10 -51 -22 -90l-121 -388h-108z" />
    <glyph glyph-name="wcircumflex" unicode="&#x175;" horiz-adv-x="780" 
d="M488 586l-98 66l-99 -66l-38 62l137 81l137 -81zM74 173l-24 342h91l23 -336q3 -50 27 -80t64 -30t64.5 31t24.5 80v298h90v-298q0 -49 25 -80t65 -31t64 30t27 80l23 336h92l-25 -343q-7 -86 -55.5 -135.5t-125.5 -49.5q-87 0 -135 73q-46 -73 -135 -73q-76 0 -124.5 50
t-55.5 136z" />
    <glyph glyph-name="Ycircumflex" unicode="&#x176;" horiz-adv-x="561" 
d="M379 732l-99 66l-98 -66l-39 62l137 81l137 -81zM233 0v259l-208 417h100l155 -321l156 321h100l-208 -417v-259h-95z" />
    <glyph glyph-name="ycircumflex" unicode="&#x177;" horiz-adv-x="489" 
d="M342 586l-98 66l-99 -66l-38 62l136 81l137 -81zM77 180l-47 335h92l46 -326q7 -52 29 -79.5t64 -27.5h51l54 433h92l-94 -726h-91l28 211h-42q-157 0 -182 180z" />
    <glyph glyph-name="Ydieresis" unicode="&#x178;" horiz-adv-x="561" 
d="M425 803q0 -21 -15.5 -36t-37.5 -15q-21 0 -36.5 15t-15.5 36q0 22 15.5 37.5t36.5 15.5q22 0 37.5 -15.5t15.5 -37.5zM240 803q0 -21 -15.5 -36t-37.5 -15q-21 0 -36.5 15t-15.5 36q0 22 15.5 37.5t36.5 15.5q22 0 37.5 -15.5t15.5 -37.5zM233 0v259l-208 417h100
l155 -321l156 321h100l-208 -417v-259h-95z" />
    <glyph glyph-name="Zacute" unicode="&#x179;" horiz-adv-x="549" 
d="M385 804l-203 -74l-25 61l198 86zM47 0v70l318 526h-313v80h430v-68l-320 -527h341l-11 -81h-445z" />
    <glyph glyph-name="zacute" unicode="&#x17a;" horiz-adv-x="473" 
d="M350 658l-203 -74l-25 61l198 86zM408 0h-353v72l245 364h-238v79h344v-72l-241 -364h253z" />
    <glyph glyph-name="Zdotaccent" unicode="&#x17b;" horiz-adv-x="549" 
d="M326 803q0 -21 -15.5 -36t-37.5 -15q-21 0 -36.5 15t-15.5 36t15.5 37t36.5 16q22 0 37.5 -15.5t15.5 -37.5zM47 0v70l318 526h-313v80h430v-68l-320 -527h341l-11 -81h-445z" />
    <glyph glyph-name="zdotaccent" unicode="&#x17c;" horiz-adv-x="473" 
d="M289 657q0 -21 -15.5 -36t-37.5 -15q-21 0 -36.5 15t-15.5 36q0 22 15.5 37.5t36.5 15.5q22 0 37.5 -15.5t15.5 -37.5zM408 0h-353v72l245 364h-238v79h344v-72l-241 -364h253z" />
    <glyph glyph-name="Zcaron" unicode="&#x17d;" horiz-adv-x="549" 
d="M411 813l-137 -82l-137 82l39 61l98 -66l99 66zM47 0v70l318 526h-313v80h430v-68l-320 -527h341l-11 -81h-445z" />
    <glyph glyph-name="zcaron" unicode="&#x17e;" horiz-adv-x="473" 
d="M373 667l-137 -82l-137 82l39 61l98 -66l99 66zM408 0h-353v72l245 364h-238v79h344v-72l-241 -364h253z" />
    <glyph glyph-name="florin" unicode="&#x192;" horiz-adv-x="483" 
d="M132 -61l63 447h-89v67h99l19 136q11 73 58 112t110 39q46 0 82 -14l-22 -77q-36 9 -60 9q-32 0 -54.5 -19.5t-27.5 -56.5l-19 -129h129l-20 -67h-118l-64 -454q-11 -73 -58 -112t-110 -39q-46 0 -82 14l22 77q36 -9 60 -9q32 0 54.5 19.5t27.5 56.5z" />
    <glyph glyph-name="Scommaaccent" unicode="&#x218;" horiz-adv-x="505" 
d="M45 24l17 82q98 -35 181 -35q51 0 85.5 28t34.5 78q0 38 -22.5 66t-56.5 43.5t-73 35t-73 40t-56.5 59.5t-22.5 91q0 79 59 128t151 49q81 0 175 -35l-24 -79q-85 30 -151 30q-54 0 -83.5 -24t-29.5 -67q0 -35 22.5 -61.5t56.5 -41t73 -34t73 -41t56.5 -62.5t22.5 -96
q0 -90 -62.5 -140.5t-154.5 -50.5q-91 0 -198 37zM252 -224h-64l30 160h87z" />
    <glyph glyph-name="scommaaccent" unicode="&#x219;" horiz-adv-x="421" 
d="M42 14l17 78q77 -24 133 -24q42 0 67.5 19.5t25.5 49.5q0 31 -24 51.5t-58 34t-67.5 29.5t-57.5 49.5t-24 82.5q0 63 46.5 103.5t125.5 40.5q66 0 133 -23l-21 -78q-63 20 -112 20q-40 0 -59.5 -17t-19.5 -46q0 -28 24 -47.5t57.5 -32.5t67.5 -29.5t58 -50.5t24 -85
q0 -62 -48.5 -107t-137.5 -45q-75 0 -150 27zM204 -224h-64l30 160h87z" />
    <glyph glyph-name="circumflex" unicode="&#x2c6;" horiz-adv-x="467" 
d="M332 586l-98 66l-99 -66l-38 62l136 81l137 -81z" />
    <glyph glyph-name="caron" unicode="&#x2c7;" horiz-adv-x="467" 
d="M370 667l-136 -82l-137 82l38 61l98 -66l99 66z" />
    <glyph glyph-name="breve" unicode="&#x2d8;" horiz-adv-x="407" 
d="M255 721h69q-1 -54 -35 -89.5t-85 -35.5t-85.5 35.5t-34.5 89.5h68q0 -25 15 -42.5t37 -17.5q21 0 36 17.5t15 42.5z" />
    <glyph glyph-name="dotaccent" unicode="&#x2d9;" horiz-adv-x="266" 
d="M185 657q0 -21 -15.5 -36t-37.5 -15q-21 0 -36.5 15t-15.5 36t16 37t36 16q22 0 37.5 -15.5t15.5 -37.5z" />
    <glyph glyph-name="ring" unicode="&#x2da;" horiz-adv-x="343" 
d="M173 584q-38 0 -65.5 27t-27.5 65q0 37 27.5 63.5t65.5 26.5q37 0 63.5 -26.5t26.5 -63.5q0 -38 -26.5 -65t-63.5 -27zM173 641q13 0 23 10.5t10 24.5t-9.5 24t-23.5 10t-24 -10t-10 -24t10 -24.5t24 -10.5z" />
    <glyph glyph-name="ogonek" unicode="&#x2db;" horiz-adv-x="313" 
d="M221 -152l12 -62q-26 -9 -53 -9q-49 0 -77 25.5t-28 68.5q0 72 78 129h80q-86 -65 -86 -121q0 -37 38 -37q22 0 36 6z" />
    <glyph glyph-name="tilde" unicode="&#x2dc;" horiz-adv-x="449" 
d="M330 699l39 -43q-9 -22 -31.5 -40t-54.5 -18q-27 0 -64 23.5t-52 23.5q-25 0 -47 -29l-39 43q9 22 31.5 40t54.5 18q27 0 64 -23.5t52 -23.5q25 0 47 29z" />
    <glyph glyph-name="hungarumlaut" unicode="&#x2dd;" horiz-adv-x="576" 
d="M494 674l-166 -96l-35 58l160 105zM284 673l-166 -95l-35 57l160 106z" />
    <glyph glyph-name="Omega" unicode="&#x3a9;" horiz-adv-x="697" 
d="M639 0h-219v203q61 23 95.5 75t34.5 106v53q0 34 -12.5 68t-36 65t-63.5 50t-90 19q-97 0 -149 -63t-52 -139v-53q0 -55 34.5 -107t96.5 -75v-202h-220v74h135v72q-65 36 -100 97t-35 135v64q0 118 78.5 197.5t211.5 79.5q132 0 211.5 -81.5t79.5 -195.5v-64
q0 -75 -35 -136.5t-99 -97.5v-70h134v-74z" />
    <glyph glyph-name="pi" unicode="&#x3c0;" horiz-adv-x="734" 
d="M585 0h-89v434h-259v-434h-88v434h-82v81h600v-81h-82v-434z" />
    <glyph glyph-name="afii10023" unicode="&#x401;" horiz-adv-x="526" 
d="M416 802q0 -21 -15.5 -36t-37.5 -15q-21 0 -36.5 15t-15.5 36q0 22 15.5 37.5t36.5 15.5q22 0 37.5 -15.5t15.5 -37.5zM231 802q0 -21 -15.5 -36t-37.5 -15q-21 0 -36.5 15t-15.5 36q0 22 15.5 37.5t36.5 15.5q22 0 37.5 -15.5t15.5 -37.5zM83 0v676h370v-84h-275v-211
h234l-6 -81h-228v-216h284v-84h-379z" />
    <glyph glyph-name="afii10051" unicode="&#x402;" horiz-adv-x="711" 
d="M483 -12q-53 0 -98 10v82q34 -8 66 -8q53 0 84 25t31 77v44q0 49 -30.5 76.5t-77.5 27.5q-73 0 -151 -36v-286h-95v591h-181v85h457v-85h-181v-221q95 36 176 36q76 0 127 -46.5t51 -136.5v-54q0 -90 -51 -135.5t-127 -45.5z" />
    <glyph glyph-name="afii10052" unicode="&#x403;" horiz-adv-x="465" 
d="M382 803l-203 -74l-25 61l198 86zM83 0v676h357v-84h-262v-592h-95z" />
    <glyph glyph-name="afii10053" unicode="&#x404;" horiz-adv-x="556" 
d="M325 -13q-117 0 -189 69.5t-72 201.5v159q0 133 72 202.5t189 69.5q86 0 193 -32l-19 -81q-97 29 -173 29q-85 0 -126 -53.5t-41 -166.5h239l-8 -82h-231v-38q0 -195 167 -195q80 0 173 28l19 -81q-103 -30 -193 -30z" />
    <glyph glyph-name="afii10054" unicode="&#x405;" horiz-adv-x="505" 
d="M45 24l17 82q98 -35 181 -35q51 0 85.5 28t34.5 78q0 38 -22.5 66t-56.5 43.5t-73 35t-73 40t-56.5 59.5t-22.5 91q0 79 59 128t151 49q81 0 175 -35l-24 -79q-85 30 -151 30q-54 0 -83.5 -24t-29.5 -67q0 -35 22.5 -61.5t56.5 -41t73 -34t73 -41t56.5 -62.5t22.5 -96
q0 -90 -62.5 -140.5t-154.5 -50.5q-91 0 -198 37z" />
    <glyph glyph-name="afii10055" unicode="&#x406;" horiz-adv-x="261" 
d="M83 0v676h95v-676h-95z" />
    <glyph glyph-name="afii10056" unicode="&#x407;" horiz-adv-x="261" 
d="M277 802q0 -21 -15.5 -36t-37.5 -15q-21 0 -36.5 15t-15.5 36q0 22 15.5 37.5t36.5 15.5q22 0 37.5 -15.5t15.5 -37.5zM92 802q0 -21 -15.5 -36t-37.5 -15q-21 0 -36.5 15t-15.5 36q0 22 15.5 37.5t36.5 15.5q22 0 37.5 -15.5t15.5 -37.5zM83 0v676h95v-676h-95z" />
    <glyph glyph-name="afii10057" unicode="&#x408;" horiz-adv-x="476" 
d="M28 18l22 79q75 -26 138 -26q61 0 90.5 40.5t29.5 109.5v455l95 -7v-451q0 -108 -56 -169.5t-155 -61.5q-76 0 -164 31z" />
    <glyph glyph-name="afii10058" unicode="&#x409;" horiz-adv-x="959" 
d="M16 -9l-3 89q33 5 52 12t42 27.5t35.5 59t24.5 102t17 162t5 233.5h394v-274h140q91 0 147.5 -58t56.5 -143t-56.5 -143t-147.5 -58h-235v593h-207q0 -113 -6 -199.5t-15.5 -149t-28 -106.5t-37.5 -71t-49 -43t-58.5 -22.5t-70.5 -10.5zM583 83h138q52 0 80.5 32t28.5 86
t-28.5 86t-80.5 32h-138v-236z" />
    <glyph glyph-name="afii10059" unicode="&#x40a;" horiz-adv-x="928" 
d="M83 0v676h95v-281h279v281h95v-281h140q91 0 147.5 -56.5t56.5 -140.5q0 -86 -56 -142t-148 -56h-235v312h-279v-312h-95zM552 83h138q52 0 80.5 30.5t28.5 84.5t-28.5 84t-80.5 30h-138v-229z" />
    <glyph glyph-name="afii10060" unicode="&#x40b;" horiz-adv-x="718" 
d="M213 0v592h-181v84h457v-84h-181v-222q87 36 175 36q76 0 124 -45.5t48 -136.5v-224h-95v218q0 52 -27 78t-75 26q-76 0 -150 -35v-287h-95z" />
    <glyph glyph-name="afii10061" unicode="&#x40c;" horiz-adv-x="592" 
d="M429 803l-203 -74l-25 61l198 86zM83 0v676h95v-309l137 49q34 12 52 33t27 56l46 171h93l-50 -189q-14 -53 -37.5 -85t-64.5 -48l183 -354h-107l-162 321l-117 -44v-277h-95z" />
    <glyph glyph-name="afii10062" unicode="&#x40e;" horiz-adv-x="569" 
d="M291 806q23 0 38 16.5t20 43.5l69 -11q-7 -52 -41.5 -83.5t-85.5 -31.5t-85.5 31.5t-40.5 83.5l68 11q5 -27 20 -43.5t38 -16.5zM150 0l-10 82h112q38 0 57 19t27 64l10 61h-71q-153 0 -183 180l-45 270h95l44 -261q9 -53 29.5 -80t62.5 -27h83l66 368h95l-94 -522
q-14 -75 -50.5 -114.5t-107.5 -39.5h-120z" />
    <glyph glyph-name="afii10145" unicode="&#x40f;" horiz-adv-x="635" 
d="M276 -147v147h-193v676h95v-593h279v593h95v-676h-186v-131z" />
    <glyph glyph-name="afii10017" unicode="&#x410;" horiz-adv-x="599" 
d="M30 0l215 676h109l215 -676h-97l-56 182h-234l-56 -182h-96zM206 262h186l-64 209q-5 14 -29 107q-11 -52 -28 -107z" />
    <glyph glyph-name="afii10018" unicode="&#x411;" horiz-adv-x="564" 
d="M83 0v676h384v-83h-289v-192h140q91 0 148 -58t57 -142q0 -85 -57 -143t-148 -58h-235zM178 83h139q51 0 80 32t29 86t-29 85.5t-80 31.5h-139v-235z" />
    <glyph glyph-name="afii10019" unicode="&#x412;" horiz-adv-x="569" 
d="M287 0h-204v676h207q98 0 155 -50t57 -128q0 -96 -88 -142q57 -22 85 -65t28 -96q0 -78 -62.5 -136.5t-177.5 -58.5zM178 387h102q59 0 92.5 28t33.5 75q0 48 -30.5 75t-88.5 27h-109v-205zM178 84h108q70 0 107.5 30t37.5 81q0 52 -34 82t-103 30h-116v-223z" />
    <glyph glyph-name="afii10020" unicode="&#x413;" horiz-adv-x="465" 
d="M83 0v676h357v-84h-262v-592h-95z" />
    <glyph glyph-name="afii10021" unicode="&#x414;" horiz-adv-x="686" 
d="M10 -147v230h70q53 80 86 247.5t34 345.5h383v-593h82v-214l-89 -16v147h-477v-131zM186 83h302v510h-200q-6 -175 -35 -307t-67 -203z" />
    <glyph glyph-name="afii10022" unicode="&#x415;" horiz-adv-x="526" 
d="M83 0v676h370v-84h-275v-211h234l-6 -81h-228v-216h284v-84h-379z" />
    <glyph glyph-name="afii10024" unicode="&#x416;" horiz-adv-x="852" 
d="M28 0l162 351q-41 21 -60.5 49t-30.5 81l-44 195h93l39 -177q8 -36 27 -57.5t59 -36.5l106 -38v309h94v-309l106 38q39 14 58.5 36t27.5 58l39 177h93l-44 -195q-12 -53 -31.5 -81.5t-60.5 -48.5l163 -351h-106l-144 315l-101 -38v-277h-94v277l-102 38l-143 -315h-106z
" />
    <glyph glyph-name="afii10025" unicode="&#x417;" horiz-adv-x="522" 
d="M240 -13q-101 0 -197 36l18 82q101 -35 172 -35q62 0 101.5 33.5t39.5 87.5q0 115 -130 115h-66l-6 81h58q59 0 94 34.5t35 85.5q0 43 -34 71t-90 28q-61 0 -153 -32l-23 78q95 37 194 37q94 0 148.5 -49.5t54.5 -129.5q0 -47 -25 -89.5t-67 -63.5q106 -38 106 -163
q0 -94 -64.5 -150.5t-165.5 -56.5z" />
    <glyph glyph-name="afii10026" unicode="&#x418;" horiz-adv-x="644" 
d="M83 0v676h95v-401q0 -61 -2 -97l309 498h76v-676h-95v392q0 51 4 100l-308 -492h-79z" />
    <glyph glyph-name="afii10027" unicode="&#x419;" horiz-adv-x="644" 
d="M323 806q23 0 38 16.5t20 43.5l69 -11q-7 -52 -41.5 -83.5t-85.5 -31.5t-85.5 31.5t-40.5 83.5l68 11q5 -27 20 -43.5t38 -16.5zM83 0v676h95v-401q0 -61 -2 -97l309 498h76v-676h-95v392q0 51 4 100l-308 -492h-79z" />
    <glyph glyph-name="afii10028" unicode="&#x41a;" horiz-adv-x="592" 
d="M83 0v676h95v-309l137 49q34 12 52 33t27 56l46 171h93l-50 -189q-14 -53 -37.5 -85t-64.5 -48l183 -354h-107l-162 321l-117 -44v-277h-95z" />
    <glyph glyph-name="afii10029" unicode="&#x41b;" horiz-adv-x="670" 
d="M20 -9l-3 89q33 5 52 12t42 27.5t35.5 59t24.5 102t17 162t5 233.5h394v-676h-95v593h-208q0 -131 -7 -227t-23 -161t-35.5 -105.5t-52.5 -63.5t-65 -32t-81 -13z" />
    <glyph glyph-name="afii10030" unicode="&#x41c;" horiz-adv-x="815" 
d="M48 0l80 676h111l142 -372q9 -22 26 -87q19 62 28 87l141 372h111l80 -676h-93l-53 456q-5 42 -8 99q-20 -72 -30 -99l-123 -328h-105l-123 328q-17 43 -32 97q-5 -89 -6 -97l-52 -456h-94z" />
    <glyph glyph-name="afii10031" unicode="&#x41d;" horiz-adv-x="634" 
d="M83 0v676h95v-290h279v290h94v-676h-94v303h-279v-303h-95z" />
    <glyph glyph-name="afii10032" unicode="&#x41e;" horiz-adv-x="630" 
d="M64 259v157q0 131 71 202t180 71t180 -71t71 -202v-157q0 -131 -71 -201.5t-180 -70.5t-180 70.5t-71 201.5zM159 264q0 -97 42 -145t114 -48t114.5 48t42.5 145v146q0 98 -42.5 146.5t-114.5 48.5t-114 -48.5t-42 -146.5v-146z" />
    <glyph glyph-name="afii10033" unicode="&#x41f;" horiz-adv-x="635" 
d="M83 0v676h469v-676h-95v593h-279v-593h-95z" />
    <glyph glyph-name="afii10034" unicode="&#x420;" horiz-adv-x="551" 
d="M83 0v676h225q91 0 147.5 -59.5t56.5 -145.5q0 -85 -56.5 -145t-147.5 -60h-130v-266h-95zM178 349h129q51 0 80 34t29 88t-29 87.5t-80 33.5h-129v-243z" />
    <glyph glyph-name="afii10035" unicode="&#x421;" horiz-adv-x="563" 
d="M500 99l18 -82q-103 -30 -192 -30q-118 0 -190 69.5t-72 201.5v160q0 132 72 201.5t190 69.5q91 0 192 -32l-18 -80q-93 28 -173 28q-78 0 -123 -47.5t-45 -145.5v-148q0 -99 44.5 -146t123.5 -47q85 0 173 28z" />
    <glyph glyph-name="afii10036" unicode="&#x422;" horiz-adv-x="521" 
d="M213 0v592h-181v84h457v-84h-182v-592h-94z" />
    <glyph glyph-name="afii10037" unicode="&#x423;" horiz-adv-x="569" 
d="M150 0l-10 82h112q38 0 57 19t27 64l10 61h-71q-153 0 -183 180l-45 270h95l44 -261q9 -53 29.5 -80t62.5 -27h83l66 368h95l-94 -522q-14 -75 -50.5 -114.5t-107.5 -39.5h-120z" />
    <glyph glyph-name="afii10038" unicode="&#x424;" horiz-adv-x="761" 
d="M333 -12v90q-141 4 -215.5 75t-74.5 198t75 196.5t215 73.5v68h95v-68q140 -4 215 -73.5t75 -196.5t-74 -198t-216 -75v-90h-95zM333 161v378q-105 -3 -149.5 -51t-44.5 -136q0 -187 194 -191zM428 161q194 4 194 191q0 81 -45.5 133t-148.5 54v-378z" />
    <glyph glyph-name="afii10039" unicode="&#x425;" horiz-adv-x="582" 
d="M28 0l209 356l-185 320h103l136 -238l139 238h100l-185 -317l209 -359h-105l-158 276l-161 -276h-102z" />
    <glyph glyph-name="afii10040" unicode="&#x426;" horiz-adv-x="655" 
d="M544 -147v147h-461v676h95v-593h279v593h95v-593h81v-214z" />
    <glyph glyph-name="afii10041" unicode="&#x427;" horiz-adv-x="588" 
d="M410 0v306q-89 -36 -176 -36q-75 0 -123 45.5t-48 136.5v224h94v-218q0 -52 27 -78t75 -26q75 0 151 35v287h95v-676h-95z" />
    <glyph glyph-name="afii10042" unicode="&#x428;" horiz-adv-x="912" 
d="M83 0v676h95v-593h230v593h95v-593h231v593h94v-676h-745z" />
    <glyph glyph-name="afii10043" unicode="&#x429;" horiz-adv-x="928" 
d="M821 -147v147h-738v676h95v-593h230v593h95v-593h231v593h94v-593h82v-214z" />
    <glyph glyph-name="afii10044" unicode="&#x42a;" horiz-adv-x="640" 
d="M169 0v593h-141v83h236v-274h140q91 0 148 -58t57 -142q0 -85 -57 -143.5t-148 -58.5h-235zM264 83h139q51 0 80 32t29 86t-29 86t-80 32h-139v-236z" />
    <glyph glyph-name="afii10045" unicode="&#x42b;" horiz-adv-x="778" 
d="M83 0v676h95v-274h137q91 0 147.5 -58t56.5 -143t-56.5 -143t-147.5 -58h-232zM178 83h135q52 0 80.5 32t28.5 86t-28.5 86t-80.5 32h-135v-236zM600 0v676h95v-676h-95z" />
    <glyph glyph-name="afii10046" unicode="&#x42c;" horiz-adv-x="554" 
d="M83 0v676h95v-274h140q91 0 148 -58t57 -143t-57 -143t-148 -58h-235zM178 83h139q51 0 80 32t29 86t-29 86t-80 32h-139v-236z" />
    <glyph glyph-name="afii10047" unicode="&#x42d;" horiz-adv-x="563" 
d="M237 -13q-89 0 -192 30l18 81q93 -28 173 -28q167 0 167 195v38h-231l-8 82h239q0 113 -41 166.5t-126 53.5q-76 0 -173 -29l-18 81q106 32 192 32q117 0 189 -69.5t72 -202.5v-159q0 -132 -72 -201.5t-189 -69.5z" />
    <glyph glyph-name="afii10048" unicode="&#x42e;" horiz-adv-x="841" 
d="M540 -13q-103 0 -169.5 70t-66.5 201v44h-126v-302h-95v676h95v-291h126v30q0 132 66.5 203t169.5 71t169.5 -71t66.5 -203v-157q0 -131 -66.5 -201t-169.5 -70zM540 71q65 0 103 47.5t38 145.5v146q0 98 -38 146t-103 48t-103 -48t-38 -146v-146q0 -98 38 -145.5
t103 -47.5z" />
    <glyph glyph-name="afii10049" unicode="&#x42f;" horiz-adv-x="563" 
d="M45 0l131 279q-60 19 -95 72t-35 120q0 86 56.5 145.5t146.5 59.5h231v-676h-95v267h-113l-121 -267h-106zM252 349h133v243h-133q-51 0 -80.5 -33.5t-29.5 -87.5t29.5 -88t80.5 -34z" />
    <glyph glyph-name="afii10065" unicode="&#x430;" horiz-adv-x="489" 
d="M221 -13q-80 0 -128 43t-48 123q0 75 51.5 116t136.5 41h100v27q0 53 -25.5 81t-73.5 28q-58 0 -136 -23l-19 77q86 28 155 28q88 0 139.5 -51t51.5 -140v-337h-77l-9 34q-45 -47 -118 -47zM236 68q43 0 70 22.5t27 55.5v92h-100q-47 0 -70 -23t-23 -60q0 -41 25 -64
t71 -23z" />
    <glyph glyph-name="afii10066" unicode="&#x431;" horiz-adv-x="546" 
d="M280 -13q-93 0 -150 58t-57 168v235q0 68 15.5 116.5t45.5 77.5t65.5 44.5t84.5 23.5l196 32v-82l-197 -34q-61 -11 -90.5 -48.5t-29.5 -114.5q49 53 139 53q79 0 132 -56.5t53 -164.5v-82q0 -110 -57 -168t-150 -58zM280 68q115 0 115 150v67q0 150 -115 150t-115 -150
v-67q0 -150 115 -150z" />
    <glyph glyph-name="afii10067" unicode="&#x432;" horiz-adv-x="516" 
d="M76 0v515h201q78 0 122 -36t44 -98q0 -74 -68 -110q44 -16 65.5 -49.5t21.5 -74.5q0 -63 -50 -105t-141 -42h-195zM169 77h95q50 0 75.5 20.5t25.5 55.5q0 36 -24 57.5t-73 21.5h-99v-155zM169 304h89q43 0 67.5 19t24.5 53q0 68 -87 68h-94v-140z" />
    <glyph glyph-name="afii10068" unicode="&#x433;" horiz-adv-x="397" 
d="M76 0v515h304v-79h-212v-436h-92z" />
    <glyph glyph-name="afii10069" unicode="&#x434;" horiz-adv-x="570" 
d="M13 -131v210h67l55 256q19 87 62 133.5t124 46.5h157v-436h71v-197l-81 -13v131h-374v-118zM174 79h212v357h-58q-77 0 -100 -110z" />
    <glyph glyph-name="afii10070" unicode="&#x435;" horiz-adv-x="510" 
d="M59 201v117q0 99 56.5 154.5t141.5 55.5q84 0 141.5 -54t57.5 -137v-106h-305v-30q0 -133 120 -133q60 0 139 24l18 -79q-81 -26 -157 -26q-96 0 -154 56t-58 158zM151 303h213v34q0 49 -29.5 79.5t-77.5 30.5t-77 -32t-29 -90v-22z" />
    <glyph glyph-name="afii10072" unicode="&#x436;" horiz-adv-x="732" 
d="M27 0l131 264q-28 14 -44.5 37t-29.5 72l-38 142h91l33 -126q13 -52 50 -63l100 -33v222h92v-222l100 33q36 12 50 63l33 126h91l-38 -142q-13 -49 -29.5 -72t-44.5 -37l131 -264h-100l-111 233l-82 -28v-205h-92v205l-83 28l-110 -233h-100z" />
    <glyph glyph-name="afii10073" unicode="&#x437;" horiz-adv-x="447" 
d="M204 -13q-86 0 -164 30l20 76q78 -26 133 -26q46 0 75 21t29 58q0 80 -91 80h-52l-8 76h50q41 0 66 24t25 58q0 64 -92 64q-46 0 -121 -25l-19 74q81 31 161 31q76 0 120 -38t44 -98q0 -38 -19.5 -70t-50.5 -48q41 -15 61 -50t20 -76q0 -74 -51.5 -117.5t-135.5 -43.5z
" />
    <glyph glyph-name="afii10074" unicode="&#x438;" horiz-adv-x="557" 
d="M78 0v515h92v-268q0 -53 -3 -94l235 362h77v-515h-92v262q0 40 4 96l-234 -358h-79z" />
    <glyph glyph-name="afii10075" unicode="&#x439;" horiz-adv-x="557" 
d="M277 662q46 0 55 58l67 -10q-5 -51 -39 -82t-83 -31t-82.5 31t-38.5 82l66 10q5 -26 19 -42t36 -16zM78 0v515h92v-268q0 -53 -3 -94l235 362h77v-515h-92v262q0 40 4 96l-234 -358h-79z" />
    <glyph glyph-name="afii10076" unicode="&#x43a;" horiz-adv-x="507" 
d="M78 0v515h92v-224l114 38q21 8 32 22t18 40l33 124h91l-39 -141q-14 -50 -30.5 -72t-47.5 -36l139 -266h-100l-118 235l-92 -32v-203h-92z" />
    <glyph glyph-name="afii10077" unicode="&#x43b;" horiz-adv-x="515" 
d="M29 0l69 335q18 87 61.5 133.5t123.5 46.5h153v-515h-92v436h-53q-42 0 -65.5 -28t-34.5 -82l-68 -326h-94z" />
    <glyph glyph-name="afii10078" unicode="&#x43c;" horiz-adv-x="676" 
d="M45 0l59 515h121l113 -324l113 324h121l59 -515h-92l-45 402l-106 -305h-100l-107 304l-43 -401h-93z" />
    <glyph glyph-name="afii10079" unicode="&#x43d;" horiz-adv-x="549" 
d="M78 0v515h92v-208h209v208h92v-515h-92v227h-209v-227h-92z" />
    <glyph glyph-name="afii10080" unicode="&#x43e;" horiz-adv-x="536" 
d="M59 213v89q0 110 57.5 168t151.5 58t151.5 -58t57.5 -168v-89q0 -110 -57.5 -168t-151.5 -58t-151.5 58t-57.5 168zM151 218q0 -150 117 -150t117 150v79q0 150 -117 150t-117 -150v-79z" />
    <glyph glyph-name="afii10081" unicode="&#x43f;" horiz-adv-x="546" 
d="M78 0v515h390v-515h-92v436h-206v-436h-92z" />
    <glyph glyph-name="afii10082" unicode="&#x440;" horiz-adv-x="545" 
d="M78 -211v726h75l12 -44q46 57 134 57q79 0 133 -57.5t54 -157.5v-110q0 -105 -57 -160.5t-141 -55.5q-59 0 -118 36v-234h-92zM281 68q50 0 81 33.5t31 106.5v100q0 69 -30.5 104t-80.5 35q-49 0 -80.5 -29t-31.5 -86v-228q61 -36 111 -36z" />
    <glyph glyph-name="afii10083" unicode="&#x441;" horiz-adv-x="471" 
d="M59 213v90q0 113 58 169t157 56q69 0 146 -24l-17 -78q-80 21 -125 21q-64 0 -95.5 -35.5t-31.5 -113.5v-81q0 -77 31.5 -113t95.5 -36q55 0 125 20l17 -77q-80 -24 -146 -24q-99 0 -157 56.5t-58 169.5z" />
    <glyph glyph-name="afii10084" unicode="&#x442;" horiz-adv-x="417" 
d="M169 0v436h-147v79h387v-79h-148v-436h-92z" />
    <glyph glyph-name="afii10085" unicode="&#x443;" horiz-adv-x="489" 
d="M77 180l-47 335h92l46 -326q7 -52 29 -79.5t64 -27.5h51l54 433h92l-94 -726h-91l28 211h-42q-157 0 -182 180z" />
    <glyph glyph-name="afii10086" unicode="&#x444;" horiz-adv-x="781" 
d="M344 -211v234q-57 -36 -110 -36q-81 0 -128 54t-47 162v110q0 106 49 160.5t128 54.5q52 0 108 -38v235l93 20v-255q56 38 109 38q78 0 127 -54.5t49 -160.5v-110q0 -107 -47.5 -161.5t-128.5 -54.5q-52 0 -109 36v-234h-93zM247 68q18 0 35 5t28.5 11t33.5 20v308
q-23 14 -33.5 19.5t-28 10.5t-35.5 5q-47 0 -71.5 -32t-24.5 -107v-100q0 -75 24.5 -107.5t71.5 -32.5zM534 68q47 0 71.5 32.5t24.5 107.5v100q0 75 -24.5 107t-71.5 32q-18 0 -35.5 -5t-28 -10.5t-33.5 -19.5v-308q22 -14 33.5 -20t28.5 -11t35 -5z" />
    <glyph glyph-name="afii10087" unicode="&#x445;" horiz-adv-x="489" 
d="M22 0l169 267l-155 248h101l107 -175l110 175h99l-155 -246l169 -269h-102l-120 195l-123 -195h-100z" />
    <glyph glyph-name="afii10088" unicode="&#x446;" horiz-adv-x="559" 
d="M457 -132v132h-379v515h92v-436h206v436h92v-436h70v-198z" />
    <glyph glyph-name="afii10089" unicode="&#x447;" horiz-adv-x="509" 
d="M339 0v222q-69 -28 -146 -28q-59 0 -97.5 35.5t-38.5 103.5v182h90v-162q0 -79 77 -79q55 0 115 27v214h92v-515h-92z" />
    <glyph glyph-name="afii10090" unicode="&#x448;" horiz-adv-x="786" 
d="M78 0v515h92v-436h177v436h92v-436h177v436h92v-515h-630z" />
    <glyph glyph-name="afii10091" unicode="&#x449;" horiz-adv-x="800" 
d="M698 -132v132h-620v515h92v-436h177v436h92v-436h177v436h92v-436h71v-198z" />
    <glyph glyph-name="afii10092" unicode="&#x44a;" horiz-adv-x="556" 
d="M136 0v439h-116v76h208v-201h123q74 0 120 -43t46 -113t-46.5 -114t-120.5 -44h-214zM228 77h119q37 0 56.5 22t19.5 58t-19 58.5t-56 22.5h-120v-161z" />
    <glyph glyph-name="afii10093" unicode="&#x44b;" horiz-adv-x="696" 
d="M78 0v515h92v-201h123q74 0 120 -43t46 -113t-46.5 -114t-120.5 -44h-214zM170 77h120q37 0 56 22t19 58t-18.5 58.5t-55.5 22.5h-121v-161zM526 0v515h92v-515h-92z" />
    <glyph glyph-name="afii10094" unicode="&#x44c;" horiz-adv-x="498" 
d="M78 0v515h92v-201h123q74 0 120 -43t46 -113t-46.5 -114t-120.5 -44h-214zM170 77h120q37 0 56 22t19 58t-18.5 58.5t-55.5 22.5h-121v-161z" />
    <glyph glyph-name="afii10095" unicode="&#x44d;" horiz-adv-x="468" 
d="M194 -13q-66 0 -146 24l17 76q70 -20 125 -20q66 0 96 37.5t31 123.5h-167l-6 78h172q-3 142 -126 142q-49 0 -125 -20l-17 76q77 24 146 24q99 0 157 -56t58 -169v-90q0 -113 -58 -169.5t-157 -56.5z" />
    <glyph glyph-name="afii10096" unicode="&#x44e;" horiz-adv-x="730" 
d="M468 -13q-90 0 -145 57.5t-56 166.5v16h-97v-227h-92v515h92v-208h97q2 109 57 165t144 56q92 0 147.5 -58t55.5 -168v-89q0 -110 -55.5 -168t-147.5 -58zM468 68q111 0 111 150v79q0 150 -111 150q-110 0 -110 -150v-79q0 -150 110 -150z" />
    <glyph glyph-name="afii10097" unicode="&#x44f;" horiz-adv-x="497" 
d="M44 0l100 211q-45 14 -71.5 53.5t-26.5 91.5q0 71 46.5 115t120.5 44h207v-515h-92v199h-93l-87 -199h-104zM215 271h113v168h-112q-37 0 -57 -23.5t-20 -59.5q0 -37 19.5 -61t56.5 -24z" />
    <glyph glyph-name="afii10071" unicode="&#x451;" horiz-adv-x="510" 
d="M402 657q0 -21 -15.5 -36t-37.5 -15q-21 0 -36.5 15t-15.5 36q0 22 15.5 37.5t36.5 15.5q22 0 37.5 -15.5t15.5 -37.5zM217 657q0 -21 -15.5 -36t-37.5 -15q-21 0 -36.5 15t-15.5 36q0 22 15.5 37.5t36.5 15.5q22 0 37.5 -15.5t15.5 -37.5zM59 201v117q0 99 56.5 154.5
t141.5 55.5q84 0 141.5 -54t57.5 -137v-106h-305v-30q0 -133 120 -133q60 0 139 24l18 -79q-81 -26 -157 -26q-96 0 -154 56t-58 158zM151 303h213v34q0 49 -29.5 79.5t-77.5 30.5t-77 -32t-29 -90v-22z" />
    <glyph glyph-name="afii10099" unicode="&#x452;" horiz-adv-x="549" 
d="M384 -222v539q0 71 -26.5 100.5t-76.5 29.5q-51 0 -111 -35v-412h-92v603h-40v66h40v63h92v-63h106v-66h-106v-111q59 36 118 36q84 0 136 -50t52 -155v-525z" />
    <glyph glyph-name="afii10100" unicode="&#x453;" horiz-adv-x="397" 
d="M345 658l-203 -74l-25 61l198 86zM76 0v515h304v-79h-212v-436h-92z" />
    <glyph glyph-name="afii10101" unicode="&#x454;" horiz-adv-x="468" 
d="M274 -13q-99 0 -157 56.5t-58 169.5v90q0 113 58 169t157 56q69 0 146 -24l-17 -76q-76 20 -125 20q-123 0 -126 -142h172l-6 -78h-167q1 -86 31 -123.5t96 -37.5q55 0 125 20l17 -76q-80 -24 -146 -24z" />
    <glyph glyph-name="afii10102" unicode="&#x455;" horiz-adv-x="421" 
d="M42 14l17 78q77 -24 133 -24q42 0 67.5 19.5t25.5 49.5q0 31 -24 51.5t-58 34t-67.5 29.5t-57.5 49.5t-24 82.5q0 63 46.5 103.5t125.5 40.5q66 0 133 -23l-21 -78q-63 20 -112 20q-40 0 -59.5 -17t-19.5 -46q0 -28 24 -47.5t57.5 -32.5t67.5 -29.5t58 -50.5t24 -85
q0 -62 -48.5 -107t-137.5 -45q-75 0 -150 27z" />
    <glyph glyph-name="afii10103" unicode="&#x456;" horiz-adv-x="248" 
d="M124 603q-24 0 -41 16.5t-17 40.5q0 23 17 39.5t41 16.5q23 0 40.5 -16.5t17.5 -39.5t-17.5 -40t-40.5 -17zM78 0v515h92v-515h-92z" />
    <glyph glyph-name="afii10104" unicode="&#x457;" horiz-adv-x="249" 
d="M270 657q0 -21 -15.5 -36t-37.5 -15q-21 0 -36.5 15t-15.5 36q0 22 15.5 37.5t36.5 15.5q22 0 37.5 -15.5t15.5 -37.5zM85 657q0 -21 -15.5 -36t-37.5 -15q-21 0 -36.5 15t-15.5 36q0 22 15.5 37.5t36.5 15.5q22 0 37.5 -15.5t15.5 -37.5zM170 0h-92v515h92v-515z" />
    <glyph glyph-name="afii10105" unicode="&#x458;" horiz-adv-x="247" 
d="M123 603q-24 0 -41.5 16.5t-17.5 40.5q0 23 17.5 39.5t41.5 16.5t41.5 -16.5t17.5 -39.5t-18 -40t-41 -17zM78 -222v737h91v-717z" />
    <glyph glyph-name="afii10106" unicode="&#x459;" horiz-adv-x="764" 
d="M29 0l69 335q18 87 61.5 133.5t123.5 46.5h153v-201h123q74 0 120 -43t46 -113t-46.5 -114t-120.5 -44h-214v436h-53q-42 0 -65.5 -28t-34.5 -82l-68 -326h-94zM436 77h120q36 0 55.5 22t19.5 58t-18.5 58.5t-55.5 22.5h-121v-161z" />
    <glyph glyph-name="afii10107" unicode="&#x45a;" horiz-adv-x="799" 
d="M78 0v515h92v-201h209v201h92v-201h122q74 0 120.5 -43t46.5 -113t-46.5 -114t-120.5 -44h-214v234h-209v-234h-92zM471 77h119q37 0 56.5 22t19.5 58t-19 58.5t-56 22.5h-120v-161z" />
    <glyph glyph-name="afii10108" unicode="&#x45b;" horiz-adv-x="549" 
d="M78 0v603h-40v66h40v63h92v-63h106v-66h-106v-111q59 36 118 36q84 0 136 -50t52 -155v-323h-92v317q0 71 -26.5 100.5t-76.5 29.5q-51 0 -111 -35v-412h-92z" />
    <glyph glyph-name="afii10109" unicode="&#x45c;" horiz-adv-x="507" 
d="M386 658l-203 -74l-25 61l198 86zM78 0v515h92v-224l114 38q21 8 32 22t18 40l33 124h91l-39 -141q-14 -50 -30.5 -72t-47.5 -36l139 -266h-100l-118 235l-92 -32v-203h-92z" />
    <glyph glyph-name="afii10110" unicode="&#x45e;" horiz-adv-x="492" 
d="M253 662q46 0 55 58l67 -10q-5 -51 -39 -82t-83 -31t-82.5 31t-38.5 82l66 10q5 -26 19 -42t36 -16zM77 180l-47 335h92l46 -326q7 -52 29 -79.5t64 -27.5h51l54 433h92l-94 -726h-91l28 211h-42q-157 0 -182 180z" />
    <glyph glyph-name="afii10193" unicode="&#x45f;" horiz-adv-x="546" 
d="M237 -132v132h-159v515h92v-436h206v436h92v-515h-150v-119z" />
    <glyph glyph-name="afii10050" unicode="&#x490;" horiz-adv-x="465" 
d="M83 0v676h268v94l89 15v-193h-262v-592h-95z" />
    <glyph glyph-name="afii10098" unicode="&#x491;" horiz-adv-x="397" 
d="M76 0v515h223v88l81 14v-181h-212v-436h-92z" />
    <glyph glyph-name="Wgrave" unicode="&#x1e80;" horiz-adv-x="825" 
d="M501 730l-203 74l30 73l198 -86zM161 0l-119 676h95l74 -455q6 -38 12 -112q17 75 28 112l107 349h108l108 -349q17 -55 28 -111q5 71 12 111l74 455h95l-119 -676h-108l-121 388q-13 45 -23 90q-10 -51 -22 -90l-121 -388h-108z" />
    <glyph glyph-name="wgrave" unicode="&#x1e81;" horiz-adv-x="780" 
d="M479 584l-203 74l30 73l198 -86zM74 173l-24 342h91l23 -336q3 -50 27 -80t64 -30t64.5 31t24.5 80v298h90v-298q0 -49 25 -80t65 -31t64 30t27 80l23 336h92l-25 -343q-7 -86 -55.5 -135.5t-125.5 -49.5q-87 0 -135 73q-46 -73 -135 -73q-76 0 -124.5 50t-55.5 136z" />
    <glyph glyph-name="Wacute" unicode="&#x1e82;" horiz-adv-x="825" 
d="M526 804l-203 -74l-25 61l198 86zM161 0l-119 676h95l74 -455q6 -38 12 -112q17 75 28 112l107 349h108l108 -349q17 -55 28 -111q5 71 12 111l74 455h95l-119 -676h-108l-121 388q-13 45 -23 90q-10 -51 -22 -90l-121 -388h-108z" />
    <glyph glyph-name="wacute" unicode="&#x1e83;" horiz-adv-x="780" 
d="M504 658l-203 -74l-25 61l198 86zM74 173l-24 342h91l23 -336q3 -50 27 -80t64 -30t64.5 31t24.5 80v298h90v-298q0 -49 25 -80t65 -31t64 30t27 80l23 336h92l-25 -343q-7 -86 -55.5 -135.5t-125.5 -49.5q-87 0 -135 73q-46 -73 -135 -73q-76 0 -124.5 50t-55.5 136z
" />
    <glyph glyph-name="Wdieresis" unicode="&#x1e84;" horiz-adv-x="825" 
d="M557 803q0 -21 -15.5 -36t-37.5 -15q-21 0 -36.5 15t-15.5 36t16 37t36 16q22 0 37.5 -15.5t15.5 -37.5zM372 803q0 -21 -15.5 -36t-36.5 -15t-37 15t-16 36q0 22 16 37.5t37 15.5t36.5 -15.5t15.5 -37.5zM161 0l-119 676h95l74 -455q6 -38 12 -112q17 75 28 112l107 349
h108l108 -349q17 -55 28 -111q5 71 12 111l74 455h95l-119 -676h-108l-121 388q-13 45 -23 90q-10 -51 -22 -90l-121 -388h-108z" />
    <glyph glyph-name="wdieresis" unicode="&#x1e85;" horiz-adv-x="780" 
d="M534 657q0 -21 -15.5 -36t-37.5 -15q-21 0 -36.5 15t-15.5 36t15.5 37t36.5 16q22 0 37.5 -15.5t15.5 -37.5zM349 657q0 -21 -15.5 -36t-36.5 -15t-37 15t-16 36q0 22 16 37.5t37 15.5t36.5 -15.5t15.5 -37.5zM74 173l-24 342h91l23 -336q3 -50 27 -80t64 -30t64.5 31
t24.5 80v298h90v-298q0 -49 25 -80t65 -31t64 30t27 80l23 336h92l-25 -343q-7 -86 -55.5 -135.5t-125.5 -49.5q-87 0 -135 73q-46 -73 -135 -73q-76 0 -124.5 50t-55.5 136z" />
    <glyph glyph-name="Ygrave" unicode="&#x1ef2;" horiz-adv-x="561" 
d="M369 730l-203 74l30 73l198 -86zM233 0v259l-208 417h100l155 -321l156 321h100l-208 -417v-259h-95z" />
    <glyph glyph-name="ygrave" unicode="&#x1ef3;" horiz-adv-x="489" 
d="M337 584l-203 74l30 73l198 -86zM77 180l-47 335h92l46 -326q7 -52 29 -79.5t64 -27.5h51l54 433h92l-94 -726h-91l28 211h-42q-157 0 -182 180z" />
    <glyph glyph-name="endash" unicode="&#x2013;" horiz-adv-x="500" 
d="M500 236h-500v80h500v-80z" />
    <glyph glyph-name="emdash" unicode="&#x2014;" horiz-adv-x="1000" 
d="M1000 236h-1000v80h1000v-80z" />
    <glyph glyph-name="quoteleft" unicode="&#x2018;" horiz-adv-x="242" 
d="M156 505h-89l65 227l63 -10z" />
    <glyph glyph-name="quoteright" unicode="&#x2019;" horiz-adv-x="243" 
d="M131 505l-62 10l39 217h89z" />
    <glyph glyph-name="quotesinglbase" unicode="&#x201a;" horiz-adv-x="256" 
d="M121 -127l-63 10l39 217h89z" />
    <glyph glyph-name="quotedblleft" unicode="&#x201c;" horiz-adv-x="391" 
d="M303 505h-89l65 227l63 -10zM155 505h-89l66 227l62 -10z" />
    <glyph glyph-name="quotedblright" unicode="&#x201d;" horiz-adv-x="391" 
d="M276 505l-63 10l40 217h88zM128 505l-62 10l39 217h89z" />
    <glyph glyph-name="quotedblbase" unicode="&#x201e;" horiz-adv-x="400" 
d="M265 -127l-62 10l39 217h89zM121 -127l-63 10l39 217h89z" />
    <glyph glyph-name="dagger" unicode="&#x2020;" horiz-adv-x="441" 
d="M266 0h-89v419h-108v74h108v163h89v-163h108v-74h-108v-419z" />
    <glyph glyph-name="daggerdbl" unicode="&#x2021;" horiz-adv-x="441" 
d="M266 0h-89v176h-108v73h108v157h-108v74h108v176h89v-176h108v-74h-108v-157h108v-73h-108v-176z" />
    <glyph glyph-name="bullet" unicode="&#x2022;" horiz-adv-x="483" 
d="M394 279q0 -63 -45 -107.5t-108 -44.5t-107.5 44.5t-44.5 107.5t44.5 108t107.5 45t108 -45t45 -108z" />
    <glyph glyph-name="ellipsis" unicode="&#x2026;" horiz-adv-x="807" 
d="M681 -11q-25 0 -42 17.5t-17 41.5t17.5 40.5t41.5 16.5t41 -16.5t17 -40.5t-17.5 -41.5t-40.5 -17.5zM403 -11q-23 0 -41 17.5t-18 41.5t17.5 40.5t41.5 16.5t41.5 -16.5t17.5 -40.5t-17.5 -41.5t-41.5 -17.5zM127 -11q-24 0 -41.5 17.5t-17.5 41.5t17.5 40.5t41.5 16.5
t41.5 -16.5t17.5 -40.5t-18 -41.5t-41 -17.5z" />
    <glyph glyph-name="perthousand" unicode="&#x2030;" horiz-adv-x="1250" 
d="M369 533v-69q0 -71 -43 -113t-110 -42t-109.5 42t-42.5 113v69q0 71 43 113.5t109 42.5q67 0 110 -42.5t43 -113.5zM315 0h-79l321 676h78zM296 466v65q0 91 -80 91q-36 0 -57.5 -22.5t-21.5 -68.5v-65q0 -46 21.5 -69t57.5 -23q37 0 58.5 23t21.5 69zM1186 211v-67
q0 -71 -43 -114t-110 -43t-109.5 42.5t-42.5 114.5v67q0 72 42.5 114.5t109.5 42.5t110 -43t43 -114zM814 211v-67q0 -71 -43 -114t-110 -43t-110 42.5t-43 114.5v67q0 72 43 114.5t110 42.5t110 -43t43 -114zM1113 146v63q0 93 -80 93q-79 0 -79 -93v-63q0 -92 79 -92
q80 0 80 92zM740 146v63q0 93 -79 93q-80 0 -80 -93v-63q0 -92 80 -92q36 0 57.5 22.5t21.5 69.5z" />
    <glyph glyph-name="guilsinglleft" unicode="&#x2039;" horiz-adv-x="330" 
d="M267 151l-64 -49l-142 178l142 178l64 -50l-103 -128z" />
    <glyph glyph-name="guilsinglright" unicode="&#x203a;" horiz-adv-x="332" 
d="M127 102l-64 50l103 128l-103 129l64 49l142 -178z" />
    <glyph glyph-name="Euro" unicode="&#x20ac;" horiz-adv-x="529" 
d="M483 87l16 -82q-79 -18 -145 -18q-104 0 -170.5 64.5t-67.5 176.5h-79v63h79v94h-79v63h79q1 112 67.5 176.5t170.5 64.5q66 0 145 -18l-16 -82q-70 17 -128 17q-65 0 -104.5 -42.5t-40.5 -115.5h203l-13 -63h-190v-94h174l-13 -63h-161q1 -73 40.5 -115.5t104.5 -42.5
q58 0 128 17z" />
    <glyph glyph-name="afii61352" unicode="&#x2116;" horiz-adv-x="947" 
d="M83 0v676h76l293 -492q-2 36 -2 98v394h95v-676h-80l-291 485q4 -48 4 -99v-386h-95zM642 130v64h229v-64h-229zM756 231q-59 0 -96.5 37t-37.5 100v60q0 63 37.5 100.5t96.5 37.5t97 -37.5t38 -100.5v-60q0 -63 -38 -100t-97 -37zM756 293q67 0 67 78v54q0 76 -67 76
q-66 0 -66 -76v-54q0 -78 66 -78z" />
    <glyph glyph-name="trademark" unicode="&#x2122;" horiz-adv-x="769" 
d="M686 375h-66l-21 183l-54 -141h-63l-54 141l-22 -183h-65l38 300h71l63 -172l64 172h71zM237 375h-68v241h-86v59h241l-7 -59h-80v-241z" />
    <glyph glyph-name="Delta" unicode="&#x2206;" horiz-adv-x="760" 
d="M722 0h-684l290 705h105zM595 80l-215 524l-215 -524h430z" />
    <glyph glyph-name="product" unicode="&#x220f;" horiz-adv-x="790" 
d="M641 -132h-89v727h-314v-727h-89v727h-81v80h655v-80h-82v-727z" />
    <glyph glyph-name="summation" unicode="&#x2211;" horiz-adv-x="688" 
d="M616 -129h-538v79l272 323l-272 324v78h538v-80h-421l270 -322l-270 -322h421v-80z" />
    <glyph glyph-name="radical" unicode="&#x221a;" horiz-adv-x="605" 
d="M352 0h-103l-149 449h-70l-22 66h166l97 -305q5 -16 29 -105q24 89 29 105l172 522h95z" />
    <glyph glyph-name="integral" unicode="&#x222b;" horiz-adv-x="397" 
d="M155 -63v651q0 72 46 112t111 40q34 0 77 -13l-17 -80q-37 11 -57 11q-32 0 -52 -19t-20 -55v-651q0 -72 -46 -112t-111 -40q-35 0 -78 13l17 79q30 -10 57 -10q32 0 52.5 19t20.5 55z" />
    <glyph glyph-name="approxequal" unicode="&#x2248;" horiz-adv-x="568" 
d="M437 454l57 -51q-58 -83 -125 -83q-34 0 -65.5 20t-58 39.5t-46.5 19.5q-35 0 -68 -47l-57 50q56 83 126 83q33 0 64.5 -19.5t58 -39t46.5 -19.5q35 0 68 47zM437 227l57 -50q-56 -83 -125 -83q-34 0 -65.5 19.5t-58 39t-46.5 19.5q-35 0 -68 -47l-57 51q58 83 126 83
q33 0 64.5 -19.5t58 -39.5t46.5 -20q34 0 68 47z" />
    <glyph glyph-name="notequal" unicode="&#x2260;" horiz-adv-x="564" 
d="M496 137h-224l-45 -124l-72 25l36 99h-123v79h152l46 126h-198v79h227l43 119l71 -26l-34 -93h121v-79h-150l-45 -126h195v-79z" />
    <glyph glyph-name="lessequal" unicode="&#x2264;" horiz-adv-x="519" 
d="M412 52l-344 192v64l344 193l39 -74l-277 -151l277 -151zM443 -66h-374v77h374v-77z" />
    <glyph glyph-name="greaterequal" unicode="&#x2265;" horiz-adv-x="519" 
d="M451 244l-344 -192l-39 73l277 151l-277 151l39 74l344 -193v-64zM450 -66h-374v77h374v-77z" />
    <glyph glyph-name="lozenge" unicode="&#x25ca;" horiz-adv-x="690" 
d="M341 -4l-303 332l303 331l303 -332zM159 328l182 -200l182 199l-182 201z" />
    <glyph glyph-name="apple" unicode="&#xf8ff;" horiz-adv-x="0" 
 />
    <glyph glyph-name="ecircumflex.smcp" horiz-adv-x="475" 
d="M340 636l-99 66l-98 -66l-39 62l137 81l137 -81zM414 0h-336v565h328v-80h-236v-162h200l-5 -76h-195v-167h244v-80z" />
    <glyph glyph-name="edieresis.smcp" horiz-adv-x="475" 
d="M385 707q0 -21 -15.5 -36t-37.5 -15q-21 0 -36.5 15t-15.5 36t16 37t36 16q22 0 37.5 -15.5t15.5 -37.5zM200 707q0 -21 -15.5 -36t-36.5 -15t-37 15t-16 36q0 22 16 37.5t37 15.5t36.5 -15.5t15.5 -37.5zM414 0h-336v565h328v-80h-236v-162h200l-5 -76h-195v-167h244
v-80z" />
    <glyph glyph-name="ecaron.smcp" horiz-adv-x="475" 
d="M376 717l-137 -82l-137 82l38 61l99 -66l98 66zM414 0h-336v565h328v-80h-236v-162h200l-5 -76h-195v-167h244v-80z" />
    <glyph glyph-name="ebreve.smcp" horiz-adv-x="475" 
d="M292 771h69q-1 -54 -35 -89.5t-85 -35.5t-85.5 35.5t-34.5 89.5h68q1 -26 15.5 -43t36.5 -17t36.5 17t14.5 43zM414 0h-336v565h328v-80h-236v-162h200l-5 -76h-195v-167h244v-80z" />
    <glyph glyph-name="eogonek.smcp" horiz-adv-x="475" 
d="M401 -152l13 -62q-26 -9 -53 -9q-50 0 -77.5 25.5t-27.5 68.5q0 72 78 129h-256v565h328v-80h-236v-162h200l-5 -76h-195v-167h244v-80q-86 -65 -86 -121q0 -37 38 -37q22 0 35 6z" />
    <glyph glyph-name="edotaccent.smcp" horiz-adv-x="475" 
d="M297 707q0 -21 -15.5 -36t-37.5 -15q-21 0 -36.5 15t-15.5 36t16 37t36 16q22 0 37.5 -15.5t15.5 -37.5zM414 0h-336v565h328v-80h-236v-162h200l-5 -76h-195v-167h244v-80z" />
    <glyph glyph-name="gbreve.smcp" horiz-adv-x="545" 
d="M327 771h69q-1 -54 -35 -89.5t-85 -35.5t-85.5 35.5t-34.5 89.5h68q0 -25 15 -42.5t37 -17.5q21 0 36 17.5t15 42.5zM394 80v157h-64v69h150v-286q-103 -33 -188 -33q-103 0 -166.5 59t-63.5 171v131q0 112 63.5 171t166.5 59q74 0 174 -30l-19 -76q-84 25 -154 25
q-66 0 -103 -37.5t-37 -116.5v-119q0 -156 140 -156q46 0 101 12z" />
    <glyph glyph-name="gdotaccent.smcp" horiz-adv-x="545" 
d="M331 707q0 -21 -15.5 -36t-37.5 -15q-21 0 -36.5 15t-15.5 36q0 22 15.5 37.5t36.5 15.5q22 0 37.5 -15.5t15.5 -37.5zM394 80v157h-64v69h150v-286q-103 -33 -188 -33q-103 0 -166.5 59t-63.5 171v131q0 112 63.5 171t166.5 59q74 0 174 -30l-19 -76q-84 25 -154 25
q-66 0 -103 -37.5t-37 -116.5v-119q0 -156 140 -156q46 0 101 12z" />
    <glyph glyph-name="gcommaaccent.smcp" horiz-adv-x="545" 
d="M394 80v157h-64v69h150v-286q-103 -33 -188 -33q-103 0 -166.5 59t-63.5 171v131q0 112 63.5 171t166.5 59q74 0 174 -30l-19 -76q-84 25 -154 25q-66 0 -103 -37.5t-37 -116.5v-119q0 -156 140 -156q46 0 101 12zM280 -224h-64l29 160h87z" />
    <glyph glyph-name="hcircumflex.smcp" horiz-adv-x="569" 
d="M383 636l-98 66l-99 -66l-38 62l137 81l137 -81zM491 0h-92v249h-229v-249h-92v565h92v-238h229v238h92v-565z" />
    <glyph glyph-name="hbar.smcp" horiz-adv-x="569" 
d="M491 0h-92v249h-229v-249h-92v405h-35v62h35v98h92v-98h229v98h92v-98h34v-62h-34v-405zM399 327v78h-229v-78h229z" />
    <glyph glyph-name="iacute.smcp" horiz-adv-x="248" 
d="M238 708l-203 -74l-25 61l198 86zM170 0h-92v565h92v-565z" />
    <glyph glyph-name="igrave.smcp" horiz-adv-x="248" 
d="M213 634l-203 74l30 73l198 -86zM170 0h-92v565h92v-565z" />
    <glyph glyph-name="idieresis.smcp" horiz-adv-x="248" 
d="M269 707q0 -21 -15.5 -36t-37.5 -15q-21 0 -36.5 15t-15.5 36t16 37t36 16q22 0 37.5 -15.5t15.5 -37.5zM84 707q0 -21 -15.5 -36t-36.5 -15t-37 15t-16 36q0 22 16 37.5t37 15.5t36.5 -15.5t15.5 -37.5zM170 0h-92v565h92v-565z" />
    <glyph glyph-name="itilde.smcp" horiz-adv-x="248" 
d="M229 749l39 -43q-9 -22 -31.5 -40t-54.5 -18q-28 0 -64 23.5t-52 23.5q-25 0 -47 -29l-39 43q9 22 31.5 40t54.5 18q28 0 64 -23.5t52 -23.5q25 0 47 29zM170 0h-92v565h92v-565z" />
    <glyph glyph-name="imacron.smcp" horiz-adv-x="248" 
d="M251 675h-253v71h253v-71zM170 0h-92v565h92v-565z" />
    <glyph glyph-name="iogonek.smcp" horiz-adv-x="248" 
d="M157 -152l13 -62q-26 -9 -53 -9q-50 0 -77.5 25.5t-27.5 68.5q0 72 78 129h-12v565h92v-565q-86 -65 -86 -121q0 -37 38 -37q22 0 35 6z" />
    <glyph glyph-name="ij.smcp" horiz-adv-x="664" 
d="M502 188v377l92 -6v-374q0 -91 -49.5 -143.5t-137.5 -52.5q-64 0 -145 27l21 75q66 -22 121 -22q98 0 98 119zM170 0h-92v565h92v-565z" />
    <glyph glyph-name="jcircumflex.smcp" horiz-adv-x="432" 
d="M413 636l-99 66l-98 -66l-39 62l137 81l137 -81zM271 186v379l91 -6v-375q0 -91 -49 -144t-137 -53q-63 0 -146 27l22 77q64 -23 120 -23q51 0 75 32t24 86z" />
    <glyph glyph-name="lacute.smcp" horiz-adv-x="457" 
d="M233 708l-203 -74l-24 61l197 86zM413 0h-335v565h92v-485h248z" />
    <glyph glyph-name="lcaron.smcp" horiz-adv-x="457" 
d="M357 384h-62v181l87 11zM413 0h-335v565h92v-485h248z" />
    <glyph glyph-name="lcommaaccent.smcp" horiz-adv-x="457" 
d="M413 0h-335v565h92v-485h248zM240 -224h-63l29 160h87z" />
    <glyph glyph-name="ldot.smcp" horiz-adv-x="457" 
d="M413 0h-335v565h92v-485h248zM377 272q0 -22 -16.5 -37.5t-39.5 -15.5q-22 0 -38.5 15.5t-16.5 37.5q0 24 16.5 40t38.5 16q23 0 39.5 -16t16.5 -40z" />
    <glyph glyph-name="lslash.smcp" horiz-adv-x="457" 
d="M413 0h-335v232l-44 -16l-19 52l63 21v276h92v-243l76 27l20 -51l-96 -34v-184h248z" />
    <glyph glyph-name="nacute.smcp" horiz-adv-x="563" 
d="M394 708l-203 -74l-24 61l197 86zM485 0h-76l-243 383q4 -31 4 -88v-295h-92v565h73l245 -387q-3 46 -3 86v301h92v-565z" />
    <glyph glyph-name="ntilde.smcp" horiz-adv-x="563" 
d="M386 749l39 -43q-9 -22 -31.5 -40t-53.5 -18q-28 0 -64.5 23.5t-51.5 23.5q-27 0 -47 -29l-39 43q10 22 32 40t54 18q28 0 64 -23.5t52 -23.5q26 0 46 29zM485 0h-76l-243 383q4 -31 4 -88v-295h-92v565h73l245 -387q-3 46 -3 86v301h92v-565z" />
    <glyph glyph-name="ncommaaccent.smcp" horiz-adv-x="563" 
d="M485 0h-76l-243 383q4 -31 4 -88v-295h-92v565h73l245 -387q-3 46 -3 86v301h92v-565zM280 -224h-63l29 160h87z" />
    <glyph glyph-name="eng.smcp" horiz-adv-x="563" 
d="M485 -169l-89 -16v206l-230 362q4 -31 4 -88v-295h-92v565h73l245 -387q-3 46 -3 86v301h92v-734z" />
    <glyph glyph-name="oacute.smcp" horiz-adv-x="566" 
d="M390 708l-203 -74l-25 61l198 86zM504 347v-130q0 -111 -62 -170.5t-159 -59.5t-159 59.5t-62 170.5v130q0 111 62.5 171t158.5 60t158.5 -60t62.5 -171zM413 224v117q0 79 -35 117.5t-95 38.5t-95 -38.5t-35 -117.5v-117q0 -80 35 -118t95 -38t95 38t35 118z" />
    <glyph glyph-name="ocircumflex.smcp" horiz-adv-x="566" 
d="M381 636l-98 66l-99 -66l-38 62l137 81l137 -81zM504 347v-130q0 -111 -62 -170.5t-159 -59.5t-159 59.5t-62 170.5v130q0 111 62.5 171t158.5 60t158.5 -60t62.5 -171zM413 224v117q0 79 -35 117.5t-95 38.5t-95 -38.5t-35 -117.5v-117q0 -80 35 -118t95 -38t95 38
t35 118z" />
    <glyph glyph-name="odieresis.smcp" horiz-adv-x="566" 
d="M428 707q0 -21 -15.5 -36t-37.5 -15q-21 0 -36.5 15t-15.5 36q0 22 15.5 37.5t36.5 15.5q22 0 37.5 -15.5t15.5 -37.5zM243 707q0 -21 -15.5 -36t-37.5 -15q-21 0 -36.5 15t-15.5 36q0 22 15.5 37.5t36.5 15.5q22 0 37.5 -15.5t15.5 -37.5zM504 347v-130
q0 -111 -62 -170.5t-159 -59.5t-159 59.5t-62 170.5v130q0 111 62.5 171t158.5 60t158.5 -60t62.5 -171zM413 224v117q0 79 -35 117.5t-95 38.5t-95 -38.5t-35 -117.5v-117q0 -80 35 -118t95 -38t95 38t35 118z" />
    <glyph glyph-name="otilde.smcp" horiz-adv-x="566" 
d="M387 749l39 -43q-9 -22 -31.5 -40t-53.5 -18q-28 0 -64.5 23.5t-51.5 23.5q-27 0 -47 -29l-39 43q10 22 32 40t54 18q28 0 64.5 -23.5t51.5 -23.5q26 0 46 29zM504 347v-130q0 -111 -62 -170.5t-159 -59.5t-159 59.5t-62 170.5v130q0 111 62.5 171t158.5 60t158.5 -60
t62.5 -171zM413 224v117q0 79 -35 117.5t-95 38.5t-95 -38.5t-35 -117.5v-117q0 -80 35 -118t95 -38t95 38t35 118z" />
    <glyph glyph-name="omacron.smcp" horiz-adv-x="566" 
d="M410 675h-254v71h254v-71zM504 347v-130q0 -111 -62 -170.5t-159 -59.5t-159 59.5t-62 170.5v130q0 111 62.5 171t158.5 60t158.5 -60t62.5 -171zM413 224v117q0 79 -35 117.5t-95 38.5t-95 -38.5t-35 -117.5v-117q0 -80 35 -118t95 -38t95 38t35 118z" />
    <glyph glyph-name="ohungarumlaut.smcp" horiz-adv-x="566" 
d="M532 724l-166 -96l-35 58l160 105zM322 723l-166 -95l-35 57l160 106zM504 347v-130q0 -111 -62 -170.5t-159 -59.5t-159 59.5t-62 170.5v130q0 111 62.5 171t158.5 60t158.5 -60t62.5 -171zM413 224v117q0 79 -35 117.5t-95 38.5t-95 -38.5t-35 -117.5v-117
q0 -80 35 -118t95 -38t95 38t35 118z" />
    <glyph glyph-name="oslash.smcp" horiz-adv-x="566" 
d="M148 -54l-59 28l36 71q-63 61 -63 172v130q0 111 62.5 171t158.5 60q52 0 100 -20l30 61l59 -28l-35 -69q67 -62 67 -175v-130q0 -111 -62 -170.5t-159 -59.5q-59 0 -104 22zM171 139l174 344q-25 14 -62 14q-60 0 -95 -38.5t-35 -117.5v-117q0 -51 18 -85zM413 224v117
q0 53 -21 90l-176 -348q28 -15 67 -15q60 0 95 38t35 118z" />
    <glyph glyph-name="oe.smcp" horiz-adv-x="795" 
d="M734 0h-369q-42 -13 -82 -13q-97 0 -159 59.5t-62 170.5v130q0 111 62.5 171t158.5 60q40 0 81 -13h362v-80h-259q37 -55 37 -132v-30h186l-5 -76h-181v-33q0 -79 -37 -134h267v-80zM413 224v117q0 79 -35 117.5t-95 38.5t-95 -38.5t-35 -117.5v-117q0 -80 35 -118
t95 -38t95 38t35 118z" />
    <glyph glyph-name="thorn.smcp" horiz-adv-x="496" 
d="M276 107h-106v-107h-92v565h92v-110h106q81 0 131 -51t50 -124q0 -72 -50 -122.5t-131 -50.5zM170 186h105q41 0 65 26t24 68q0 43 -24 69t-65 26h-105v-189z" />
    <glyph glyph-name="racute.smcp" horiz-adv-x="503" 
d="M365 708l-203 -74l-24 61l197 86zM459 0h-102l-105 223h-82v-223h-92v565h199q80 0 130 -50.5t50 -123.5q0 -52 -28.5 -95t-84.5 -61zM170 297h104q42 0 66 26t24 68t-24.5 68t-65.5 26h-104v-188z" />
    <glyph glyph-name="rcaron.smcp" horiz-adv-x="503" 
d="M388 717l-136 -82l-137 82l38 61l98 -66l99 66zM459 0h-102l-105 223h-82v-223h-92v565h199q80 0 130 -50.5t50 -123.5q0 -52 -28.5 -95t-84.5 -61zM170 297h104q42 0 66 26t24 68t-24.5 68t-65.5 26h-104v-188z" />
    <glyph glyph-name="sacute.smcp" horiz-adv-x="458" 
d="M343 708l-203 -74l-25 61l198 86zM45 19l17 79q90 -30 159 -30q42 0 69.5 22t27.5 59q0 35 -27 59t-65 40.5t-76 35t-65 54.5t-27 88q0 69 52.5 110.5t133.5 41.5q74 0 156 -31l-24 -76q-75 26 -132 26q-44 0 -67.5 -18.5t-23.5 -50.5t27 -54.5t65 -38.5t76 -35t65 -57
t27 -93q0 -77 -55.5 -120t-136.5 -43q-80 0 -176 32z" />
    <glyph glyph-name="scircumflex.smcp" horiz-adv-x="458" 
d="M328 636l-99 66l-98 -66l-39 62l137 81l137 -81zM45 19l17 79q90 -30 159 -30q42 0 69.5 22t27.5 59q0 35 -27 59t-65 40.5t-76 35t-65 54.5t-27 88q0 69 52.5 110.5t133.5 41.5q74 0 156 -31l-24 -76q-75 26 -132 26q-44 0 -67.5 -18.5t-23.5 -50.5t27 -54.5t65 -38.5
t76 -35t65 -57t27 -93q0 -77 -55.5 -120t-136.5 -43q-80 0 -176 32z" />
    <glyph glyph-name="scaron.smcp" horiz-adv-x="458" 
d="M366 717l-137 -82l-137 82l39 61l98 -66l99 66zM45 19l17 79q90 -30 159 -30q42 0 69.5 22t27.5 59q0 35 -27 59t-65 40.5t-76 35t-65 54.5t-27 88q0 69 52.5 110.5t133.5 41.5q74 0 156 -31l-24 -76q-75 26 -132 26q-44 0 -67.5 -18.5t-23.5 -50.5t27 -54.5t65 -38.5
t76 -35t65 -57t27 -93q0 -77 -55.5 -120t-136.5 -43q-80 0 -176 32z" />
    <glyph glyph-name="scommaaccent.smcp" horiz-adv-x="458" 
d="M45 19l17 79q90 -30 159 -30q42 0 69.5 22t27.5 59q0 35 -27 59t-65 40.5t-76 35t-65 54.5t-27 88q0 69 52.5 110.5t133.5 41.5q74 0 156 -31l-24 -76q-75 26 -132 26q-44 0 -67.5 -18.5t-23.5 -50.5t27 -54.5t65 -38.5t76 -35t65 -57t27 -93q0 -77 -55.5 -120
t-136.5 -43q-80 0 -176 32zM228 -224h-63l29 160h87z" />
    <glyph glyph-name="germandbls.smcp" horiz-adv-x="898" 
d="M485 19l17 79q90 -30 159 -30q42 0 69.5 22t27.5 59q0 35 -27 59t-65 40.5t-76 35t-65 54.5t-27 88q0 69 52.5 110.5t133.5 41.5q74 0 156 -31l-24 -76q-75 26 -132 26q-44 0 -67.5 -18.5t-23.5 -50.5t27 -54.5t65 -38.5t76 -35t65 -57t27 -93q0 -77 -55.5 -120
t-136.5 -43q-80 0 -176 32zM45 19l17 79q90 -30 159 -30q42 0 69.5 22t27.5 59q0 35 -27 59t-65 40.5t-76 35t-65 54.5t-27 88q0 69 52.5 110.5t133.5 41.5q74 0 156 -31l-24 -76q-75 26 -132 26q-44 0 -67.5 -18.5t-23.5 -50.5t27 -54.5t65 -38.5t76 -35t65 -57t27 -93
q0 -77 -55.5 -120t-136.5 -43q-80 0 -176 32z" />
    <glyph glyph-name="tcaron.smcp" horiz-adv-x="470" 
d="M372 717l-137 -82l-137 82l39 61l98 -66l99 66zM281 0h-92v484h-154v81h400v-81h-154v-484z" />
    <glyph glyph-name="egrave.smcp" horiz-adv-x="475" 
d="M339 634l-203 74l30 73l197 -86zM414 0h-336v565h328v-80h-236v-162h200l-5 -76h-195v-167h244v-80z" />
    <glyph glyph-name="tbar.smcp" horiz-adv-x="470" 
d="M281 0h-92v264h-82v63h82v157h-154v81h400v-81h-154v-157h84v-63h-84v-264z" />
    <glyph glyph-name="uacute.smcp" horiz-adv-x="567" 
d="M397 708l-203 -74l-25 61l198 86zM402 189v376h91v-383q0 -85 -61 -140t-148 -55q-89 0 -149.5 54.5t-60.5 140.5v383h91v-376q0 -55 33 -88t86 -33t85.5 33t32.5 88z" />
    <glyph glyph-name="ugrave.smcp" horiz-adv-x="567" 
d="M372 634l-203 74l30 73l198 -86zM402 189v376h91v-383q0 -85 -61 -140t-148 -55q-89 0 -149.5 54.5t-60.5 140.5v383h91v-376q0 -55 33 -88t86 -33t85.5 33t32.5 88z" />
    <glyph glyph-name="ucircumflex.smcp" horiz-adv-x="567" 
d="M382 636l-99 66l-98 -66l-39 62l137 81l137 -81zM402 189v376h91v-383q0 -85 -61 -140t-148 -55q-89 0 -149.5 54.5t-60.5 140.5v383h91v-376q0 -55 33 -88t86 -33t85.5 33t32.5 88z" />
    <glyph glyph-name="udieresis.smcp" horiz-adv-x="567" 
d="M428 707q0 -21 -15.5 -36t-37.5 -15q-21 0 -36.5 15t-15.5 36t15.5 37t36.5 16q22 0 37.5 -15.5t15.5 -37.5zM243 707q0 -21 -15.5 -36t-36.5 -15t-37 15t-16 36q0 22 16 37.5t37 15.5t36.5 -15.5t15.5 -37.5zM402 189v376h91v-383q0 -85 -61 -140t-148 -55
q-89 0 -149.5 54.5t-60.5 140.5v383h91v-376q0 -55 33 -88t86 -33t85.5 33t32.5 88z" />
    <glyph glyph-name="utilde.smcp" horiz-adv-x="567" 
d="M388 749l39 -43q-9 -22 -31.5 -40t-54.5 -18q-27 0 -63.5 23.5t-52.5 23.5q-25 0 -47 -29l-39 43q9 22 31.5 40t54.5 18q28 0 64.5 -23.5t51.5 -23.5q25 0 47 29zM402 189v376h91v-383q0 -85 -61 -140t-148 -55q-89 0 -149.5 54.5t-60.5 140.5v383h91v-376q0 -55 33 -88
t86 -33t85.5 33t32.5 88z" />
    <glyph glyph-name="uring.smcp" horiz-adv-x="567" 
d="M284 634q-38 0 -65 27t-27 65q0 37 27 63.5t65 26.5q37 0 63.5 -26.5t26.5 -63.5q0 -38 -26.5 -65t-63.5 -27zM284 691q13 0 23 10.5t10 24.5t-9.5 24t-23.5 10t-24 -10t-10 -24t10 -24.5t24 -10.5zM402 189v376h91v-383q0 -85 -61 -140t-148 -55q-89 0 -149.5 54.5
t-60.5 140.5v383h91v-376q0 -55 33 -88t86 -33t85.5 33t32.5 88z" />
    <glyph glyph-name="emacron.smcp" horiz-adv-x="475" 
d="M366 675h-253v71h253v-71zM414 0h-336v565h328v-80h-236v-162h200l-5 -76h-195v-167h244v-80z" />
    <glyph glyph-name="gcircumflex.smcp" horiz-adv-x="545" 
d="M373 636l-98 66l-99 -66l-38 62l136 81l137 -81zM394 80v157h-64v69h150v-286q-103 -33 -188 -33q-103 0 -166.5 59t-63.5 171v131q0 112 63.5 171t166.5 59q74 0 174 -30l-19 -76q-84 25 -154 25q-66 0 -103 -37.5t-37 -116.5v-119q0 -156 140 -156q46 0 101 12z" />
    <glyph glyph-name="umacron.smcp" horiz-adv-x="567" 
d="M410 675h-253v71h253v-71zM402 189v376h91v-383q0 -85 -61 -140t-148 -55q-89 0 -149.5 54.5t-60.5 140.5v383h91v-376q0 -55 33 -88t86 -33t85.5 33t32.5 88z" />
    <glyph glyph-name="uhungarumlaut.smcp" horiz-adv-x="567" 
d="M515 724l-166 -96l-35 58l160 105zM305 723l-166 -95l-35 57l160 106zM402 189v376h91v-383q0 -85 -61 -140t-148 -55q-89 0 -149.5 54.5t-60.5 140.5v383h91v-376q0 -55 33 -88t86 -33t85.5 33t32.5 88z" />
    <glyph glyph-name="uogonek.smcp" horiz-adv-x="567" 
d="M325 -152l12 -62q-26 -9 -53 -9q-49 0 -77 25.5t-28 68.5q0 65 65 119q-75 12 -122.5 64t-47.5 128v383h91v-376q0 -55 33 -88t86 -33t85.5 33t32.5 88v376h91v-383q0 -75 -48 -127t-121 -64q-73 -58 -73 -112q0 -37 38 -37q22 0 36 6z" />
    <glyph glyph-name="wgrave.smcp" horiz-adv-x="738" 
d="M457 634l-203 74l30 73l198 -86zM145 0l-102 565h92l59 -356q6 -35 10 -102q21 85 26 101l87 268h102l88 -268q11 -32 26 -99q7 77 10 100l59 356h93l-103 -565h-104l-100 309q-8 24 -20 76q-9 -45 -19 -76l-101 -309h-103z" />
    <glyph glyph-name="wcircumflex.smcp" horiz-adv-x="738" 
d="M466 636l-98 66l-99 -66l-38 62l136 81l137 -81zM145 0l-102 565h92l59 -356q6 -35 10 -102q21 85 26 101l87 268h102l88 -268q11 -32 26 -99q7 77 10 100l59 356h93l-103 -565h-104l-100 309q-8 24 -20 76q-9 -45 -19 -76l-101 -309h-103z" />
    <glyph glyph-name="wdieresis.smcp" horiz-adv-x="738" 
d="M512 707q0 -21 -15.5 -36t-37.5 -15q-21 0 -36.5 15t-15.5 36t15.5 37t36.5 16q22 0 37.5 -15.5t15.5 -37.5zM327 707q0 -21 -15.5 -36t-36.5 -15t-37 15t-16 36q0 22 16 37.5t37 15.5t36.5 -15.5t15.5 -37.5zM145 0l-102 565h92l59 -356q6 -35 10 -102q21 85 26 101
l87 268h102l88 -268q11 -32 26 -99q7 77 10 100l59 356h93l-103 -565h-104l-100 309q-8 24 -20 76q-9 -45 -19 -76l-101 -309h-103z" />
    <glyph glyph-name="icircumflex.smcp" horiz-adv-x="248" 
d="M223 636l-99 66l-98 -66l-39 62l137 81l137 -81zM170 0h-92v565h92v-565z" />
    <glyph glyph-name="ygrave.smcp" horiz-adv-x="507" 
d="M343 634l-203 74l30 73l198 -86zM208 0v216l-180 349h99l126 -258l127 258h99l-180 -349v-216h-91z" />
    <glyph glyph-name="ycircumflex.smcp" horiz-adv-x="507" 
d="M352 636l-98 66l-99 -66l-38 62l136 81l137 -81zM208 0v216l-180 349h99l126 -258l127 258h99l-180 -349v-216h-91z" />
    <glyph glyph-name="ydieresis.smcp" horiz-adv-x="507" 
d="M399 707q0 -21 -15.5 -36t-37.5 -15q-21 0 -36.5 15t-15.5 36q0 22 15.5 37.5t36.5 15.5q22 0 37.5 -15.5t15.5 -37.5zM214 707q0 -21 -15.5 -36t-37.5 -15q-21 0 -36.5 15t-15.5 36q0 22 15.5 37.5t36.5 15.5q22 0 37.5 -15.5t15.5 -37.5zM208 0v216l-180 349h99
l126 -258l127 258h99l-180 -349v-216h-91z" />
    <glyph glyph-name="ibreve.smcp" horiz-adv-x="248" 
d="M176 771h68q0 -54 -34.5 -89.5t-85.5 -35.5t-85 35.5t-35 89.5h69q0 -26 14.5 -43t36.5 -17t37 17.5t15 42.5zM170 0h-92v565h92v-565z" />
    <glyph glyph-name="zacute.smcp" horiz-adv-x="497" 
d="M361 708l-203 -74l-24 61l197 86zM440 0h-392v65l271 422h-267v78h379v-64l-273 -422h291z" />
    <glyph glyph-name="zcaron.smcp" horiz-adv-x="497" 
d="M385 717l-136 -82l-137 82l38 61l98 -66l99 66zM440 0h-392v65l271 422h-267v78h379v-64l-273 -422h291z" />
    <glyph glyph-name="zdotaccent.smcp" horiz-adv-x="497" 
d="M300 707q0 -21 -15.5 -36t-37.5 -15q-21 0 -36.5 15t-15.5 36t15.5 37t36.5 16q22 0 37.5 -15.5t15.5 -37.5zM440 0h-392v65l271 422h-267v78h379v-64l-273 -422h291z" />
    <glyph glyph-name="cdotaccent.smcp" horiz-adv-x="507" 
d="M332 707q0 -21 -15.5 -36t-37.5 -15q-21 0 -36.5 15t-15.5 36t15.5 37t36.5 16q22 0 37.5 -15.5t15.5 -37.5zM442 92l18 -79q-87 -26 -168 -26q-103 0 -166.5 59t-63.5 171v131q0 112 63.5 171t166.5 59q79 0 168 -26l-18 -78q-78 23 -149 23q-140 0 -140 -155v-119
q0 -155 140 -155q79 0 149 24z" />
    <glyph glyph-name="cyrbreve" horiz-adv-x="407" 
d="M203 662q46 0 55 58l67 -10q-5 -51 -39 -82t-83 -31t-82.5 31t-38.5 82l66 10q5 -26 19 -42t36 -16z" />
    <glyph glyph-name="cyrBreve" horiz-adv-x="407" 
d="M203 806q23 0 38 16.5t20 43.5l69 -11q-7 -52 -41.5 -83.5t-85.5 -31.5t-85.5 31.5t-40.5 83.5l68 11q5 -27 20 -43.5t38 -16.5z" />
    <glyph glyph-name="kcommaaccent.smcp" horiz-adv-x="533" 
d="M502 0h-108l-165 239l-59 -77v-162h-92v565h92v-261l198 261h106l-190 -251zM275 -224h-64l29 160h87z" />
    <glyph glyph-name="commaaccent" horiz-adv-x="217" 
d="M115 -224h-63l29 160h87z" />
    <glyph glyph-name="zero.onum" 
d="M515 326v-86q0 -120 -64 -186.5t-163 -66.5q-98 0 -163 66.5t-65 186.5v86q0 119 64.5 185.5t162.5 66.5t163 -66.5t65 -185.5zM423 240v86q0 83 -37 127t-99 44t-98.5 -44t-36.5 -127v-86q0 -83 37 -127.5t99 -44.5t98.5 44.5t36.5 127.5z" />
    <glyph glyph-name="ncaron.smcp" horiz-adv-x="563" 
d="M419 717l-137 -82l-137 82l38 61l99 -66l98 66zM485 0h-76l-243 383q4 -31 4 -88v-295h-92v565h73l245 -387q-3 46 -3 86v301h92v-565z" />
    <glyph glyph-name="one.onum" horiz-adv-x="386" 
d="M298 0h-91v481l-154 -28v82l245 42v-577z" />
    <glyph glyph-name="two.onum" horiz-adv-x="486" 
d="M419 0h-369v45q0 56 20.5 100t51.5 70t67 50t67 41t51.5 43.5t20.5 57.5q0 39 -26.5 64.5t-74.5 25.5q-64 0 -138 -36l-32 72q85 45 172 45q82 0 137.5 -47t55.5 -124q0 -48 -28 -88t-68 -67t-79.5 -51.5t-67.5 -55.5t-28 -66h277z" />
    <glyph glyph-name="three.onum" horiz-adv-x="483" 
d="M19 -93l24 77q78 -27 145 -27t110.5 36.5t43.5 99.5q0 54 -34.5 88t-107.5 34h-73l-15 76l184 195h-260l-11 79h370l10 -79l-186 -195q93 -1 154.5 -54t61.5 -144q0 -98 -71.5 -157.5t-174.5 -59.5q-80 0 -170 31z" />
    <glyph glyph-name="four.onum" horiz-adv-x="551" 
d="M411 -110l-89 -10v160h-262l-12 77l138 448h87l-132 -445h181v219l89 15v-234h96v-80h-96v-150z" />
    <glyph glyph-name="five.onum" horiz-adv-x="510" 
d="M34 -93l17 78q91 -28 164 -28q58 0 103.5 37.5t45.5 109.5q0 128 -156 128h-137l12 333h354l-21 -79h-249l-7 -175h60q113 0 175 -52t62 -153q0 -109 -72.5 -169.5t-168.5 -60.5q-92 0 -182 31z" />
    <glyph glyph-name="six.onum" horiz-adv-x="554" 
d="M60 210v230q0 107 61 178t172 71q68 0 151 -25l-19 -80q-74 24 -132 24q-67 0 -104 -45.5t-37 -116.5v-35q64 40 137 40q94 0 154.5 -61.5t60.5 -170.5t-63.5 -170.5t-158.5 -61.5t-158.5 59.5t-63.5 163.5zM151 335v-126q0 -60 34 -100.5t96 -40.5t96 43t34 108
q0 70 -34 113t-96 43q-68 0 -130 -40z" />
    <glyph glyph-name="ograve.smcp" horiz-adv-x="566" 
d="M374 634l-203 74l30 73l197 -86zM504 347v-130q0 -111 -62 -170.5t-159 -59.5t-159 59.5t-62 170.5v130q0 111 62.5 171t158.5 60t158.5 -60t62.5 -171zM413 224v117q0 79 -35 117.5t-95 38.5t-95 -38.5t-35 -117.5v-117q0 -80 35 -118t95 -38t95 38t35 118z" />
    <glyph glyph-name="obreve.smcp" horiz-adv-x="566" 
d="M334 771h69q-1 -54 -35 -89.5t-85 -35.5t-85.5 35.5t-34.5 89.5h68q1 -26 15.5 -43t36.5 -17t36.5 17t14.5 43zM504 347v-130q0 -111 -62 -170.5t-159 -59.5t-159 59.5t-62 170.5v130q0 111 62.5 171t158.5 60t158.5 -60t62.5 -171zM413 224v117q0 79 -35 117.5t-95 38.5
t-95 -38.5t-35 -117.5v-117q0 -80 35 -118t95 -38t95 38t35 118z" />
    <glyph glyph-name="seven.onum" horiz-adv-x="489" 
d="M269 -111h-95q0 201 49.5 343t137.5 254h-332l-6 79h438v-77q-102 -128 -147 -255.5t-45 -343.5z" />
    <glyph glyph-name="eight.onum" horiz-adv-x="566" 
d="M376 358q64 -32 100 -74t36 -111q0 -84 -68 -135t-161 -51q-91 0 -159.5 50.5t-68.5 135.5q0 64 36 104.5t99 72.5q-115 62 -115 165q0 73 56.5 123.5t151.5 50.5q88 0 149 -49t61 -125q0 -55 -31 -91.5t-86 -65.5zM291 396q52 24 80 51.5t28 68.5q0 42 -32 67t-84 25
q-51 0 -82.5 -25t-31.5 -67t30.5 -67.5t91.5 -52.5zM274 309q-61 -29 -93.5 -59t-32.5 -77q0 -46 39 -75.5t96 -29.5q56 0 95.5 29t39.5 76q0 25 -10.5 45.5t-34.5 37.5t-43.5 27t-55.5 26z" />
    <glyph glyph-name="nine.onum" horiz-adv-x="556" 
d="M404 119v35q-64 -40 -137 -40q-94 0 -154.5 61.5t-60.5 170.5q0 110 63.5 171t159.5 61q93 0 157 -60t64 -163v-230q0 -107 -61 -178t-171 -71q-69 0 -152 25l19 80q74 -24 133 -24q67 0 103.5 45.5t36.5 116.5zM405 230v126q0 60 -34 100.5t-95 40.5q-62 0 -96.5 -43
t-34.5 -108q0 -70 34 -113t97 -43q65 0 129 40z" />
    <glyph glyph-name="dollar.onum" horiz-adv-x="504" 
d="M286 -124h-75v112q-83 4 -172 36l17 82q98 -35 182 -35q51 0 85.5 28t34.5 78q0 45 -31.5 73t-76 44.5t-89.5 36t-76.5 59.5t-31.5 102q0 69 46 116t121 58v114h76v-113q60 -4 142 -33l-24 -79q-88 30 -149 30q-57 0 -86.5 -23.5t-29.5 -67.5q0 -35 22.5 -60t56.5 -37
t73.5 -29.5t73.5 -36.5t56.5 -58.5t22.5 -94.5q0 -78 -47 -126t-121 -61v-115z" />
    <glyph glyph-name="cent.onum" horiz-adv-x="481" 
d="M313 -124h-75v113q-84 10 -131 66t-47 158v90q0 102 47.5 157.5t130.5 65.5v113h75v-113q50 -4 108 -22l-18 -78q-78 21 -125 21q-63 0 -94.5 -36t-31.5 -113v-81q0 -149 126 -149q55 0 125 20l18 -77q-60 -18 -108 -22v-113z" />
    <glyph glyph-name="sterling.onum" horiz-adv-x="487" 
d="M439 0h-374v73q69 87 69 168q0 11 -2 33h-72v65h61q-3 11 -10 37.5t-10.5 40.5t-6.5 36t-3 41q0 93 56 144t144 51q77 0 151 -32l-26 -75q-65 24 -119 24q-110 0 -110 -119q0 -19 3 -41t5.5 -33.5t9.5 -39.5t9 -34h178v-65h-167q2 -22 2 -33q0 -88 -62 -162h274v-79z" />
    <glyph glyph-name="Euro.onum" horiz-adv-x="526" 
d="M483 87l16 -82q-79 -18 -145 -18q-104 0 -170.5 64.5t-67.5 176.5h-79v63h79v94h-79v63h79q1 112 67.5 176.5t170.5 64.5q66 0 145 -18l-16 -82q-70 17 -128 17q-65 0 -104.5 -42.5t-40.5 -115.5h203l-13 -63h-190v-94h174l-13 -63h-161q1 -73 40.5 -115.5t104.5 -42.5
q58 0 128 17z" />
    <glyph glyph-name="yen.onum" horiz-adv-x="511" 
d="M435 111h-132v-111h-94v111h-132v64h132v71h-132v65h106l-180 365h101l152 -328l151 328h100l-178 -365h106v-65h-132v-71h132v-64z" />
    <glyph glyph-name="rcommaaccent.smcp" horiz-adv-x="503" 
d="M459 0h-102l-105 223h-82v-223h-92v565h199q80 0 130 -50.5t50 -123.5q0 -52 -28.5 -95t-84.5 -61zM170 297h104q42 0 66 26t24 68t-24.5 68t-65.5 26h-104v-188zM255 -224h-63l29 160h87z" />
    <glyph glyph-name="numbersign.onum" horiz-adv-x="559" 
d="M398 0h-82l19 196h-142l-19 -196h-82l19 196h-71v82h79l15 153h-70v82h78l20 196h82l-20 -196h142l20 196h82l-20 -196h70v-82h-78l-15 -153h70v-82h-78zM343 278l15 153h-142l-15 -153h142z" />
    <glyph glyph-name="zero.tnum" 
d="M520 418v-159q0 -135 -65.5 -203.5t-166.5 -68.5q-102 0 -167.5 68.5t-65.5 203.5v159q0 135 65 203t168 68q102 0 167 -68t65 -203zM429 259v159q0 190 -141 190q-66 0 -104 -45.5t-38 -144.5v-159q0 -99 38 -145t104 -46q65 0 103 46t38 145z" />
    <glyph glyph-name="scedilla.smcp" horiz-adv-x="458" 
d="M202 -90v77q-72 4 -157 32l17 79q90 -30 159 -30q42 0 69.5 22t27.5 59q0 35 -27 59t-65 40.5t-76 35t-65 54.5t-27 88q0 69 52.5 110.5t133.5 41.5q74 0 156 -31l-24 -76q-75 26 -132 26q-44 0 -67.5 -18.5t-23.5 -50.5t27 -54.5t65 -38.5t76 -35t65 -57t27 -93
q0 -62 -37 -102t-97 -54v-93q0 -59 -35 -85.5t-85 -26.5q-37 0 -66 8l10 70q24 -6 50 -6q49 0 49 49z" />
    <glyph glyph-name="CR" horiz-adv-x="233" 
 />
    <glyph glyph-name="one.tnum" 
d="M412 0h-91v591l-158 -29v83l249 42v-687z" />
    <glyph glyph-name="two.tnum" 
d="M488 0h-405v63q0 53 17.5 98t45 76t61 58t66.5 49t60.5 44t45 49t17.5 57q0 48 -31 81t-88 33q-70 0 -152 -40l-33 73q96 48 188 48q93 0 151 -52.5t58 -140.5q0 -54 -32 -99.5t-77.5 -78.5t-91.5 -66t-78 -77t-32 -95h310v-80z" />
    <glyph glyph-name="three.tnum" 
d="M76 18l24 77q78 -27 145 -27t110.5 36.5t43.5 99.5q0 54 -34.5 88t-107.5 34h-73l-15 76l184 195h-260l-11 79h370l10 -79l-186 -195q93 -1 154.5 -54t61.5 -144q0 -98 -71.5 -157.5t-174.5 -59.5q-80 0 -170 31z" />
    <glyph glyph-name="four.tnum" 
d="M421 1l-90 -10v160h-261l-12 77l137 448h88l-132 -445h180v219l90 15v-234h96v-80h-96v-150z" />
    <glyph glyph-name="five.tnum" 
d="M74 18l17 78q91 -28 164 -28q58 0 103.5 37.5t45.5 109.5q0 128 -156 128h-137l12 333h354l-21 -79h-249l-7 -175h60q113 0 175 -52t62 -153q0 -109 -72.5 -169.5t-168.5 -60.5q-92 0 -182 31z" />
    <glyph glyph-name="six.tnum" 
d="M71 210v230q0 107 61 178t171 71q69 0 152 -25l-20 -80q-72 24 -132 24q-67 0 -104 -46t-37 -116v-35q66 40 138 40q94 0 154.5 -61.5t60.5 -170.5q0 -110 -64 -171t-159 -61q-94 0 -157.5 60t-63.5 163zM162 335v-126q0 -60 34 -100.5t95 -40.5q62 0 96 43t34 108
q0 70 -33.5 113t-96.5 43q-67 0 -129 -40z" />
    <glyph glyph-name="tcommaaccent.smcp" horiz-adv-x="470" 
d="M281 0h-92v484h-154v81h400v-81h-154v-484zM229 -224h-64l30 160h87z" />
    <glyph glyph-name="seven.tnum" 
d="M315 0h-95q0 201 49.5 343t137.5 254h-332l-7 79h439v-77q-102 -128 -147 -255.5t-45 -343.5z" />
    <glyph glyph-name="eight.tnum" 
d="M380 358q64 -32 100 -74t36 -111q0 -84 -68 -135t-161 -51q-91 0 -159.5 50.5t-68.5 135.5q0 64 36 104.5t99 72.5q-115 62 -115 165q0 73 56.5 123.5t151.5 50.5q88 0 149 -49t61 -125q0 -55 -31 -91.5t-86 -65.5zM295 396q52 24 80 51.5t28 68.5q0 42 -32 67t-84 25
q-51 0 -82.5 -25t-31.5 -67t30.5 -67.5t91.5 -52.5zM278 309q-61 -29 -93.5 -59t-32.5 -77q0 -46 39 -75.5t96 -29.5q56 0 95.5 29t39.5 76q0 25 -10.5 45.5t-34.5 37.5t-43.5 27t-55.5 26z" />
    <glyph glyph-name="nine.tnum" 
d="M418 230v35q-64 -40 -137 -40q-94 0 -155 61.5t-61 170.5q0 110 64 171t159 61q94 0 158 -60t64 -163v-230q0 -107 -61.5 -178t-171.5 -71q-69 0 -152 25l20 80q74 -24 132 -24q67 0 104 45.5t37 116.5zM418 341v126q0 60 -33.5 100.5t-95.5 40.5t-96 -43t-34 -108
q0 -70 33.5 -113t96.5 -43q67 0 129 40z" />
    <glyph glyph-name="dollar.tnum" 
d="M326 -124h-75v112q-83 4 -172 36l17 82q98 -35 182 -35q51 0 85.5 28t34.5 78q0 45 -31.5 73t-76 44.5t-89.5 36t-76.5 59.5t-31.5 102q0 69 46 116t121 58v114h76v-113q60 -4 142 -33l-24 -79q-88 30 -149 30q-57 0 -86.5 -23.5t-29.5 -67.5q0 -35 22.5 -60t56.5 -37
t73.5 -29.5t73.5 -36.5t56.5 -58.5t22.5 -94.5q0 -78 -47 -126t-121 -61v-115z" />
    <glyph glyph-name="ubreve.smcp" horiz-adv-x="567" 
d="M335 771h68q0 -54 -34.5 -89.5t-85.5 -35.5t-85 35.5t-35 89.5h69q0 -26 14.5 -43t36.5 -17t37 17.5t15 42.5zM402 189v376h91v-383q0 -85 -61 -140t-148 -55q-89 0 -149.5 54.5t-60.5 140.5v383h91v-376q0 -55 33 -88t86 -33t85.5 33t32.5 88z" />
    <glyph glyph-name="cent.tnum" 
d="M360 -124h-75v113q-84 10 -131 66t-47 158v90q0 102 47.5 157.5t130.5 65.5v113h75v-113q50 -4 108 -22l-18 -78q-78 21 -125 21q-63 0 -94.5 -36t-31.5 -113v-81q0 -149 126 -149q55 0 125 20l18 -77q-60 -18 -108 -22v-113z" />
    <glyph glyph-name="sterling.tnum" 
d="M475 0h-374v73q69 87 69 168q0 11 -2 33h-72v65h61q-3 11 -10 37.5t-10.5 40.5t-6.5 36t-3 41q0 93 56 144t144 51q76 0 152 -32l-27 -75q-63 24 -119 24q-110 0 -110 -119q0 -19 3 -41t5.5 -33.5t9.5 -39.5t9 -34h178v-65h-166q2 -22 2 -33q0 -87 -63 -162h274v-79z" />
    <glyph glyph-name="Euro.tnum" 
d="M502 87l16 -82q-77 -18 -145 -18q-104 0 -170 64.5t-68 176.5h-79v63h79v94h-79v63h79q2 112 68.5 176.5t169.5 64.5q68 0 145 -18l-16 -82q-70 17 -128 17q-65 0 -104 -42t-41 -116h203l-13 -63h-190v-94h174l-12 -63h-162q2 -74 41 -116t104 -42q58 0 128 17z" />
    <glyph glyph-name="yen.tnum" 
d="M467 111h-132v-111h-94v111h-132v64h132v71h-132v65h106l-180 365h101l152 -328l151 328h100l-178 -365h106v-65h-132v-71h132v-64z" />
    <glyph glyph-name="wacute.smcp" horiz-adv-x="738" 
d="M482 708l-203 -74l-24 61l197 86zM145 0l-102 565h92l59 -356q6 -35 10 -102q21 85 26 101l87 268h102l88 -268q11 -32 26 -99q7 77 10 100l59 356h93l-103 -565h-104l-100 309q-8 24 -20 76q-9 -45 -19 -76l-101 -309h-103z" />
    <glyph glyph-name="yacute.smcp" horiz-adv-x="507" 
d="M368 708l-203 -74l-25 61l198 86zM208 0v216l-180 349h99l126 -258l127 258h99l-180 -349v-216h-91z" />
    <glyph glyph-name="numbersign.tnum" 
d="M406 0h-82l19 196h-142l-19 -196h-82l19 196h-71v82h79l15 153h-70v82h78l20 196h82l-20 -196h142l20 196h82l-20 -196h70v-82h-78l-15 -153h70v-82h-78zM351 278l15 153h-142l-15 -153h142z" />
    <glyph glyph-name="zeroonum.tnum" 
d="M515 326v-86q0 -120 -64 -186.5t-163 -66.5q-98 0 -163 66.5t-65 186.5v86q0 119 64.5 185.5t162.5 66.5t163 -66.5t65 -185.5zM423 240v86q0 83 -37 127t-99 44t-98.5 -44t-36.5 -127v-86q0 -83 37 -127.5t99 -44.5t98.5 44.5t36.5 127.5z" />
    <glyph glyph-name="oneonum.tnum" 
d="M403 0h-91v482l-154 -29v83l245 42v-578z" />
    <glyph glyph-name="twoonum.tnum" 
d="M468 0h-369v45q0 56 20.5 100t51.5 70t67 50t67 41t51.5 43.5t20.5 57.5q0 39 -27 64.5t-74 25.5q-66 0 -138 -36l-32 72q86 45 171 45q82 0 138 -47t56 -124q0 -41 -20 -76t-50 -58t-65.5 -47t-65.5 -43.5t-50 -46.5t-20 -57h276z" />
    <glyph glyph-name="threeonum.tnum" 
d="M79 -93l25 77q76 -27 144 -27q67 0 110.5 36.5t43.5 99.5q0 54 -34.5 88t-106.5 34h-74l-15 76l184 195h-259l-12 79h370l10 -79l-186 -195q93 -1 155 -54t62 -144q0 -98 -72 -157.5t-175 -59.5q-80 0 -170 31z" />
    <glyph glyph-name="fouronum.tnum" 
d="M421 -110l-90 -10v160h-261l-12 77l137 448h88l-132 -445h180v219l90 15v-234h96v-80h-96v-150z" />
    <glyph glyph-name="fiveonum.tnum" 
d="M69 -93l17 78q91 -28 164 -28q58 0 103.5 37.5t45.5 109.5q0 128 -156 128h-137l12 333h354l-21 -79h-249l-7 -175h60q113 0 175 -52t62 -153q0 -109 -72.5 -169.5t-168.5 -60.5q-92 0 -182 31z" />
    <glyph glyph-name="sixonum.tnum" 
d="M65 210v230q0 107 61 178t172 71q69 0 152 -25l-20 -80q-72 24 -132 24q-67 0 -104 -45.5t-37 -116.5v-35q64 40 137 40q94 0 155 -61.5t61 -170.5t-64 -170.5t-159 -61.5t-158.5 59.5t-63.5 163.5zM157 335v-126q0 -60 33.5 -100.5t95.5 -40.5t96 43t34 108
q0 70 -33.5 113t-96.5 43q-67 0 -129 -40z" />
    <glyph glyph-name="sevenonum.tnum" 
d="M315 -111h-95q0 201 49.5 343t137.5 254h-332l-7 79h439v-77q-102 -128 -147 -255.5t-45 -343.5z" />
    <glyph glyph-name="eightonum.tnum" 
d="M380 358q64 -32 100 -74t36 -111q0 -84 -68 -135t-161 -51q-91 0 -159.5 50.5t-68.5 135.5q0 64 36 104.5t99 72.5q-114 63 -114 165q0 73 56 123.5t151 50.5q88 0 149 -49t61 -125q0 -55 -31 -91.5t-86 -65.5zM295 396q52 24 80 51.5t28 68.5q0 42 -32 67t-84 25
q-51 0 -82.5 -25t-31.5 -67t30.5 -67.5t91.5 -52.5zM278 309q-61 -29 -93 -59t-32 -77t38.5 -76t95.5 -29q56 0 95.5 29t39.5 76q0 25 -10.5 45.5t-34.5 37.5t-43.5 27t-55.5 26z" />
    <glyph glyph-name="nineonum.tnum" 
d="M418 119v35q-64 -40 -137 -40q-94 0 -155 61.5t-61 170.5q0 110 64 171t159 61q94 0 158 -60t64 -163v-230q0 -107 -61.5 -178t-171.5 -71q-69 0 -152 25l20 80q74 -24 132 -24q67 0 104 45.5t37 116.5zM418 230v126q0 60 -33.5 100.5t-95.5 40.5t-96 -43t-34 -108
q0 -70 33.5 -113t96.5 -43q67 0 129 40z" />
    <glyph glyph-name="dollaronum.tnum" 
d="M328 -124h-76v112q-83 4 -172 36l17 82q98 -35 183 -35q50 0 84.5 28t34.5 78q0 45 -31.5 73t-76 44.5t-89.5 36t-76.5 59.5t-31.5 102q0 70 46 116.5t122 57.5v114h75v-113q59 -4 142 -33l-24 -79q-86 30 -149 30q-57 0 -86.5 -23.5t-29.5 -67.5q0 -35 22.5 -60
t56.5 -37t73.5 -29.5t73.5 -36.5t56.5 -58.5t22.5 -94.5q0 -78 -46.5 -126t-120.5 -61v-115z" />
    <glyph glyph-name="centonum.tnum" 
d="M360 -124h-75v113q-84 10 -131 66t-47 158v90q0 102 47.5 157.5t130.5 65.5v113h75v-113q50 -4 108 -22l-18 -78q-78 21 -125 21q-63 0 -94.5 -36t-31.5 -113v-81q0 -149 126 -149q55 0 125 20l18 -77q-60 -18 -108 -22v-113z" />
    <glyph glyph-name="sterlingonum.tnum" 
d="M478 0h-374v73q69 87 69 168q0 11 -2 33h-71v65h60q-3 13 -9.5 38t-10 40t-6.5 36.5t-3 40.5q0 94 55.5 144.5t143.5 50.5q78 0 152 -32l-27 -75q-63 24 -118 24q-111 0 -111 -119q0 -19 3 -40t6 -35t9 -37.5t9 -35.5h178v-65h-166q2 -22 2 -33q0 -88 -62 -162h273v-79z
" />
    <glyph glyph-name="Euroonum.tnum" 
d="M502 87l16 -82q-77 -18 -145 -18q-104 0 -170 64.5t-68 176.5h-79v63h79v94h-79v63h79q2 112 68.5 176.5t169.5 64.5q68 0 145 -18l-16 -82q-70 17 -128 17q-65 0 -104 -42t-41 -116h203l-13 -63h-190v-94h174l-12 -63h-162q2 -74 41 -116t104 -42q58 0 128 17z" />
    <glyph glyph-name="yenonum.tnum" 
d="M467 111h-132v-111h-94v111h-132v64h132v71h-132v65h106l-180 365h101l152 -328l151 328h100l-178 -365h106v-65h-132v-71h132v-64z" />
    <glyph glyph-name="numbersignonum.tnum" 
d="M406 0h-82l19 196h-142l-19 -196h-82l19 196h-71v82h79l15 153h-70v82h78l20 196h82l-20 -196h142l20 196h82l-20 -196h70v-82h-78l-15 -153h70v-82h-78zM351 278l15 153h-142l-15 -153h142z" />
    <glyph glyph-name="a.smcp" horiz-adv-x="539" 
d="M32 0l185 565h105l185 -565h-94l-46 148h-195l-46 -148h-94zM195 224h149l-50 155q-9 28 -25 96q-12 -59 -24 -96z" />
    <glyph glyph-name="b.smcp" horiz-adv-x="513" 
d="M259 0h-181v565h182q87 0 138 -42t51 -109q0 -78 -76 -117q49 -17 73.5 -52t24.5 -79q0 -67 -56 -116.5t-156 -49.5zM170 328h82q48 0 75.5 22t27.5 58t-25 56.5t-72 20.5h-88v-157zM170 80h88q57 0 88 23.5t31 62.5q0 40 -28 63.5t-84 23.5h-95v-173z" />
    <glyph glyph-name="c.smcp" horiz-adv-x="507" 
d="M442 92l18 -79q-87 -26 -168 -26q-103 0 -166.5 59t-63.5 171v131q0 112 63.5 171t166.5 59q79 0 168 -26l-18 -78q-78 23 -149 23q-140 0 -140 -155v-119q0 -155 140 -155q79 0 149 24z" />
    <glyph glyph-name="d.smcp" horiz-adv-x="562" 
d="M289 0h-211v532q126 46 211 46q90 0 150.5 -56t60.5 -154v-163q0 -101 -55 -153t-156 -52zM408 210v152q0 66 -32 100.5t-87 34.5q-59 0 -119 -20v-397h119q62 0 90.5 30.5t28.5 99.5z" />
    <glyph glyph-name="e.smcp" horiz-adv-x="475" 
d="M414 0h-336v565h328v-80h-236v-162h200l-5 -76h-195v-167h244v-80z" />
    <glyph glyph-name="f.smcp" horiz-adv-x="461" 
d="M170 0h-92v565h327v-80h-235v-162h194l-7 -77h-187v-246z" />
    <glyph glyph-name="g.smcp" horiz-adv-x="545" 
d="M394 80v157h-64v69h150v-286q-103 -33 -188 -33q-103 0 -166.5 59t-63.5 171v131q0 112 63.5 171t166.5 59q74 0 174 -30l-19 -76q-84 25 -154 25q-66 0 -103 -37.5t-37 -116.5v-119q0 -156 140 -156q46 0 101 12z" />
    <glyph glyph-name="h.smcp" horiz-adv-x="569" 
d="M491 0h-92v249h-229v-249h-92v565h92v-238h229v238h92v-565z" />
    <glyph glyph-name="i.smcp" horiz-adv-x="248" 
d="M170 0h-92v565h92v-565z" />
    <glyph glyph-name="j.smcp" horiz-adv-x="432" 
d="M271 186v379l91 -6v-375q0 -91 -49 -144t-137 -53q-63 0 -146 27l22 77q64 -23 120 -23q51 0 75 32t24 86z" />
    <glyph glyph-name="k.smcp" horiz-adv-x="533" 
d="M502 0h-108l-165 239l-59 -77v-162h-92v565h92v-261l198 261h106l-190 -251z" />
    <glyph glyph-name="l.smcp" horiz-adv-x="457" 
d="M413 0h-335v565h92v-485h248z" />
    <glyph glyph-name="m.smcp" horiz-adv-x="728" 
d="M48 0l68 565h106l118 -301q10 -26 23 -73q11 40 24 73l118 301h106l69 -565h-90l-42 358q-4 32 -6 89q-16 -57 -28 -89l-101 -254h-99l-100 254q-15 39 -29 88q0 -8 -1.5 -41.5t-3.5 -46.5l-42 -358h-90z" />
    <glyph glyph-name="n.smcp" horiz-adv-x="563" 
d="M485 0h-76l-243 383q4 -31 4 -88v-295h-92v565h73l245 -387q-3 46 -3 86v301h92v-565z" />
    <glyph glyph-name="o.smcp" horiz-adv-x="566" 
d="M504 347v-130q0 -111 -62 -170.5t-159 -59.5t-159 59.5t-62 170.5v130q0 111 62.5 171t158.5 60t158.5 -60t62.5 -171zM413 224v117q0 79 -35 117.5t-95 38.5t-95 -38.5t-35 -117.5v-117q0 -80 35 -118t95 -38t95 38t35 118z" />
    <glyph glyph-name="p.smcp" horiz-adv-x="496" 
d="M170 0h-92v565h198q81 0 131 -50.5t50 -123.5q0 -72 -50 -122.5t-131 -50.5h-106v-218zM170 297h105q41 0 65 25.5t24 68.5q0 42 -24 68t-65 26h-105v-188z" />
    <glyph glyph-name="q.smcp" horiz-adv-x="566" 
d="M421 -106l-72 -44l-53 138q-4 -1 -13 -1q-97 0 -159 59.5t-62 170.5v130q0 111 62.5 171t158.5 60t158.5 -60t62.5 -171v-130q0 -160 -128 -213zM413 224v117q0 79 -35 117.5t-95 38.5t-95 -38.5t-35 -117.5v-117q0 -80 35 -118t95 -38t95 38t35 118z" />
    <glyph glyph-name="r.smcp" horiz-adv-x="503" 
d="M459 0h-102l-105 223h-82v-223h-92v565h199q80 0 130 -50.5t50 -123.5q0 -52 -28.5 -95t-84.5 -61zM170 297h104q42 0 66 26t24 68t-24.5 68t-65.5 26h-104v-188z" />
    <glyph glyph-name="s.smcp" horiz-adv-x="458" 
d="M45 19l17 79q90 -30 159 -30q42 0 69.5 22t27.5 59q0 35 -27 59t-65 40.5t-76 35t-65 54.5t-27 88q0 69 52.5 110.5t133.5 41.5q74 0 156 -31l-24 -76q-75 26 -132 26q-44 0 -67.5 -18.5t-23.5 -50.5t27 -54.5t65 -38.5t76 -35t65 -57t27 -93q0 -77 -55.5 -120
t-136.5 -43q-80 0 -176 32z" />
    <glyph glyph-name="t.smcp" horiz-adv-x="470" 
d="M281 0h-92v484h-154v81h400v-81h-154v-484z" />
    <glyph glyph-name="u.smcp" horiz-adv-x="567" 
d="M402 189v376h91v-383q0 -85 -61 -140t-148 -55q-89 0 -149.5 54.5t-60.5 140.5v383h91v-376q0 -55 33 -88t86 -33t85.5 33t32.5 88z" />
    <glyph glyph-name="v.smcp" horiz-adv-x="539" 
d="M217 0l-185 565h94l119 -379q12 -38 24 -97q14 61 25 97l119 379h94l-185 -565h-105z" />
    <glyph glyph-name="w.smcp" horiz-adv-x="738" 
d="M145 0l-102 565h92l59 -356q6 -35 10 -102q21 85 26 101l87 268h102l88 -268q11 -32 26 -99q7 77 10 100l59 356h93l-103 -565h-104l-100 309q-8 24 -20 76q-9 -45 -19 -76l-101 -309h-103z" />
    <glyph glyph-name="x.smcp" horiz-adv-x="525" 
d="M474 565l-159 -265l180 -300h-103l-130 221l-133 -221h-100l180 297l-159 268h101l111 -190l114 190h98z" />
    <glyph glyph-name="y.smcp" horiz-adv-x="507" 
d="M208 0v216l-180 349h99l126 -258l127 258h99l-180 -349v-216h-91z" />
    <glyph glyph-name="z.smcp" horiz-adv-x="497" 
d="M48 0v65l271 419h-267v81h379v-64l-273 -421h291l-9 -80h-392z" />
    <glyph glyph-name="ampersand.smcp" horiz-adv-x="514" 
d="M480 258h-48v-102q0 -73 -50 -121t-136 -48t-138 48.5t-52 120.5q0 37 18 75.5t61 61.5q-71 38 -71 125q0 70 51 115t135 45q59 0 128 -25l-26 -75q-52 20 -100 20q-46 0 -71 -22.5t-25 -57.5q0 -38 23.5 -62.5t68.5 -24.5h40v-73h-44q-45 0 -70.5 -29t-25.5 -73
q0 -40 27 -64.5t72 -24.5q48 0 75 24.5t27 64.5v175h131v-73z" />
    <glyph glyph-name="question.smcp" horiz-adv-x="405" 
d="M240 160l-88 17v46q0 32 17 63t37 52t37 46.5t17 47.5q0 31 -19.5 49.5t-52.5 18.5q-46 0 -101 -36l-37 66q67 48 139 48q66 0 113 -37t47 -101q0 -32 -17 -64t-37.5 -53t-37.5 -48t-17 -50v-65zM201 -13q-23 0 -39.5 16.5t-16.5 39.5t16.5 38.5t39.5 15.5t39 -16t16 -38
q0 -23 -16.5 -39.5t-38.5 -16.5z" />
    <glyph glyph-name="exclam.smcp" horiz-adv-x="240" 
d="M162 180h-83l-6 377l95 17zM120 -13q-23 0 -39.5 16.5t-16.5 39.5t16.5 38.5t39.5 15.5t39 -16t16 -38q0 -23 -16.5 -39.5t-38.5 -16.5z" />
    <glyph glyph-name="questiondown.smcp" horiz-adv-x="405" 
d="M259 433q0 -23 -16.5 -38.5t-39.5 -15.5q-22 0 -38.5 15.5t-16.5 38.5t16 39t39 16t39.5 -16t16.5 -39zM312 11l37 -66q-67 -48 -139 -48q-66 0 -113 37t-47 101q0 32 17 64t37.5 53t37.5 48t17 50v65l88 -17v-46q0 -32 -17 -63t-37 -52t-37 -46.5t-17 -47.5
q0 -31 19.5 -49.5t52.5 -18.5q46 0 101 36z" />
    <glyph glyph-name="exclamdown.smcp" horiz-adv-x="240" 
d="M175 433q0 -23 -16.5 -38.5t-38.5 -15.5q-23 0 -39.5 15.5t-16.5 38.5q0 22 16.5 38.5t39.5 16.5q22 0 38.5 -16t16.5 -39zM167 -81l-96 -17l7 394h82z" />
    <glyph glyph-name="at.smcp" horiz-adv-x="784" 
d="M562 -18l29 -56q-100 -70 -226 -70q-139 0 -221 86t-82 215q0 158 101 269.5t266 111.5q132 0 212.5 -86.5t80.5 -220.5q0 -31 -3 -50h-184l-8 -58q-7 -52 -51.5 -87.5t-106.5 -35.5q-58 0 -94.5 31t-36.5 79q0 61 44 93.5t114 32.5h70l2 20q4 29 -10.5 49t-49.5 20
q-47 0 -105 -17l-9 62q68 22 122 22q64 0 98.5 -36.5t29.5 -97.5l-2 -22h111q0 103 -64.5 171t-168.5 68q-130 0 -210 -92t-80 -220q0 -108 64.5 -176t175.5 -68q101 0 192 63zM452 124l6 57h-69q-34 0 -54 -16t-20 -46q0 -23 16.5 -37.5t45.5 -14.5q30 0 50.5 16.5
t24.5 40.5z" />
    <glyph glyph-name="zerosmcp.tnum" horiz-adv-x="502" 
d="M457 348v-130q0 -114 -58 -172.5t-148 -58.5t-148 58.5t-58 172.5v130q0 114 57.5 172t148.5 58t148.5 -58t57.5 -172zM366 218v130q0 150 -115 150q-53 0 -84 -36t-31 -114v-130q0 -150 115 -150t115 150z" />
    <glyph glyph-name="onesmcp.tnum" horiz-adv-x="502" 
d="M364 0h-91v482l-135 -24v82l226 35v-575z" />
    <glyph glyph-name="twosmcp.tnum" horiz-adv-x="502" 
d="M429 0h-361v58q0 50 20 92t49.5 68.5t64.5 52t64.5 44t49.5 44t20 53.5q0 37 -25 61.5t-71 24.5q-59 0 -131 -34l-33 72q84 42 168 42q82 0 134 -45.5t52 -119.5q0 -45 -27.5 -83.5t-66 -66.5t-77.5 -55t-66.5 -60.5t-27.5 -70.5h264v-77z" />
    <glyph glyph-name="threesmcp.tnum" horiz-adv-x="502" 
d="M61 15l23 75q65 -22 129 -22q55 0 90 27.5t35 75.5q0 41 -27 66.5t-86 25.5h-66l-15 74l156 151h-223l-11 77h331l9 -77l-157 -152q81 -2 132 -46.5t51 -118.5q0 -83 -63.5 -133.5t-154.5 -50.5q-71 0 -153 28z" />
    <glyph glyph-name="foursmcp.tnum" horiz-adv-x="502" 
d="M372 1l-89 -8v128h-224l-12 74l118 370h87l-113 -366h144v179l89 15v-194h83v-78h-83v-120z" />
    <glyph glyph-name="fivesmcp.tnum" horiz-adv-x="502" 
d="M61 14l17 77q79 -23 144 -23q47 0 84 29t37 83q0 100 -129 100h-121l11 285h315l-18 -77h-214l-6 -132h44q100 0 156 -44t56 -130q0 -93 -64.5 -144t-148.5 -51q-82 0 -163 27z" />
    <glyph glyph-name="sixsmcp.tnum" horiz-adv-x="502" 
d="M57 177v190q0 91 54.5 151t151.5 60q60 0 137 -22l-21 -78q-62 20 -116 20t-84 -35t-30 -88v-27q52 33 114 33q83 0 136 -52.5t53 -144.5t-57 -144.5t-141 -52.5t-140.5 51t-56.5 139zM148 275v-99q0 -46 27.5 -77t77.5 -31t77.5 33t27.5 83q0 56 -27 90t-78 34
q-56 0 -105 -33z" />
    <glyph glyph-name="sevensmcp.tnum" horiz-adv-x="502" 
d="M284 0h-94q0 299 156 488h-282l-7 77h388v-76q-86 -103 -123.5 -209.5t-37.5 -279.5z" />
    <glyph glyph-name="eightsmcp.tnum" horiz-adv-x="502" 
d="M339 299q54 -27 84 -62t30 -90q0 -73 -60 -116.5t-142 -43.5t-142.5 43t-60.5 117q0 51 30 84.5t83 59.5q-94 54 -94 137q0 62 50 106t134 44q77 0 131.5 -42t54.5 -108q0 -44 -25.5 -74t-72.5 -55zM258 335q42 20 64 41.5t22 52.5q0 32 -26 51t-67 19t-66.5 -19
t-25.5 -51t24.5 -52t74.5 -42zM241 252q-48 -22 -73.5 -45.5t-25.5 -59.5t31 -58t78 -22q46 0 78 22t32 58q0 35 -30 57t-90 48z" />
    <glyph glyph-name="ninesmcp.tnum" horiz-adv-x="502" 
d="M357 191v27q-54 -34 -115 -34q-83 0 -136 52.5t-53 144.5q0 93 57 145t142 52q83 0 139.5 -51t56.5 -139v-190q0 -90 -54.5 -150.5t-151.5 -60.5q-61 0 -136 22l20 79q63 -20 116 -20t84 34.5t31 88.5zM357 291v98q0 46 -27.5 77.5t-77.5 31.5t-77.5 -33.5t-27.5 -83.5
q0 -56 27 -90t78 -34q57 0 105 34z" />
    <glyph glyph-name="dollarsmcp.tnum" horiz-adv-x="502" 
d="M287 -104h-70v94q-80 5 -152 31l17 78q90 -30 161 -30q42 0 69.5 21.5t27.5 59.5q0 35 -27 57t-65.5 35.5t-77 30t-65.5 50.5t-27 85q0 55 38.5 96.5t107.5 51.5v96h71v-94q49 -6 125 -29l-23 -76q-79 27 -130 27q-96 0 -96 -70q0 -32 27 -52.5t65.5 -33.5t77 -30
t65.5 -52.5t27 -90.5q0 -60 -38 -103t-108 -55v-97z" />
    <glyph glyph-name="centsmcp.tnum" horiz-adv-x="502" 
d="M311 -104h-70v96q-77 9 -115.5 57.5t-38.5 128.5v77q0 80 38.5 128t115.5 58v95h70v-94q43 -4 94 -19l-18 -74q-63 18 -107 18q-104 0 -104 -115v-72q0 -114 104 -114q41 0 107 17l18 -74q-46 -13 -94 -18v-95z" />
    <glyph glyph-name="sterlingsmcp.tnum" horiz-adv-x="502" 
d="M417 0h-332v67q32 40 45 72t14 78h-62v58h54q-1 6 -10.5 36t-13.5 52.5t-4 49.5q0 79 49.5 122t127.5 43q65 0 135 -29l-26 -73q-50 21 -103 21q-91 0 -91 -90q0 -23 3.5 -44t13 -52.5t10.5 -35.5h147v-58h-139q-1 -40 -12 -70.5t-41 -73.5h235v-73z" />
    <glyph glyph-name="Eurosmcp.tnum" horiz-adv-x="502" 
d="M438 81l16 -78q-70 -16 -129 -16q-91 0 -150.5 54.5t-60.5 148.5h-67v55h67v75h-67v56h67q1 93 60.5 147.5t150.5 54.5q59 0 129 -16l-16 -77q-65 14 -113 14q-53 0 -86 -33t-34 -90h173l-11 -56h-162v-75h148l-12 -55h-136q1 -57 33.5 -90t86.5 -33q55 0 113 14z" />
    <glyph glyph-name="yensmcp.tnum" horiz-adv-x="502" 
d="M410 90h-113v-90h-91v90h-113v58h113v56h-113v59h89l-154 302h96l127 -265l127 265h96l-154 -302h90v-59h-113v-56h113v-58z" />
    <glyph glyph-name="numbersignsmcp.tnum" horiz-adv-x="502" 
d="M356 0h-78l16 161h-114l-17 -161h-79l16 161h-61v77h70l11 117h-61v78h70l16 160h79l-16 -160h114l17 160h79l-16 -160h60v-78h-69l-11 -117h60v-77h-69zM302 238l12 117h-114l-12 -117h114z" />
    <glyph glyph-name="zero.smcp" horiz-adv-x="528" 
d="M470 348v-130q0 -114 -58 -172.5t-148 -58.5t-148 58.5t-58 172.5v130q0 114 57.5 172t148.5 58t148.5 -58t57.5 -172zM379 218v130q0 150 -115 150q-53 0 -84 -36t-31 -114v-130q0 -150 115 -150t115 150z" />
    <glyph glyph-name="one.smcp" horiz-adv-x="354" 
d="M274 0h-92v482l-135 -24v82l227 35v-575z" />
    <glyph glyph-name="two.smcp" horiz-adv-x="473" 
d="M411 0h-361v58q0 50 20 92t49.5 68.5t64.5 52t64.5 44t49.5 44t20 53.5q0 37 -25 61.5t-71 24.5q-59 0 -131 -34l-33 72q84 42 168 42q82 0 134 -45.5t52 -119.5q0 -45 -27.5 -83.5t-66 -66.5t-77.5 -55t-66.5 -60.5t-27.5 -70.5h264v-77z" />
    <glyph glyph-name="three.smcp" horiz-adv-x="457" 
d="M34 15l23 75q65 -22 128 -22q55 0 90.5 27.5t35.5 75.5q0 41 -27 66.5t-86 25.5h-67l-14 74l155 151h-222l-11 77h331l9 -77l-157 -152q81 -2 132 -46.5t51 -118.5q0 -83 -64 -133.5t-155 -50.5q-70 0 -152 28z" />
    <glyph glyph-name="four.smcp" horiz-adv-x="498" 
d="M372 1l-88 -8v128h-224l-12 74l118 370h86l-112 -366h144v179l88 15v-194h83v-78h-83v-120z" />
    <glyph glyph-name="five.smcp" horiz-adv-x="463" 
d="M36 14l17 77q79 -23 144 -23q47 0 84 29t37 83q0 100 -129 100h-121l11 285h315l-18 -77h-214l-6 -132h44q100 0 156 -44t56 -130q0 -93 -64.5 -144t-148.5 -51q-82 0 -163 27z" />
    <glyph glyph-name="six.smcp" horiz-adv-x="502" 
d="M58 177v190q0 91 54.5 151t152.5 60q59 0 136 -22l-20 -78q-63 20 -116 20q-55 0 -85 -35t-30 -88v-27q52 33 115 33q82 0 135 -52.5t53 -144.5t-57 -144.5t-141 -52.5q-83 0 -140 51t-57 139zM149 275v-99q0 -45 28 -76.5t78 -31.5t77.5 33t27.5 83q0 56 -27 90t-78 34
q-57 0 -106 -33z" />
    <glyph glyph-name="seven.smcp" horiz-adv-x="448" 
d="M253 0h-94q0 299 156 488h-282l-6 77h387v-76q-86 -103 -123.5 -209.5t-37.5 -279.5z" />
    <glyph glyph-name="eight.smcp" horiz-adv-x="512" 
d="M344 299q54 -27 84.5 -62t30.5 -90q0 -73 -60.5 -116.5t-142.5 -43.5t-142 43t-60 117q0 51 30 84.5t82 59.5q-94 54 -94 137q0 62 50 106t134 44q76 0 131 -42t55 -108q0 -44 -25.5 -74t-72.5 -55zM263 335q42 20 64 41.5t22 52.5q0 32 -26 51t-67 19t-66 -19t-25 -51
t24.5 -52t73.5 -42zM246 252q-48 -22 -73.5 -45.5t-25.5 -59.5t31 -58t78 -22q46 0 78 22t32 58q0 35 -30 57t-90 48z" />
    <glyph glyph-name="nine.smcp" horiz-adv-x="497" 
d="M347 191v27q-54 -34 -115 -34q-83 0 -135.5 52.5t-52.5 144.5q0 93 56.5 145t141.5 52q83 0 140 -51t57 -139v-190q0 -90 -54.5 -150.5t-151.5 -60.5q-60 0 -137 22l20 79q63 -20 117 -20q53 0 83.5 34.5t30.5 88.5zM347 291v98q0 46 -27.5 77.5t-76.5 31.5
q-50 0 -78 -33.5t-28 -83.5q0 -56 27 -90t79 -34q56 0 104 34z" />
    <glyph glyph-name="dollar.smcp" horiz-adv-x="458" 
d="M261 -104h-70v94q-80 5 -152 31l17 78q90 -30 161 -30q42 0 69.5 21.5t27.5 59.5q0 35 -27 57t-65.5 35.5t-77 30t-65.5 50.5t-27 85q0 55 38.5 96.5t107.5 51.5v96h71v-94q49 -6 125 -29l-23 -76q-79 27 -130 27q-96 0 -96 -70q0 -32 27 -52.5t65.5 -33.5t77 -30
t65.5 -52.5t27 -90.5q0 -60 -38 -103t-108 -55v-97z" />
    <glyph glyph-name="cent.smcp" horiz-adv-x="435" 
d="M282 -104h-70v96q-77 9 -115.5 57.5t-38.5 128.5v77q0 80 38.5 128t115.5 58v95h70v-94q43 -4 94 -19l-18 -74q-63 18 -107 18q-104 0 -104 -115v-72q0 -114 104 -114q41 0 107 17l18 -74q-46 -13 -94 -18v-95z" />
    <glyph glyph-name="sterling.smcp" horiz-adv-x="445" 
d="M395 0h-331v67q31 40 44.5 72t14.5 78h-63v58h54q-1 6 -10.5 36t-13.5 52.5t-4 49.5q0 79 49.5 122t127.5 43q65 0 135 -29l-26 -73q-48 21 -103 21q-90 0 -90 -90q0 -18 3 -37.5t6 -32t9 -33.5t8 -29h147v-58h-139q-1 -40 -12 -70.5t-41 -73.5h235v-73z" />
    <glyph glyph-name="Euro.smcp" horiz-adv-x="479" 
d="M431 81l16 -78q-70 -16 -130 -16q-91 0 -150 54.5t-60 148.5h-67v55h67v75h-67v56h67q1 93 60 147.5t150 54.5q60 0 130 -16l-16 -77q-65 14 -113 14q-53 0 -86 -33t-34 -90h172l-10 -56h-162v-75h148l-12 -55h-136q1 -57 33.5 -90t86.5 -33q55 0 113 14z" />
    <glyph glyph-name="yen.smcp" horiz-adv-x="471" 
d="M394 90h-113v-90h-91v90h-112v58h112v56h-112v59h89l-155 302h97l127 -265l127 265h95l-153 -302h89v-59h-113v-56h113v-58z" />
    <glyph glyph-name="numbersign.smcp" horiz-adv-x="508" 
d="M359 0h-78l16 161h-114l-17 -161h-79l16 161h-61v77h70l11 117h-61v78h70l16 160h79l-16 -160h114l17 160h79l-16 -160h60v-78h-69l-11 -117h60v-77h-69zM305 238l12 117h-114l-12 -117h114z" />
    <glyph glyph-name="grave.smcp" horiz-adv-x="390" 
d="M285 634l-203 74l30 73l197 -86z" />
    <glyph glyph-name="acute.smcp" horiz-adv-x="390" 
d="M309 708l-203 -74l-25 61l198 86z" />
    <glyph glyph-name="dieresis.smcp" horiz-adv-x="450" 
d="M370 707q0 -21 -15.5 -36t-37.5 -15q-21 0 -36.5 15t-15.5 36q0 22 15.5 37.5t36.5 15.5q22 0 37.5 -15.5t15.5 -37.5zM185 707q0 -21 -15.5 -36t-37.5 -15q-21 0 -36.5 15t-15.5 36q0 22 15.5 37.5t36.5 15.5q22 0 37.5 -15.5t15.5 -37.5z" />
    <glyph glyph-name="circumflex.smcp" horiz-adv-x="467" 
d="M332 636l-98 66l-99 -66l-38 62l136 81l137 -81z" />
    <glyph glyph-name="tilde.smcp" horiz-adv-x="449" 
d="M330 749l39 -43q-9 -22 -31.5 -40t-54.5 -18q-27 0 -64 23.5t-52 23.5q-25 0 -47 -29l-39 43q9 22 31.5 40t54.5 18q27 0 64 -23.5t52 -23.5q25 0 47 29z" />
    <glyph glyph-name="macron.smcp" horiz-adv-x="425" 
d="M339 675h-253v71h253v-71z" />
    <glyph glyph-name="breve.smcp" horiz-adv-x="407" 
d="M255 771h69q-1 -54 -35 -89.5t-85 -35.5t-85.5 35.5t-34.5 89.5h68q0 -25 15 -42.5t37 -17.5q21 0 36 17.5t15 42.5z" />
    <glyph glyph-name="dotaccent.smcp" horiz-adv-x="266" 
d="M185 707q0 -21 -15.5 -36t-37.5 -15q-21 0 -36.5 15t-15.5 36t16 37t36 16q22 0 37.5 -15.5t15.5 -37.5z" />
    <glyph glyph-name="ring.smcp" horiz-adv-x="343" 
d="M173 634q-38 0 -65.5 27t-27.5 65q0 37 27.5 63.5t65.5 26.5q37 0 63.5 -26.5t26.5 -63.5q0 -38 -26.5 -65t-63.5 -27zM173 691q13 0 23 10.5t10 24.5t-9.5 24t-23.5 10t-24 -10t-10 -24t10 -24.5t24 -10.5z" />
    <glyph glyph-name="cedilla.smcp" horiz-adv-x="298" 
d="M148 -90v90h77v-99q0 -59 -35 -85.5t-85 -26.5q-38 0 -66 8l10 70q22 -6 50 -6q49 0 49 49z" />
    <glyph glyph-name="hungarumlaut.smcp" horiz-adv-x="576" 
d="M494 724l-166 -96l-35 58l160 105zM284 723l-166 -95l-35 57l160 106z" />
    <glyph glyph-name="ogonek.smcp" horiz-adv-x="313" 
d="M221 -152l12 -62q-26 -9 -53 -9q-49 0 -77 25.5t-28 68.5q0 72 78 129h80q-86 -65 -86 -121q0 -37 38 -37q22 0 36 6z" />
    <glyph glyph-name="caron.smcp" horiz-adv-x="467" 
d="M370 717l-136 -82l-137 82l38 61l98 -66l99 66z" />
    <glyph glyph-name="commaaccent.smcp" horiz-adv-x="217" 
d="M115 -224h-63l29 160h87z" />
    <glyph glyph-name="aacute.smcp" horiz-adv-x="539" 
d="M383 708l-203 -74l-24 61l197 86zM32 0l185 565h105l185 -565h-94l-46 148h-195l-46 -148h-94zM195 224h149l-50 155q-9 28 -25 96q-12 -59 -24 -96z" />
    <glyph glyph-name="agrave.smcp" horiz-adv-x="539" 
d="M359 634l-203 74l30 73l197 -86zM32 0l185 565h105l185 -565h-94l-46 148h-195l-46 -148h-94zM195 224h149l-50 155q-9 28 -25 96q-12 -59 -24 -96z" />
    <glyph glyph-name="acircumflex.smcp" horiz-adv-x="539" 
d="M368 636l-98 66l-99 -66l-38 62l136 81l137 -81zM32 0l185 565h105l185 -565h-94l-46 148h-195l-46 -148h-94zM195 224h149l-50 155q-9 28 -25 96q-12 -59 -24 -96z" />
    <glyph glyph-name="adieresis.smcp" horiz-adv-x="539" 
d="M415 707q0 -21 -15.5 -36t-37.5 -15q-21 0 -36.5 15t-15.5 36q0 22 15.5 37.5t36.5 15.5q22 0 37.5 -15.5t15.5 -37.5zM229 707q0 -21 -15 -36t-37 -15q-21 0 -36.5 15t-15.5 36q0 22 15.5 37.5t36.5 15.5q22 0 37 -15.5t15 -37.5zM32 0l185 565h105l185 -565h-94
l-46 148h-195l-46 -148h-94zM195 224h149l-50 155q-9 28 -25 96q-12 -59 -24 -96z" />
    <glyph glyph-name="atilde.smcp" horiz-adv-x="539" 
d="M374 749l39 -43q-9 -22 -31.5 -40t-53.5 -18q-28 0 -64.5 23.5t-51.5 23.5q-27 0 -47 -29l-39 43q10 22 32 40t54 18q28 0 64 -23.5t52 -23.5q26 0 46 29zM32 0l185 565h105l185 -565h-94l-46 148h-195l-46 -148h-94zM195 224h149l-50 155q-9 28 -25 96q-12 -59 -24 -96z
" />
    <glyph glyph-name="aring.smcp" horiz-adv-x="539" 
d="M270 634q-38 0 -65 27t-27 65q0 37 27 63.5t65 26.5q37 0 64 -26.5t27 -63.5t-27 -64.5t-64 -27.5zM270 691q14 0 24 10.5t10 24.5t-10 24t-24 10t-23.5 -10t-9.5 -24t9.5 -24.5t23.5 -10.5zM32 0l185 565h105l185 -565h-94l-46 148h-195l-46 -148h-94zM195 224h149
l-50 155q-9 28 -25 96q-12 -59 -24 -96z" />
    <glyph glyph-name="amacron.smcp" horiz-adv-x="539" 
d="M396 675h-253v71h253v-71zM32 0l185 565h105l185 -565h-94l-46 148h-195l-46 -148h-94zM195 224h149l-50 155q-9 28 -25 96q-12 -59 -24 -96z" />
    <glyph glyph-name="abreve.smcp" horiz-adv-x="539" 
d="M321 771h69q-1 -54 -35 -89.5t-85 -35.5t-85.5 35.5t-34.5 89.5h68q0 -25 15 -42.5t37 -17.5q21 0 36 17.5t15 42.5zM32 0l185 565h105l185 -565h-94l-46 148h-195l-46 -148h-94zM195 224h149l-50 155q-9 28 -25 96q-12 -59 -24 -96z" />
    <glyph glyph-name="aogonek.smcp" horiz-adv-x="539" 
d="M32 0l185 565h105l185 -565q-86 -65 -86 -121q0 -37 38 -37q22 0 36 6l12 -62q-26 -9 -53 -9q-49 0 -77 25.5t-28 68.5q0 72 78 129h-14l-46 148h-195l-46 -148h-94zM195 224h149l-50 155q-9 28 -25 96q-12 -59 -24 -96z" />
    <glyph glyph-name="ae.smcp" horiz-adv-x="782" 
d="M427 0l-11 148h-204l-88 -148h-104l346 565h338l5 -80h-231l14 -162h207l-12 -76h-190l13 -167h236l5 -80h-324zM393 451l-135 -227h152z" />
    <glyph glyph-name="cacute.smcp" horiz-adv-x="507" 
d="M384 708l-203 -74l-24 61l197 86zM442 92l18 -79q-87 -26 -168 -26q-103 0 -166.5 59t-63.5 171v131q0 112 63.5 171t166.5 59q79 0 168 -26l-18 -78q-78 23 -149 23q-140 0 -140 -155v-119q0 -155 140 -155q79 0 149 24z" />
    <glyph glyph-name="ccircumflex.smcp" horiz-adv-x="507" 
d="M375 636l-99 66l-98 -66l-39 62l137 81l137 -81zM442 92l18 -79q-87 -26 -168 -26q-103 0 -166.5 59t-63.5 171v131q0 112 63.5 171t166.5 59q79 0 168 -26l-18 -78q-78 23 -149 23q-140 0 -140 -155v-119q0 -155 140 -155q79 0 149 24z" />
    <glyph glyph-name="ccaron.smcp" horiz-adv-x="507" 
d="M414 717l-136 -82l-137 82l38 61l98 -66l99 66zM442 92l18 -79q-87 -26 -168 -26q-103 0 -166.5 59t-63.5 171v131q0 112 63.5 171t166.5 59q79 0 168 -26l-18 -78q-78 23 -149 23q-140 0 -140 -155v-119q0 -155 140 -155q79 0 149 24z" />
    <glyph glyph-name="ccedilla.smcp" horiz-adv-x="507" 
d="M268 -90v78q-94 7 -150 65t-56 164v131q0 112 63.5 171t166.5 59q79 0 168 -26l-18 -78q-78 23 -149 23q-140 0 -140 -155v-119q0 -155 140 -155q79 0 149 24l18 -79q-63 -19 -116 -23v-89q0 -59 -35 -85.5t-84 -26.5q-38 0 -66 8l9 70q24 -6 50 -6q50 0 50 49z" />
    <glyph glyph-name="dcaron.smcp" horiz-adv-x="562" 
d="M411 717l-137 -82l-137 82l39 61l98 -66l99 66zM289 0h-211v532q126 46 211 46q90 0 150.5 -56t60.5 -154v-163q0 -101 -55 -153t-156 -52zM408 210v152q0 66 -32 100.5t-87 34.5q-59 0 -119 -20v-397h119q62 0 90.5 30.5t28.5 99.5z" />
    <glyph glyph-name="dcroat.smcp" horiz-adv-x="562" 
d="M289 0h-211v252h-55v62h55v218q126 46 211 46q90 0 150.5 -56t60.5 -154v-163q0 -101 -55 -153t-156 -52zM408 210v152q0 66 -32 100.5t-87 34.5q-59 0 -119 -20v-163h119v-62h-119v-172h119q62 0 90.5 30.5t28.5 99.5z" />
    <glyph glyph-name="eth.smcp" horiz-adv-x="562" 
d="M289 0h-211v252h-55v62h55v218q126 46 211 46q90 0 150.5 -56t60.5 -154v-163q0 -101 -55 -153t-156 -52zM408 210v152q0 66 -32 100.5t-87 34.5q-59 0 -119 -20v-163h119v-62h-119v-172h119q62 0 90.5 30.5t28.5 99.5z" />
    <glyph glyph-name="eacute.smcp" horiz-adv-x="475" 
d="M354 708l-203 -74l-25 61l198 86zM414 0h-336v565h328v-80h-236v-162h200l-5 -76h-195v-167h244v-80z" />
    </font>
</defs>
</svg>
