<svg width="36" height="36" viewBox="0 0 36 36" fill="none" xmlns="http://www.w3.org/2000/svg">
<path d="M23.3484 0H3.90002V36H32.1V8.7516L23.3484 0ZM23.7 2.0484L30.0516 8.4H23.7V2.0484ZM5.10002 34.8V1.2H22.5V9.6H30.9V34.8H5.10002Z" fill="#C3CAD6"/>
<path d="M25.5 12.6H15.9C15.5688 12.6 15.3 12.8682 15.3 13.2C15.3 13.5318 15.5688 13.8 15.9 13.8H25.5C25.8312 13.8 26.1 13.5318 26.1 13.2C26.1 12.8682 25.8312 12.6 25.5 12.6Z" fill="#C3CAD6"/>
<path d="M13.725 10.9314L11.1444 12.996L10.3242 12.1758C10.0896 11.9412 9.71042 11.9412 9.47582 12.1758C9.24122 12.4104 9.24122 12.7896 9.47582 13.0242L10.6758 14.2242C10.7922 14.3406 10.9458 14.4 11.1 14.4C11.232 14.4 11.3646 14.3568 11.4744 14.2686L14.4744 11.8686C14.7336 11.661 14.775 11.2836 14.568 11.025C14.3616 10.7658 13.9836 10.7244 13.725 10.9314Z" fill="#C3CAD6"/>
<path d="M25.5 19.2H15.9C15.5688 19.2 15.3 19.4682 15.3 19.8C15.3 20.1318 15.5688 20.4 15.9 20.4H25.5C25.8312 20.4 26.1 20.1318 26.1 19.8C26.1 19.4682 25.8312 19.2 25.5 19.2Z" fill="#C3CAD6"/>
<path d="M13.725 17.5314L11.1444 19.596L10.3242 18.7758C10.0896 18.5412 9.71042 18.5412 9.47582 18.7758C9.24122 19.0104 9.24122 19.3896 9.47582 19.6242L10.6758 20.8242C10.7922 20.9406 10.9458 21 11.1 21C11.232 21 11.3646 20.9568 11.4744 20.8686L14.4744 18.4686C14.7336 18.261 14.775 17.8836 14.568 17.625C14.3616 17.3658 13.9836 17.3244 13.725 17.5314Z" fill="#C3CAD6"/>
<path d="M25.5 25.8H15.9C15.5688 25.8 15.3 26.0682 15.3 26.4C15.3 26.7318 15.5688 27 15.9 27H25.5C25.8312 27 26.1 26.7318 26.1 26.4C26.1 26.0682 25.8312 25.8 25.5 25.8Z" fill="#C3CAD6"/>
<path d="M13.725 24.1314L11.1444 26.196L10.3242 25.3758C10.0896 25.1412 9.71042 25.1412 9.47582 25.3758C9.24122 25.6104 9.24122 25.9896 9.47582 26.2242L10.6758 27.4242C10.7922 27.5406 10.9458 27.6 11.1 27.6C11.232 27.6 11.3646 27.5568 11.4744 27.4686L14.4744 25.0686C14.7336 24.861 14.775 24.4836 14.568 24.225C14.3616 23.9658 13.9836 23.9244 13.725 24.1314Z" fill="#C3CAD6"/>
</svg>
