<svg width="25" height="25" viewBox="0 0 25 25" fill="none" xmlns="http://www.w3.org/2000/svg">
<path d="M20.6072 9.98397L25 7.4741L12.5002 0.375305L0 7.4741L4.39284 9.98397L0 12.4784L4.39284 14.9882L0 17.4827L12.5002 24.6242L25 17.4827L20.6072 14.9882L25 12.4784L20.6072 9.98397ZM12.5002 1.42165L23.1616 7.47637L12.5002 13.5679L1.83839 7.47637L12.5002 1.42165ZM5.31136 10.5085L12.5002 14.6157L19.6891 10.5085L23.1616 12.4806L12.5002 18.5722L1.83839 12.4806L5.31136 10.5085ZM23.1616 17.4849L12.5002 23.5765L1.83839 17.4849L5.31136 15.5128L12.5002 19.6199L19.6891 15.5128L23.1616 17.4849Z" fill="white"/>
</svg>
